<svg width="115" height="128" viewBox="0 0 115 128" fill="none" xmlns="http://www.w3.org/2000/svg">
<path d="M53.6334 0.255821C51.608 1.08094 50.1328 3.33128 50.1328 5.65664V6.95683L42.3316 7.03184C33.8054 7.10685 33.8304 7.10685 32.2801 8.65709C30.6549 10.2573 30.6299 10.3073 30.6299 21.459C30.6299 28.3101 30.7299 31.8606 30.9049 32.5107C31.555 34.686 33.7304 36.2362 36.0807 36.2362H37.3809V38.8616C37.3809 42.3872 37.806 43.2373 39.6062 43.2373C40.4314 43.2373 40.5814 43.1123 45.2571 39.3617L49.0077 36.3613L55.0586 36.2362L61.0845 36.1112L62.1596 35.3611C63.6349 34.336 64.635 32.3857 64.635 30.5854C64.635 29.3852 64.685 29.2352 65.1601 29.2352C65.4601 29.2352 67.5104 30.6854 69.9108 32.6107C72.2362 34.461 74.4115 36.0362 74.7615 36.1362C75.5367 36.3363 76.6618 35.7612 77.0619 34.9861C77.2619 34.611 77.3869 33.3608 77.3869 31.7856V29.2352H78.3371C79.8623 29.2352 81.1125 28.7601 82.1877 27.785C84.138 26.0097 84.138 26.1597 84.138 14.758C84.138 3.85637 84.0879 3.4063 82.8128 1.83106C81.2625 -0.0442238 81.5876 -0.0192223 67.1354 0.00578308C59.2842 0.00578308 54.0084 0.105797 53.6334 0.255821ZM79.3622 4.58147C79.8873 5.05655 79.8873 5.23157 79.8873 14.533C79.8873 25.8347 80.1374 24.9846 76.6618 24.9846C73.6614 24.9846 73.3113 25.2596 73.1363 27.735L73.0113 29.5352L70.1608 27.2599C67.3854 25.0346 67.3104 24.9846 65.9852 24.9846H64.635V18.4086C64.635 14.383 64.535 11.4825 64.36 10.8574C64.1849 10.2323 63.6349 9.4072 62.9098 8.7071C61.4845 7.25688 60.5594 6.98183 57.0839 6.98183H54.3835V6.03169C54.3835 5.08155 54.7835 4.48146 55.6337 4.15641C55.8337 4.0814 61.1345 4.03139 67.4104 4.05639C78.2621 4.1064 78.8622 4.1314 79.3622 4.58147ZM59.8843 11.7326C60.3594 12.2076 60.3844 12.5577 60.3844 21.659C60.3844 30.0603 60.3344 31.1105 59.9593 31.5355C59.5843 31.9356 59.0592 31.9856 53.7834 31.9856C49.2827 31.9856 47.8575 32.0606 47.3324 32.3357C46.9573 32.5357 45.5321 33.6109 44.1319 34.736L41.6315 36.7613V35.1111C41.6315 34.1859 41.5315 33.2358 41.3815 32.9858C41.0315 32.3107 39.8063 31.9856 37.6809 31.9856C34.6555 31.9856 34.8805 32.7857 34.8805 21.6841C34.8805 12.5577 34.9055 12.2076 35.3806 11.7326C35.8557 11.2575 36.2057 11.2325 47.6324 11.2325C59.0592 11.2325 59.4092 11.2575 59.8843 11.7326Z" fill="black"/>
<path d="M39.2558 16.5083C38.4557 16.9833 38.1306 17.5334 38.1306 18.4836C38.1306 20.0088 39.6808 20.9339 41.2561 20.3338C41.8812 20.0838 42.4313 18.7836 42.2562 17.9835C41.9812 16.6833 40.356 15.8832 39.2558 16.5083Z" fill="black"/>
<path d="M43.8567 16.9584C42.9315 17.9085 42.8815 19.0087 43.7566 19.8588L44.3567 20.4839H50.2076C55.9835 20.4839 56.0585 20.4839 56.5836 19.9088C56.9086 19.5587 57.1337 19.0087 57.1337 18.5586C57.1337 16.3833 56.6336 16.2332 50.0076 16.2332H44.5818L43.8567 16.9584Z" fill="black"/>
<path d="M38.7557 23.3343C37.8556 24.2344 37.8806 25.7597 38.7808 26.4598C39.4308 26.9599 39.7309 26.9849 47.6821 26.9849H55.9083L56.5084 26.3598C57.2835 25.6097 57.3335 24.2845 56.6584 23.4593L56.1834 22.8592L47.7821 22.7842L39.3808 22.7092L38.7557 23.3343Z" fill="black"/>
<path d="M13.377 23.1592C11.7018 23.4342 9.50143 24.3844 7.90119 25.5095C1.95029 29.6852 0.40006 38.0114 4.45067 44.0623L5.52583 45.6626L4.77572 45.9876C3.40051 46.5877 1.27519 48.9881 0.600091 50.6133L0 52.1135V72.3666V92.6197L0.700106 94.0449C1.55023 95.7701 2.97545 97.0703 4.80072 97.7454C6.05091 98.2205 6.75102 98.2455 15.7524 98.2455H25.3788V110.347V122.449L26.204 124.024C27.1041 125.775 28.7543 127.225 30.3796 127.725C30.8797 127.875 32.0798 128 33.03 128C35.9804 128 38.4058 126.4 39.681 123.624L40.2561 122.374L40.3311 106.247C40.3811 93.2198 40.3311 89.8692 40.056 88.8191L39.706 87.4939H47.5322H55.3834V102.621V117.748H53.183C50.4576 117.748 48.7324 118.474 47.6822 120.074C47.0571 120.999 47.0071 121.324 46.9321 123.949C46.8321 126.625 46.8821 126.825 47.4072 127.4L47.9572 128H57.3837H66.8101L67.3602 127.4C67.8852 126.825 67.9352 126.625 67.8352 123.949C67.7602 121.299 67.7102 120.999 67.0601 120.024C66.01 118.424 64.3597 117.748 61.5843 117.748H59.384V102.621V87.4939H67.2351H75.0863L74.7363 88.7191C74.4362 89.7192 74.3862 92.6947 74.4362 106.272L74.5112 122.624L75.1863 123.874C76.6616 126.65 78.8619 127.975 81.9124 128C84.9878 128 87.2382 126.65 88.7134 123.899C89.2635 122.899 89.2635 122.699 89.3385 110.572L89.4135 98.2705L99.34 98.1955L109.266 98.1205L110.717 97.3954C112.317 96.6203 113.867 94.92 114.442 93.3198C114.692 92.5447 114.767 88.369 114.767 72.2416V52.1135L114.192 50.6883C113.492 48.9631 111.817 47.0378 110.317 46.2377L109.241 45.6626L110.317 44.0623C114.342 38.0614 112.817 29.7352 106.941 25.5595C101.49 21.659 94.0892 22.259 89.3885 26.9848C82.3874 33.9858 84.9628 45.9126 94.2142 49.2881L95.6894 49.8132L88.9634 56.5392L82.2624 63.2402H74.1362C69.6605 63.2402 65.5849 63.3152 65.0598 63.3903C61.6093 63.9653 59.0839 67.7659 59.809 71.2914L60.0591 72.4916H57.3837H54.7083L54.9583 71.2914C55.5084 68.616 54.2582 65.7156 51.9578 64.3404C51.2327 63.9153 50.2076 63.4903 49.7075 63.3903C49.1824 63.3152 45.1068 63.2402 40.6311 63.2402H32.5049L25.8039 56.5392L19.0779 49.8132L20.5531 49.2881C29.8045 45.9126 32.3799 33.9608 25.3788 26.9848C23.5285 25.1345 21.0532 23.7593 18.6778 23.2592C17.4026 22.9842 14.6772 22.9342 13.377 23.1592ZM19.653 28.1599C21.6783 29.1101 23.2535 30.6603 24.2287 32.7356C24.9288 34.1858 25.0038 34.6109 25.0038 36.6112C25.0038 38.6615 24.9288 39.0366 24.1786 40.5368C22.3284 44.3124 18.1527 46.5127 14.2772 45.7376C11.1017 45.1125 8.85134 43.4122 7.45112 40.5368C6.57599 38.7865 6.50098 38.4615 6.52598 36.6362C6.55099 34.0858 7.22609 32.2355 8.80133 30.4853C10.8766 28.1849 13.152 27.1848 16.1524 27.3098C17.6277 27.3848 18.4028 27.5598 19.653 28.1599ZM102.991 28.2099C106.316 29.8352 108.216 32.8857 108.241 36.6112C108.266 38.3615 108.166 38.8365 107.466 40.2868C106.091 43.2122 103.666 45.1125 100.49 45.7376C96.6396 46.4877 92.4389 44.2874 90.5887 40.5368C89.8386 39.0366 89.7635 38.6615 89.7635 36.6112C89.7635 34.6109 89.8386 34.1858 90.5387 32.7356C92.2389 29.1351 95.5144 27.1598 99.44 27.3098C100.99 27.3848 101.665 27.5598 102.991 28.2099ZM12.5019 49.9632C13.452 50.4383 15.7524 52.5636 22.2034 58.9646L30.6546 67.3659L40.006 67.4909L49.3825 67.6159L50.0075 68.266C50.3576 68.616 50.7076 69.3161 50.8077 69.8162C50.9327 70.6163 50.8327 70.8414 50.0576 71.6165L49.1824 72.4916H39.431C33.105 72.4916 29.4044 72.3916 28.9544 72.2166C28.5793 72.0666 25.2538 68.9911 21.6033 65.3405C14.3772 58.1645 14.2772 58.0895 12.7769 59.2646C12.2518 59.6647 12.1268 59.9897 12.1268 60.8149C12.1268 61.815 12.2518 61.99 14.7522 64.4904L17.3776 67.1158V75.167V83.2432H10.7516H4.10062L4.17563 68.041L4.25064 52.8137L5.00075 51.6135C6.07592 49.8882 7.47613 49.1631 9.62645 49.2881C10.6766 49.3381 11.7018 49.5882 12.5019 49.9632ZM107.916 49.8132C108.641 50.2133 109.266 50.8134 109.767 51.6135L110.517 52.8137L110.592 68.041L110.667 83.2432H104.016H97.3897V75.167V67.1158L100.015 64.4904C102.515 61.99 102.64 61.815 102.64 60.8149C102.64 59.9897 102.515 59.6647 101.99 59.2646C100.49 58.0895 100.39 58.1645 93.1641 65.3405C89.5135 68.9911 86.188 72.0666 85.8129 72.2166C85.3629 72.3916 81.6623 72.4916 75.3364 72.4916H65.5849L64.7098 71.6165C63.9346 70.8414 63.8346 70.6163 63.9596 69.8162C64.0597 69.3161 64.4097 68.616 64.7598 68.266L65.3849 67.6159L74.7613 67.4909L84.1377 67.3659L92.3139 59.2146C96.8396 54.7389 100.865 50.8134 101.315 50.5133C103.341 49.1381 106.066 48.8381 107.916 49.8132ZM26.829 75.9672L27.8792 76.4922V79.8677V83.2432H24.7537H21.6283V77.3174V71.3665L23.7036 73.4168C24.8287 74.5169 26.229 75.6921 26.829 75.9672ZM93.1391 77.3674V83.2432H90.0136H86.8881V79.8677V76.4922L88.0883 75.8921C88.7384 75.5671 90.1136 74.4169 91.1387 73.3918C92.1639 72.3416 93.039 71.4915 93.064 71.4915C93.114 71.4915 93.1391 74.1419 93.1391 77.3674ZM82.6375 79.9928V83.2432H57.3837H32.1298V79.9928V76.7423H57.3837H82.6375V79.9928ZM34.4052 88.069C36.1805 89.2442 36.1305 88.6191 36.1305 105.697C36.1305 122.599 36.1555 122.274 34.5802 123.249C34.1051 123.549 33.305 123.749 32.6799 123.749C31.8298 123.749 31.4547 123.599 30.6796 122.899L29.7545 122.049L29.6295 108.622L29.5045 95.195L28.8043 94.595L28.1042 93.9949H17.4026H6.70101L5.85088 93.4198C4.60069 92.5947 4.12562 91.4445 4.12562 89.2942V87.4939H18.8528H33.5551L34.4052 88.069ZM110.642 89.2942C110.642 91.4445 110.167 92.5947 108.916 93.4198L108.066 93.9949H97.3647H86.6631L85.963 94.595L85.2629 95.195L85.1378 108.622L85.0128 122.049L84.0877 122.899C83.3126 123.599 82.9375 123.749 82.0874 123.749C81.4623 123.749 80.6622 123.549 80.1871 123.249C78.6119 122.274 78.6369 122.599 78.6369 105.697C78.6369 88.6191 78.5869 89.2442 80.3621 88.069L81.2122 87.4939H95.9145H110.642V89.2942ZM63.3346 122.299C63.5096 122.474 63.6346 122.924 63.6346 123.299V123.999H57.3837H51.1327V123.299C51.1327 122.924 51.2577 122.474 51.4328 122.299C51.8578 121.874 62.9095 121.874 63.3346 122.299Z" fill="black"/>
</svg>
