<svg width="123" height="123" viewBox="0 0 123 123" fill="none" xmlns="http://www.w3.org/2000/svg">
<path d="M59.733 0.477829C59.279 0.931801 59.2551 1.26631 59.2551 5.47151V10.0112L59.8764 10.4891C60.2347 10.7758 60.8082 10.9908 61.1666 10.9908C61.525 10.9908 62.0984 10.7758 62.4568 10.4891L63.078 10.0112V5.47151C63.078 1.26631 63.0541 0.931801 62.6002 0.477829C62.2896 0.167217 61.8117 -3.52859e-05 61.1666 -3.52859e-05C60.5215 -3.52859e-05 60.0436 0.167217 59.733 0.477829Z" fill="black"/>
<path d="M41.6458 9.98744C40.5945 10.1547 39.8538 11.66 40.2839 12.7352C40.3556 12.9502 42.3387 14.8378 44.7041 16.9643C49.6022 21.3606 50.104 21.6234 51.3703 20.3571C52.1349 19.5925 52.2544 18.8518 51.7765 18.0156C51.2986 17.1554 43.2944 10.1069 42.721 10.0113C42.4104 9.93965 41.9325 9.93965 41.6458 9.98744Z" fill="black"/>
<path d="M79.636 9.98755C78.9431 10.0831 70.9628 17.275 70.5088 18.2068C70.0787 19.067 70.3415 19.951 71.2495 20.62C72.3964 21.4802 73.1132 21.0501 77.7245 16.8927C80.0422 14.814 81.9775 12.9503 82.0492 12.7353C82.6465 11.1822 81.3802 9.72473 79.636 9.98755Z" fill="black"/>
<path d="M17.3943 15.4351C16.558 15.8652 16.2235 16.5581 14.2404 21.8863L12.6156 26.211L9.70065 26.3782C0.955729 26.8561 1.62474 26.7605 0.764583 27.6207C0.119466 28.2658 0 28.5525 0 29.5082C0 30.1056 0.0955729 30.7985 0.215039 31.0135C0.334505 31.2286 2.31764 32.925 4.5875 34.7647L8.74492 38.0859L7.35911 43.2468C6.42728 46.6397 5.9972 48.6228 6.09277 49.1246C6.16445 49.5308 6.54674 50.1759 6.95293 50.5582C7.55026 51.1316 7.88476 51.2511 8.8166 51.2511C9.79622 51.2511 10.2263 51.0838 11.7316 50.0803C12.7112 49.4352 14.6943 48.1211 16.1757 47.1414L18.8518 45.4211L22.3879 47.7388C28.2657 51.6334 28.6002 51.7767 30.1055 51.0121C31.0851 50.5104 31.5391 49.7458 31.5391 48.6228C31.5391 48.0972 30.9417 45.5167 30.2249 42.8884C29.1975 39.1372 28.9825 38.062 29.2214 37.847C29.3648 37.7036 31.1329 36.2939 33.116 34.6931C35.0991 33.1161 36.9628 31.5153 37.2495 31.1569C38.2053 29.9383 37.6079 27.5251 36.1982 26.9995C35.8876 26.88 33.2833 26.6649 30.4161 26.5216C27.5489 26.3543 25.1357 26.1632 25.064 26.0915C24.9923 25.9959 24.2038 23.9889 23.3198 21.6235C22.4357 19.258 21.5517 16.9882 21.3605 16.6059C20.7154 15.1962 18.8279 14.6467 17.3943 15.4351ZM20.2853 25.2075C20.9782 27.0472 21.695 28.8153 21.9101 29.1021C22.4357 29.9383 23.6543 30.3445 25.733 30.3684C26.7604 30.3923 28.4807 30.464 29.5559 30.5356L31.5152 30.7029L28.3135 33.2595C24.1322 36.6045 24.2038 36.3895 25.5419 41.3593C26.0914 43.3902 26.5932 45.1822 26.6409 45.3256C26.7604 45.6601 26.2586 45.3733 22.3641 42.7929C18.7562 40.4035 18.8518 40.4035 13.4519 44.0114C12.09 44.9194 10.9909 45.5884 10.9909 45.5167C10.9909 45.445 11.421 43.8442 11.9466 41.9327C12.9501 38.3248 13.0935 37.0346 12.5917 36.1506C12.4245 35.8877 10.9192 34.5258 9.19889 33.1639C6.97682 31.3958 6.23613 30.679 6.57064 30.6551C6.83346 30.6073 8.72103 30.4879 10.7519 30.3923C13.213 30.2489 14.6465 30.0817 15.0049 29.8427C15.7217 29.4127 16.1279 28.6003 17.5854 24.6818C18.2305 22.9615 18.8279 21.5996 18.8995 21.6952C18.9712 21.7907 19.5924 23.3677 20.2853 25.2075Z" fill="black"/>
<path d="M59.5897 15.5068C59.0641 15.8413 58.6818 16.367 58.3473 17.251C58.0844 17.9439 57.2243 20.2138 56.4119 22.2925C55.6234 24.3951 54.9544 26.1154 54.9066 26.1632C54.835 26.2349 45.7077 26.7605 44.537 26.7605C44.1547 26.7605 43.6051 27.0711 43.1034 27.5729C42.4344 28.2419 42.291 28.5525 42.291 29.4127C42.3149 29.9861 42.4344 30.7029 42.6016 30.9896C42.7689 31.2763 44.7281 32.9728 46.9502 34.7886C49.1962 36.5806 51.012 38.1815 50.9881 38.3248C50.9643 38.4682 50.3908 40.6186 49.6979 43.1274C49.0289 45.6123 48.4555 48.0733 48.4555 48.5511C48.4316 50.2237 49.9368 51.5617 51.5616 51.275C52.0394 51.2033 54.1421 50.0086 56.7703 48.2883L61.1667 45.4211L65.563 48.2883C68.1913 50.0086 70.2939 51.2033 70.7717 51.275C72.3965 51.5617 73.9017 50.2237 73.8779 48.5511C73.8779 48.0733 73.3044 45.6123 72.6354 43.1274C71.9425 40.6186 71.3691 38.4682 71.3452 38.3248C71.3213 38.1815 73.1372 36.5806 75.3831 34.7886C77.6052 32.9966 79.5644 31.2763 79.7317 30.9896C80.4485 29.6994 79.8989 27.6924 78.6326 26.9994C78.3937 26.88 75.7893 26.6649 72.8504 26.5216C69.9116 26.3543 67.4745 26.211 67.4267 26.1632C67.3789 26.1393 66.5426 23.965 65.563 21.3845C64.5834 18.7802 63.6754 16.4625 63.5321 16.2236C62.9348 15.1006 60.856 14.7183 59.5897 15.5068ZM62.7436 25.4942C63.8188 28.3614 64.2967 29.341 64.7984 29.7233C65.3719 30.1295 66.017 30.225 68.9797 30.3923C70.939 30.4879 72.8266 30.6073 73.2088 30.6312C73.8301 30.7029 73.5911 30.9418 70.6284 33.2834C66.471 36.6045 66.5665 36.3656 67.8568 41.2398C68.3824 43.199 68.8842 44.991 68.9558 45.23C69.0275 45.4689 67.7612 44.776 65.563 43.3663C62.7436 41.5265 61.8835 41.0964 61.1667 41.0964C60.4499 41.0964 59.5897 41.5265 56.7703 43.3663C54.5721 44.776 53.3058 45.4689 53.3775 45.23C53.4491 44.991 53.9509 43.199 54.4766 41.2398C55.7668 36.3656 55.8624 36.6045 51.7049 33.2834C48.7422 30.9418 48.5033 30.7029 49.1245 30.6312C49.5068 30.6073 51.3943 30.4879 53.3536 30.3923C56.3163 30.225 56.9615 30.1295 57.5349 29.7233C58.0366 29.341 58.5145 28.3614 59.5897 25.4942C60.3782 23.4155 61.0711 21.7429 61.1667 21.7429C61.2622 21.7429 61.9551 23.4155 62.7436 25.4942Z" fill="black"/>
<path d="M101.976 15.4829C101.164 15.9608 101.044 16.2236 99.0136 21.6235C98.1295 23.9889 97.341 25.9959 97.2694 26.0915C97.1977 26.1632 94.7845 26.3543 91.8934 26.5216C89.0262 26.6649 86.4218 26.9039 86.1112 27.0233C84.7254 27.5251 84.1281 29.9622 85.0838 31.1569C85.3705 31.5153 87.2342 33.1161 89.2173 34.6931C91.2005 36.2939 92.9686 37.7036 93.1119 37.847C93.3509 38.062 93.1358 39.1372 92.1084 42.8884C91.3916 45.5167 90.7943 48.0972 90.7943 48.6228C90.7943 49.7458 91.2483 50.5104 92.2279 51.0121C93.7332 51.7767 94.0677 51.6334 99.9454 47.7388L103.482 45.4211L106.158 47.1414C107.639 48.1211 109.622 49.4352 110.602 50.0803C112.107 51.0838 112.537 51.2511 113.517 51.2511C114.449 51.2511 114.783 51.1316 115.38 50.5582C115.787 50.1759 116.169 49.5308 116.241 49.1246C116.336 48.6228 115.906 46.6397 114.998 43.2468L113.588 38.1098L117.555 34.932C119.729 33.1878 121.688 31.5392 121.927 31.2524C122.19 30.9418 122.333 30.3684 122.333 29.5799C122.333 28.5525 122.214 28.2658 121.545 27.5968C120.685 26.7366 120.852 26.7605 112.872 26.3782L109.742 26.2349L108.117 21.8863C107.209 19.5209 106.277 17.1554 106.038 16.6776C105.297 15.1484 103.386 14.5989 101.976 15.4829ZM106.659 29.2693C107.137 30.01 108.356 30.3445 110.745 30.3684C111.796 30.3923 113.469 30.464 114.449 30.5595L116.217 30.7029L113.134 33.1639C111.414 34.5258 109.909 35.8877 109.742 36.1506C109.24 37.0346 109.383 38.3248 110.387 41.9327C110.912 43.8442 111.342 45.445 111.342 45.5167C111.342 45.5884 110.076 44.7999 108.547 43.7725C103.529 40.4035 103.577 40.4035 99.9693 42.7929C98.5596 43.7247 97.0065 44.7282 96.5048 45.0627L95.5968 45.6123L95.9313 44.4893C96.0986 43.8681 96.6003 42.0761 97.0065 40.523C98.0817 36.4851 98.1056 36.5328 94.0199 33.2595L90.8182 30.7029L92.7774 30.5356C93.8526 30.464 95.5729 30.3923 96.6003 30.3684C98.679 30.3445 99.8976 29.9383 100.423 29.1021C100.71 28.672 101.905 25.6614 103.362 21.7429C103.434 21.5518 104.127 23.0093 104.891 25.0402C105.656 27.0472 106.468 28.9587 106.659 29.2693Z" fill="black"/>
<path d="M57.8216 55.8146C54.0703 56.6031 49.9129 59.5897 47.9537 62.8631C45.2776 67.4028 45.0387 73.1372 47.3563 77.7486C48.3121 79.6839 49.7935 81.5954 51.2032 82.7184C52.1828 83.483 52.3022 83.6502 51.9199 83.7697C46.6873 85.6095 42.3627 88.6678 38.7787 93.0402L38.038 93.9721L36.7478 92.658C34.9797 90.866 33.1877 89.5518 30.87 88.405L28.9108 87.4253L30.0577 86.1112C31.4912 84.5104 32.4231 82.6706 32.8771 80.568C33.2832 78.5371 33.2832 77.7008 32.8532 75.6221C32.3753 73.3761 31.5151 71.6797 29.9621 70.0072C27.4294 67.2834 24.825 66.1365 21.1216 66.1365C15.4828 66.1126 10.8714 69.6249 9.43781 75.0486C8.98384 76.6734 8.98384 79.5645 9.41391 81.1414C9.86788 82.8378 11.1103 85.1077 12.305 86.3979L13.3085 87.4731L11.8271 88.1421C6.6423 90.5076 2.22205 95.4296 0.382276 100.901C-0.167268 102.55 -0.119481 104.891 0.501742 106.205C1.14686 107.543 2.98664 109.24 4.25298 109.622C4.92199 109.837 9.00773 109.909 18.9234 109.909H32.6859L32.7815 112.728C32.8771 115.261 32.9487 115.691 33.6177 117.125C34.5496 119.084 36.0071 120.589 37.8946 121.521L39.3043 122.214H61.1666H83.0289L84.3908 121.545C86.2784 120.613 87.8076 119.06 88.7155 117.125C89.3845 115.691 89.4562 115.261 89.5518 112.728L89.6473 109.909H103.41C113.326 109.909 117.411 109.837 118.08 109.622C119.347 109.24 121.186 107.543 121.832 106.205C122.453 104.891 122.501 102.55 121.951 100.901C120.111 95.4296 115.691 90.5076 110.506 88.1421L109.025 87.4731L110.028 86.3979C112.059 84.2236 113.254 81.1414 113.254 78.1548C113.254 74.7858 112.131 71.9903 109.813 69.6488C105.895 65.6586 99.4675 64.894 94.8083 67.8807C93.2791 68.8842 91.2243 71.1541 90.4597 72.6832C89.7907 74.0451 89.1217 76.769 89.1217 78.1309C89.1217 80.783 90.4597 84.152 92.2995 86.159L93.4464 87.4014L91.4632 88.405C89.1456 89.5518 87.3536 90.866 85.5855 92.658L84.2953 93.9721L83.5546 93.0402C79.9706 88.6678 75.6459 85.6095 70.4133 83.7697C70.031 83.6502 70.1505 83.483 71.1301 82.7184C73.3044 80.9742 75.2875 77.8203 76.1238 74.7619C76.7211 72.516 76.6494 68.7169 75.9804 66.5427C75.1442 63.8427 74.1168 62.1702 72.038 60.0676C70.5089 58.5384 69.7204 57.9172 68.0957 57.1287C64.7745 55.504 61.31 55.05 57.8216 55.8146ZM63.3648 59.757C66.7815 60.4738 69.8399 62.8631 71.3212 65.9692C72.6832 68.9081 72.8504 71.8709 71.823 74.7858C70.6044 78.1548 67.2355 81.1414 63.7232 81.9538C62.433 82.2405 59.9003 82.2405 58.6101 81.9538C55.0977 81.1414 51.7288 78.1548 50.5103 74.7858C47.5475 66.5427 54.8827 57.9889 63.3648 59.757ZM24.5144 70.9868C27.9073 72.6115 29.6993 76.315 28.8152 79.8273C27.8595 83.483 25.1834 85.7528 21.5039 85.9679C18.9951 86.1112 17.3226 85.4422 15.5067 83.6502C13.7386 81.8821 13.0696 80.1618 13.189 77.7725C13.4997 71.9664 19.3296 68.478 24.5144 70.9868ZM104.055 70.6523C105.775 71.2018 107.997 73.4956 108.714 75.3832C109.813 78.3698 108.953 81.7865 106.54 83.9608C102.932 87.2103 97.4126 86.5413 94.7127 82.5272C92.9446 79.8751 92.8012 77.0318 94.3065 74.2602C96.218 70.7718 100.089 69.3382 104.055 70.6523ZM63.9143 86.5174C73.9495 87.7598 82.1688 94.8322 84.8209 104.533C85.4899 106.922 85.7766 112.896 85.2988 114.544C84.9404 115.882 83.8652 117.172 82.5988 117.865L81.5953 118.391H61.1666H40.7379L39.7344 117.865C38.4681 117.172 37.3929 115.882 37.0345 114.544C36.5566 112.896 36.8433 106.922 37.5123 104.533C38.9459 99.2764 42.3388 94.3066 46.7112 91.081C49.7696 88.8111 54.3332 86.9953 58.18 86.5174C60.5932 86.2307 61.5011 86.2307 63.9143 86.5174ZM25.2551 90.6748C28.5046 91.4155 31.8735 93.4464 34.2629 96.0747C35.0036 96.9109 35.6009 97.6516 35.6009 97.7472C35.6009 97.8428 35.2664 98.7029 34.8602 99.6587C34.454 100.614 33.8567 102.382 33.57 103.577L33.0204 105.728L19.234 105.799L5.47153 105.847L4.73084 105.13C4.06183 104.461 4.01405 104.294 4.10962 103.195C4.37244 100.519 7.3591 96.003 10.2502 93.9004C14.8616 90.5315 19.903 89.4563 25.2551 90.6748ZM105.489 90.7226C111.008 92.1084 115.548 96.0269 117.698 101.236C118.486 103.171 118.463 104.27 117.579 105.154L116.862 105.847L103.099 105.799L89.3128 105.728L88.7633 103.577C88.4527 102.382 87.8792 100.638 87.4731 99.6587C87.0669 98.679 86.7324 97.8189 86.7324 97.7233C86.7324 97.6516 87.3297 96.9109 88.0704 96.0747C90.9854 92.8491 94.9516 90.8182 99.3958 90.2447C100.734 90.0536 103.935 90.3164 105.489 90.7226Z" fill="black"/>
</svg>
