<svg width="64" height="64" viewBox="0 0 64 64" fill="none" xmlns="http://www.w3.org/2000/svg">
<path d="M61.597 12.019C62.653 9.27702 61.993 6.16302 59.914 4.08602C57.835 2.00902 54.722 1.34802 51.982 2.40302C47.055 4.29802 42.408 6.76002 38.107 9.70002L34.355 9.47302L34.414 9.41402C35.195 8.63302 35.195 7.36702 34.414 6.58602C33.633 5.80502 32.367 5.80502 31.586 6.58602L29.022 9.15002L22.098 8.73002L22.414 8.41402C23.195 7.63302 23.195 6.36702 22.414 5.58602C21.633 4.80502 20.367 4.80502 19.586 5.58602L16.765 8.40702L10.121 8.00402C9.53697 7.96702 8.98997 8.18102 8.58597 8.58602L2.58597 14.586C2.12297 15.048 1.91597 15.708 2.03097 16.351C2.14497 16.995 2.56797 17.542 3.16197 17.816L21.267 26.172C19.604 28.495 18.075 30.927 16.709 33.465L14.806 37H6.99997C6.46997 37 5.96097 37.211 5.58597 37.586L2.58597 40.586C2.13097 41.041 1.92297 41.686 2.02497 42.32C2.12897 42.955 2.52997 43.501 3.10497 43.789L12.623 48.548L7.08497 54.086C6.30397 54.867 6.30397 56.133 7.08497 56.914C7.47697 57.305 7.98797 57.5 8.49997 57.5C9.01197 57.5 9.52297 57.305 9.91397 56.914L15.452 51.376L20.211 60.895C20.499 61.47 21.045 61.872 21.68 61.975C21.786 61.992 21.894 62 22 62C22.526 62 23.036 61.792 23.414 61.414L26.414 58.414C26.789 58.039 27 57.53 27 57V49.195L30.534 47.292C33.073 45.925 35.504 44.397 37.828 42.734L46.184 60.839C46.458 61.433 47.005 61.855 47.649 61.97C47.766 61.99 47.884 62 48 62C48.525 62 49.036 61.792 49.414 61.414L55.414 55.414C55.819 55.009 56.031 54.451 55.996 53.879L55.593 47.235L58.414 44.414C59.195 43.633 59.195 42.367 58.414 41.586C57.633 40.805 56.367 40.805 55.586 41.586L55.27 41.902L54.85 34.978L57.414 32.414C58.195 31.633 58.195 30.367 57.414 29.586C56.633 28.805 55.367 28.805 54.586 29.586L54.527 29.645L54.3 25.894C57.24 21.593 59.702 16.945 61.597 12.019ZM7.44197 15.386L10.777 12.051L33.183 13.409C29.74 16.255 26.58 19.437 23.756 22.916L7.44197 15.386ZM28.638 43.77L24.052 46.239C23.404 46.588 23 47.264 23 48V56.171L22.548 56.623L18.434 48.394L20.914 45.914C21.695 45.133 21.695 43.867 20.914 43.086C20.133 42.305 18.867 42.305 18.086 43.086L15.605 45.567L7.37597 41.453L7.82797 41H16C16.735 41 17.412 40.596 17.761 39.948L20.231 35.362C27.44 21.974 39.226 11.595 53.419 6.13502C54.688 5.64902 56.127 5.95402 57.087 6.91402C58.048 7.87402 58.353 9.31302 57.865 10.581L57.864 10.582C52.405 24.774 42.026 36.561 28.638 43.77ZM51.949 53.222L48.614 56.557L41.085 40.244C44.563 37.42 47.745 34.261 50.591 30.818L51.949 53.222Z" fill="url(#paint0_linear_2160_1719)"/>
<path d="M47 19C47 20.104 47.896 21 49 21C50.104 21 51 20.104 51 19C51 15.691 48.309 13 45 13C43.896 13 43 13.896 43 15C43 16.104 43.896 17 45 17C46.103 17 47 17.897 47 19Z" fill="url(#paint1_linear_2160_1719)"/>
<defs>
<linearGradient id="paint0_linear_2160_1719" x1="32.0464" y1="1.90747" x2="32.0464" y2="62" gradientUnits="userSpaceOnUse">
<stop stop-color="#CE3E50"/>
<stop offset="0.32" stop-color="#472F7B"/>
<stop offset="0.655" stop-color="#1F298B"/>
<stop offset="1" stop-color="#0173BC"/>
</linearGradient>
<linearGradient id="paint1_linear_2160_1719" x1="47" y1="13" x2="47" y2="21" gradientUnits="userSpaceOnUse">
<stop stop-color="#CE3E50"/>
<stop offset="0.32" stop-color="#472F7B"/>
<stop offset="0.655" stop-color="#1F298B"/>
<stop offset="1" stop-color="#0173BC"/>
</linearGradient>
</defs>
</svg>
