<svg width="84" height="84" viewBox="0 0 84 84" fill="none" xmlns="http://www.w3.org/2000/svg">
<path d="M76.6753 71.5764L49.9801 28.2072V21.84V11.76C49.9801 11.0628 49.4173 10.5 48.7201 10.5H35.2801C34.8181 10.5 34.3897 10.752 34.1713 11.1636C33.9529 11.5752 33.9781 12.0708 34.2301 12.4572L37.1281 16.8L34.2301 21.1428C33.9697 21.5292 33.9445 22.0248 34.1713 22.4364C34.3897 22.848 34.8181 23.1 35.2801 23.1H47.4601V28.2072L35.4649 47.6952L29.6437 37.9848C29.4169 37.6068 29.0053 37.3716 28.5601 37.3716C28.1149 37.3716 27.7033 37.6068 27.4765 37.9848L7.31654 71.5848C7.08134 71.9712 7.07294 72.4584 7.29974 72.8532C7.52654 73.2564 7.94654 73.5 8.40014 73.5H21.8401H75.6001C76.0537 73.5 76.4737 73.2564 76.7005 72.8532C76.9189 72.4584 76.9105 71.9712 76.6753 71.5764ZM48.7201 30.9624L53.4157 38.5896L48.7201 42.1092L44.0245 38.5896L48.7201 30.9624ZM37.6321 20.58L39.6901 17.4972C39.9757 17.0772 39.9757 16.5228 39.6901 16.1028L37.6321 13.02H47.4601V20.58H37.6321ZM28.5601 41.0928L33.9781 50.1144L21.1345 70.98H10.6261L28.5601 41.0928ZM24.0913 70.98L42.6973 40.7484L47.9641 44.6964C48.1909 44.8644 48.4513 44.9484 48.7201 44.9484C48.9889 44.9484 49.2493 44.8644 49.4761 44.6964L54.7429 40.7484L73.3489 70.98H24.0913Z" fill="url(#paint0_linear_2160_1711)"/>
<defs>
<linearGradient id="paint0_linear_2160_1711" x1="41.9965" y1="10.5" x2="41.9965" y2="73.5" gradientUnits="userSpaceOnUse">
<stop stop-color="#CE3E50"/>
<stop offset="0.32" stop-color="#472F7B"/>
<stop offset="0.655" stop-color="#1F298B"/>
<stop offset="1" stop-color="#0173BC"/>
</linearGradient>
</defs>
</svg>
