<svg width="78" height="78" viewBox="0 0 78 78" fill="none" xmlns="http://www.w3.org/2000/svg">
<path d="M25.35 26.3874H26.208C26.6857 29.4369 28.2371 32.2155 30.5826 34.2221C32.9281 36.2288 35.9132 37.3315 39 37.3315C42.0867 37.3315 45.0719 36.2288 47.4174 34.2221C49.7628 32.2155 51.3143 29.4369 51.792 26.3874H52.65C53.4595 26.3874 54.2361 26.0663 54.8093 25.4946C55.3825 24.9229 55.7055 24.1471 55.7076 23.3376V20.28C55.7076 19.8662 55.5432 19.4694 55.2507 19.1769C54.9581 18.8843 54.5613 18.72 54.1476 18.72H51.9714V12.48C51.9744 11.3806 51.7607 10.2914 51.3424 9.27474C50.924 8.25807 50.3093 7.33388 49.5334 6.55505C48.7574 5.77623 47.8355 5.15806 46.8204 4.73593C45.8053 4.3138 44.7169 4.09599 43.6176 4.09497H34.3824C33.2834 4.09599 32.1954 4.31385 31.1807 4.73608C30.166 5.15831 29.2446 5.7766 28.4693 6.55552C27.694 7.33445 27.08 8.25871 26.6625 9.27533C26.2451 10.292 26.0323 11.381 26.0364 12.48V18.72H23.8524C23.4386 18.72 23.0418 18.8843 22.7493 19.1769C22.4567 19.4694 22.2924 19.8662 22.2924 20.28V23.3376C22.2944 24.1471 22.6175 24.9229 23.1907 25.4946C23.7639 26.0663 24.5404 26.3874 25.35 26.3874ZM39 35.7864C35.9761 35.7802 33.078 34.5757 30.9405 32.4367C28.803 30.2978 27.6005 27.3988 27.5964 24.375V19.032C27.885 18.4158 29.5542 15.405 34.125 15.405C37.3063 15.4305 40.4326 14.5747 43.1574 12.9324C45.1518 15.0675 47.644 16.6753 50.4114 17.6124V24.3594C50.4093 27.3867 49.2069 30.2896 47.0677 32.4317C44.9286 34.5738 42.0273 35.7802 39 35.7864ZM54.1476 20.28V23.3376C54.1455 23.7334 53.9868 24.1123 53.7062 24.3915C53.4256 24.6707 53.0458 24.8274 52.65 24.8274H51.9714V20.28H54.1476ZM27.6276 12.48C27.6276 10.6795 28.3423 8.95265 29.6147 7.67878C30.8871 6.40492 32.6131 5.68824 34.4136 5.68617H43.6176C45.4188 5.68824 47.1456 6.40467 48.4192 7.67831C49.6929 8.95195 50.4093 10.6788 50.4114 12.48V15.99C47.8969 15.0226 45.6598 13.45 43.8984 11.4114C43.771 11.2517 43.5861 11.1484 43.3834 11.1236C43.1806 11.0988 42.9763 11.1545 42.8142 11.2788C40.2449 12.9952 37.2145 13.8901 34.125 13.845C32.9208 13.7948 31.7193 13.994 30.5958 14.4303C29.4723 14.8665 28.4511 15.5303 27.5964 16.38L27.6276 12.48ZM23.8836 20.28H26.0676V24.8274H25.35C24.9541 24.8274 24.5744 24.6707 24.2938 24.3915C24.0131 24.1123 23.8544 23.7334 23.8524 23.3376L23.8836 20.28ZM9.74997 71.3544H29.0238C29.5238 71.3564 30.0027 71.556 30.3562 71.9095C30.7098 72.2631 30.9093 72.742 30.9114 73.242C30.9114 73.4488 30.9936 73.6472 31.1398 73.7935C31.2861 73.9398 31.4845 74.022 31.6914 74.022H46.3164C46.5232 74.022 46.7216 73.9398 46.8679 73.7935C47.0142 73.6472 47.0964 73.4488 47.0964 73.242C47.0964 72.7427 47.2942 72.2638 47.6465 71.91C47.9988 71.5562 48.4769 71.3564 48.9762 71.3544H68.25C68.4568 71.3544 68.6552 71.2722 68.8015 71.1259C68.9478 70.9796 69.03 70.7812 69.03 70.5744V67.4544C69.03 67.2475 68.9478 67.0491 68.8015 66.9028C68.6552 66.7566 68.4568 66.6744 68.25 66.6744H66.5574C66.5693 66.5473 66.5693 66.4193 66.5574 66.2922V63.7494C66.5553 63.2362 66.3511 62.7446 65.989 62.381C65.6269 62.0175 65.1361 61.8113 64.623 61.8072H64.116V55.0914C64.1099 51.2796 62.5983 47.6246 59.9103 44.9221C57.2224 42.2195 53.5756 40.6881 49.764 40.6614H45.084C44.9694 40.6612 44.8562 40.6863 44.7524 40.7348C44.6485 40.7833 44.5567 40.8541 44.4834 40.9422L39.0234 47.5332L33.5634 40.9422C33.49 40.8541 33.3982 40.7833 33.2944 40.7348C33.1906 40.6863 33.0774 40.6612 32.9628 40.6614H28.2048C24.4019 40.7024 20.7683 42.2398 18.0908 44.9406C15.4133 47.6415 13.9076 51.2883 13.8996 55.0914V61.8072H13.4004C12.8873 61.8113 12.3964 62.0175 12.0343 62.381C11.6722 62.7446 11.468 63.2362 11.466 63.7494V66.3C11.4541 66.4271 11.4541 66.555 11.466 66.6822H9.74997C9.5431 66.6822 9.34471 66.7643 9.19843 66.9106C9.05215 67.0569 8.96997 67.2553 8.96997 67.4622V70.5822C8.97203 70.7877 9.05511 70.9841 9.20117 71.1287C9.34722 71.2733 9.54445 71.3544 9.74997 71.3544ZM45.4584 42.2214H48.8358L46.5972 52.4004L40.1856 48.5472L45.4584 42.2214ZM37.8144 48.5472L31.4028 52.4004L29.1642 42.2214H32.5416L37.8144 48.5472ZM15.405 55.0914C15.4138 51.802 16.6795 48.6405 18.943 46.2537C21.2064 43.867 24.2965 42.4356 27.5808 42.2526L30.108 53.82C30.1338 53.9417 30.1883 54.0554 30.267 54.1518C30.3457 54.2481 30.4463 54.3242 30.5604 54.3738C30.6598 54.4132 30.7655 54.4343 30.8724 54.4362C31.0124 54.4361 31.1498 54.3984 31.2702 54.327L39 49.6626L46.7298 54.2958C46.8502 54.3672 46.9876 54.4049 47.1276 54.405C47.2345 54.4031 47.3402 54.382 47.4396 54.3426C47.5501 54.2961 47.6484 54.2248 47.7268 54.1341C47.8053 54.0435 47.8618 53.936 47.892 53.82L50.4192 42.2838C53.6981 42.4665 56.7836 43.8935 59.0463 46.2736C61.309 48.6537 62.5782 51.8074 62.595 55.0914V61.8072L43.9686 61.737C43.2164 61.7344 42.4711 61.8814 41.7762 62.1693C41.0813 62.4572 40.4504 62.8802 39.9204 63.414C39.5636 63.759 39.2541 64.1498 39 64.5762C38.7507 64.1507 38.4465 63.76 38.0952 63.414C37.5651 62.8802 36.9343 62.4572 36.2393 62.1693C35.5444 61.8814 34.7992 61.7344 34.047 61.737L15.4206 61.8072L15.405 55.0914ZM12.9714 66.3V63.7494C12.9734 63.6486 13.0143 63.5526 13.0855 63.4813C13.1568 63.4101 13.2528 63.3692 13.3536 63.3672L34.0314 63.297C34.581 63.2939 35.1258 63.3996 35.6343 63.608C36.1429 63.8164 36.6052 64.1235 36.9945 64.5114C37.3839 64.8993 37.6926 65.3604 37.9029 65.8682C38.1133 66.376 38.221 66.9204 38.22 67.47C38.22 67.6768 38.3021 67.8752 38.4484 68.0215C38.5947 68.1678 38.7931 68.25 39 68.25C39.2068 68.25 39.4052 68.1678 39.5515 68.0215C39.6978 67.8752 39.78 67.6768 39.78 67.47C39.7789 66.9217 39.8862 66.3786 40.0955 65.8718C40.3049 65.3651 40.6122 64.9046 40.9999 64.5169C41.3876 64.1292 41.8481 63.8219 42.3548 63.6125C42.8616 63.4032 43.4047 63.2959 43.953 63.297L64.6386 63.3672C64.7393 63.3692 64.8354 63.4101 64.9066 63.4813C64.9779 63.5526 65.0188 63.6486 65.0208 63.7494V66.3C65.0208 66.4013 64.9805 66.4986 64.9088 66.5702C64.8372 66.6419 64.7399 66.6822 64.6386 66.6822H46.3086C45.5919 66.683 44.896 66.9227 44.3309 67.3635C43.7658 67.8043 43.3638 68.4209 43.1886 69.1158H34.8114C34.6361 68.4209 34.2341 67.8043 33.669 67.3635C33.104 66.9227 32.408 66.683 31.6914 66.6822H13.3536C13.2522 66.6822 13.155 66.6419 13.0833 66.5702C13.0116 66.4986 12.9714 66.4013 12.9714 66.3ZM10.53 68.25H31.6914C31.9085 68.25 32.1236 68.2927 32.3242 68.3758C32.5248 68.4589 32.7071 68.5808 32.8606 68.7343C33.0142 68.8879 33.136 69.0701 33.2191 69.2708C33.3022 69.4714 33.345 69.6864 33.345 69.9036C33.345 70.1104 33.4271 70.3088 33.5734 70.4551C33.7197 70.6014 33.9181 70.6836 34.125 70.6836H43.875C44.0818 70.6836 44.2802 70.6014 44.4265 70.4551C44.5728 70.3088 44.655 70.1104 44.655 69.9036C44.655 69.6864 44.6977 69.4714 44.7808 69.2708C44.8639 69.0701 44.9857 68.8879 45.1393 68.7343C45.2929 68.5808 45.4751 68.4589 45.6758 68.3758C45.8764 68.2927 46.0914 68.25 46.3086 68.25H67.47V69.81H48.9762C48.1985 69.8123 47.4443 70.0769 46.8357 70.561C46.227 71.0451 45.7995 71.7204 45.6222 72.4776H32.3622C32.1833 71.7197 31.7542 71.0443 31.1443 70.5603C30.5343 70.0763 29.779 69.8119 29.0004 69.81H10.53V68.25Z" fill="url(#paint0_linear_2160_1716)"/>
<path d="M56.87 57.72H50.3726V59.28H56.87V57.72Z" fill="url(#paint1_linear_2160_1716)"/>
<defs>
<linearGradient id="paint0_linear_2160_1716" x1="39" y1="4.09497" x2="39" y2="74.022" gradientUnits="userSpaceOnUse">
<stop stop-color="#CE3E50"/>
<stop offset="0.32" stop-color="#472F7B"/>
<stop offset="0.655" stop-color="#1F298B"/>
<stop offset="1" stop-color="#0173BC"/>
</linearGradient>
<linearGradient id="paint1_linear_2160_1716" x1="53.6213" y1="57.72" x2="53.6213" y2="59.28" gradientUnits="userSpaceOnUse">
<stop stop-color="#CE3E50"/>
<stop offset="0.32" stop-color="#472F7B"/>
<stop offset="0.655" stop-color="#1F298B"/>
<stop offset="1" stop-color="#0173BC"/>
</linearGradient>
</defs>
</svg>
