<svg width="64" height="64" viewBox="0 0 64 64" fill="none" xmlns="http://www.w3.org/2000/svg">
<path d="M32 1C17.112 1 5 13.112 5 28C5 34.328 7.236 40.46 11.286 45.304C12.879 55.315 21.547 63 32 63C42.453 63 51.121 55.315 52.714 45.304C56.764 40.46 59 34.328 59 28C59 13.112 46.888 1 32 1ZM51.986 13H44.895C42.74 9.35 39.801 6.151 36.205 3.678L35.602 3.263C42.276 4.231 48.105 7.841 51.986 13ZM7.025 27C7.198 22.619 8.5 18.523 10.654 15H18.03C16.215 18.698 15.173 22.778 15.03 27H7.025ZM15.033 29C15.04 29.216 15.043 29.432 15.055 29.647C12.6 33.006 11.116 37.108 11.023 41.556C8.605 37.815 7.225 33.481 7.044 29H15.033ZM17.331 27H17.03C17.184 22.751 18.31 18.655 20.269 15H31V21.051C25.693 21.303 20.895 23.514 17.331 27ZM35.072 5.326C38.086 7.398 40.599 10.021 42.537 13H33V3.901L35.072 5.326ZM31 3.901V13H21.461C23.399 10.021 25.912 7.398 28.926 5.326L31 3.901ZM33 15H43.73C45.69 18.655 46.815 22.751 46.97 27H46.67C43.105 23.513 38.308 21.302 33.001 21.051L33 15ZM48.966 29H56.956C56.776 33.481 55.395 37.815 52.978 41.557C52.884 37.109 51.401 33.005 48.945 29.646C48.956 29.431 48.959 29.215 48.966 29ZM48.969 27C48.826 22.778 47.784 18.698 45.969 15H53.346C55.5 18.523 56.801 22.619 56.975 27H48.969ZM28.396 3.263L27.793 3.677C24.197 6.151 21.258 9.35 19.103 13H12.013C15.895 7.842 21.723 4.231 28.396 3.263ZM25.5 37H26V39C26 39.341 26.035 39.674 26.09 40H25.5C24.673 40 24 39.327 24 38.5C24 37.673 24.673 37 25.5 37ZM27 34C26.448 34 26 34.447 26 35V31C26 29.346 27.346 28 29 28H35C35.551 28 36 28.449 36 29C36 29.552 36.448 30 37 30C37.551 30 38 30.449 38 31V35C38 34.734 37.895 34.48 37.707 34.293L34.707 31.293C34.462 31.047 34.106 30.947 33.77 31.027C33.433 31.107 33.161 31.355 33.051 31.684C32.59 33.069 31.298 34 29.838 34H27ZM38 39V37H38.5C39.327 37 40 37.673 40 38.5C40 39.327 39.327 40 38.5 40H37.91C37.965 39.674 38 39.341 38 39ZM43 57.463C42.359 57.921 41.697 58.351 41 58.727V54H39V59.647C37.673 60.176 36.271 60.55 34.818 60.767L34.026 51.264L34.69 50.267L35.4 50.8C35.576 50.932 35.787 51 36 51C36.12 51 36.241 50.979 36.357 50.935C36.678 50.812 36.913 50.534 36.981 50.197L37.634 46.932L40.838 48C42.131 48.432 43 49.637 43 51V57.463ZM28.852 46.103L30.269 47.048L28.669 48.248L28.278 46.294L28.852 46.103ZM35.148 46.103L35.721 46.294L35.33 48.248L33.73 47.048L35.148 46.103ZM31.535 50L30.912 49.066L32 48.25L33.088 49.066L32.465 50H31.535ZM32 43C29.794 43 28 41.206 28 39V36H29.838C31.64 36 33.279 35.109 34.267 33.682L36 35.414V39C36 41.206 34.206 43 32 43ZM32 45C32.515 45 33.012 44.928 33.489 44.805L32 45.798L30.511 44.806C30.988 44.928 31.485 45 32 45ZM26.367 46.932L27.02 50.197C27.087 50.534 27.323 50.812 27.644 50.935C27.759 50.979 27.88 51 28 51C28.213 51 28.424 50.932 28.6 50.8L29.31 50.268L29.974 51.265L29.182 60.768C27.728 60.55 26.327 60.176 25 59.648V54H23V58.727C22.303 58.35 21.641 57.921 21 57.463V51C21 49.637 21.869 48.432 23.163 48L26.367 46.932ZM31.173 60.958L31.92 52H32.08L32.827 60.958C32.55 60.97 32.279 61 32 61C31.721 61 31.45 60.97 31.173 60.958ZM45 55.818V51C45 48.774 43.582 46.807 41.47 46.104L36 44.28V43.46C36.468 43.039 36.87 42.548 37.188 42H38.5C40.43 42 42 40.43 42 38.5C42 37.109 41.178 35.915 40 35.351V31C40 29.648 39.102 28.503 37.871 28.129C37.497 26.898 36.352 26 35 26H29C26.243 26 24 28.243 24 31V35.351C22.822 35.915 22 37.109 22 38.5C22 40.43 23.57 42 25.5 42H26.812C27.13 42.548 27.532 43.039 28 43.46V44.28L22.53 46.104C20.418 46.807 19 48.774 19 51V55.818C15.316 52.35 13 47.446 13 42C13 31.523 21.523 23 32 23C42.477 23 51 31.523 51 42C51 47.446 48.684 52.351 45 55.818Z" fill="url(#paint0_linear_2160_1722)"/>
<defs>
<linearGradient id="paint0_linear_2160_1722" x1="32" y1="1" x2="32" y2="63" gradientUnits="userSpaceOnUse">
<stop stop-color="#CE3E50"/>
<stop offset="0.32" stop-color="#472F7B"/>
<stop offset="0.655" stop-color="#1F298B"/>
<stop offset="1" stop-color="#0173BC"/>
</linearGradient>
</defs>
</svg>
