<svg width="64" height="64" viewBox="0 0 64 64" fill="none" xmlns="http://www.w3.org/2000/svg">
<path d="M54.5459 36.794H54.5419L37.1819 38.336C35.8229 37.065 34.0039 36.281 32.0009 36.281C29.9999 36.281 28.1819 37.064 26.8229 38.333L9.36989 36.79C6.49789 36.79 5.21289 40.622 5.21289 44.42C5.21289 48.216 6.49689 52.046 9.45389 52.046H9.45789L19.9559 51.119L18.7189 52.355C18.3969 52.676 18.3329 53.174 18.5629 53.567C18.7929 53.96 19.2589 54.149 19.6969 54.025L24.3919 52.703L23.7259 56.977C23.6589 57.411 23.8819 57.838 24.2779 58.03C24.4169 58.098 24.5669 58.131 24.7139 58.131C24.9859 58.131 25.2529 58.021 25.4469 57.812L31.3569 51.454C31.5689 51.472 31.7819 51.487 31.9989 51.487C32.2159 51.487 32.4289 51.472 32.6409 51.454L38.5509 57.812C38.7449 58.021 39.0119 58.131 39.2839 58.131C39.4309 58.131 39.5809 58.099 39.7199 58.03C40.1159 57.839 40.3389 57.411 40.2719 56.977L39.6059 52.703L44.3009 54.025C44.7409 54.15 45.2049 53.96 45.4349 53.567C45.6649 53.174 45.6009 52.676 45.2789 52.355L44.0409 51.119L54.6299 52.05C57.5019 52.05 58.7869 48.218 58.7869 44.42C58.7869 40.624 57.5029 36.794 54.5459 36.794ZM9.36989 50.05C8.18089 50.05 7.21289 47.525 7.21289 44.42C7.21289 41.315 8.18089 38.79 9.28189 38.786L25.3519 40.206C24.7459 41.297 24.3989 42.55 24.3989 43.884C24.3989 44.724 24.5419 45.53 24.7939 46.287L22.1609 48.917L9.36989 50.05ZM26.2049 54.059L26.6079 51.472C26.6599 51.135 26.5379 50.795 26.2829 50.57C26.0279 50.344 25.6769 50.266 25.3479 50.355L22.8439 51.06L23.3639 50.541C23.3729 50.531 23.3839 50.523 23.3919 50.513L25.7309 48.176C26.5659 49.391 27.7439 50.351 29.1249 50.918L26.2049 54.059ZM26.3979 43.884C26.3979 42.43 26.9589 41.108 27.8709 40.111C27.8969 40.088 27.9169 40.061 27.9399 40.035C28.9619 38.957 30.4019 38.281 31.9999 38.281C35.0889 38.281 37.6019 40.795 37.6019 43.884C37.6019 46.973 35.0889 49.485 31.9999 49.485C28.9109 49.485 26.3979 46.973 26.3979 43.884ZM38.6509 50.354C38.3229 50.265 37.9719 50.343 37.7159 50.569C37.4619 50.795 37.3389 51.134 37.3909 51.471L37.7939 54.058L34.8739 50.916C36.2549 50.349 37.4339 49.39 38.2679 48.174L40.6069 50.511C40.6159 50.521 40.6259 50.529 40.6349 50.539L41.1549 51.058L38.6509 50.354ZM56.0769 48.588C55.7949 49.255 55.3139 50.05 54.7179 50.054L41.8399 48.917L39.2069 46.287C39.4599 45.531 39.6019 44.725 39.6019 43.884C39.6019 42.552 39.2549 41.3 38.6509 40.21L54.6299 38.79C55.8189 38.79 56.7869 41.315 56.7869 44.42C56.7869 46.003 56.5279 47.521 56.0769 48.588Z" fill="url(#paint0_linear_2160_1713)"/>
<path d="M31.9999 40.0001C29.8589 40.0001 28.1169 41.7421 28.1169 43.8841C28.1169 46.0251 29.8589 47.7671 31.9999 47.7671C34.1409 47.7671 35.8829 46.0251 35.8829 43.8841C35.8829 41.7421 34.1409 40.0001 31.9999 40.0001ZM31.9999 45.7671C30.9609 45.7671 30.1169 44.9221 30.1169 43.8841C30.1169 42.8451 30.9609 42.0001 31.9999 42.0001C33.0389 42.0001 33.8829 42.8451 33.8829 43.8841C33.8829 44.9221 33.0389 45.7671 31.9999 45.7671ZM8.72393 19.3421L18.2559 23.5531V30.9801C18.2559 32.6751 20.6959 33.2891 23.0829 33.6661C25.4439 34.0391 28.6109 34.2441 31.9999 34.2441C38.2699 34.2441 45.7439 33.6781 45.7439 30.9801V23.5531L48.7099 22.2431V23.1911C48.0039 23.6261 47.5209 24.5001 47.5009 25.5491L46.9859 29.7181C46.9509 30.0031 47.0399 30.2881 47.2299 30.5031C47.4189 30.7181 47.6919 30.8411 47.9789 30.8411H51.4419C51.7289 30.8411 52.0019 30.7181 52.1909 30.5031C52.3809 30.2881 52.4699 30.0031 52.4349 29.7181L51.9199 25.5491C51.8999 24.5001 51.4169 23.6251 50.7109 23.1911V21.3591L55.2769 19.3421C55.6389 19.1821 55.8729 18.8231 55.8729 18.4271C55.8729 18.0311 55.6399 17.6731 55.2779 17.5131L32.4049 7.39411C32.1469 7.27911 31.8529 7.27911 31.5949 7.39411L8.72293 17.5131C8.36093 17.6731 8.12793 18.0321 8.12793 18.4271C8.12793 18.8231 8.36193 19.1821 8.72393 19.3421ZM49.1099 28.8411L49.4929 25.7381C49.4979 25.6971 49.4999 25.6561 49.4999 25.6151C49.4999 25.2611 49.6239 25.0181 49.7089 24.9241C49.7939 25.0191 49.9179 25.2621 49.9179 25.6151C49.9179 25.6561 49.9199 25.6971 49.9249 25.7381L50.3079 28.8411H49.1099ZM20.2549 20.2271C20.4299 19.4771 24.5039 18.1371 31.9999 18.1371C39.4959 18.1371 43.5699 19.4771 43.7439 20.2241V28.6121C40.7049 27.1691 34.9569 26.9611 31.9999 26.9611C29.0429 26.9611 23.2939 27.1691 20.2559 28.6121L20.2549 20.2271ZM20.3359 30.8611C20.9569 30.1481 24.7379 28.9611 31.9999 28.9611C39.2959 28.9611 43.0759 30.1591 43.6679 30.8591C42.7689 31.4551 38.7399 32.2431 31.9999 32.2431C25.2699 32.2431 21.2429 31.4581 20.3359 30.8611ZM50.7099 19.1721V17.6791L52.3989 18.4261L50.7099 19.1721ZM31.9999 9.40111L48.7099 16.7931V20.0541L45.7439 21.3641V20.2221C45.7439 16.4301 35.2239 16.1351 31.9999 16.1351C28.7759 16.1351 18.2559 16.4301 18.2559 20.2221V21.3641L11.6009 18.4241L31.9999 9.40111Z" fill="url(#paint1_linear_2160_1713)"/>
<defs>
<linearGradient id="paint0_linear_2160_1713" x1="31.9999" y1="36.281" x2="31.9999" y2="58.131" gradientUnits="userSpaceOnUse">
<stop stop-color="#CE3E50"/>
<stop offset="0.32" stop-color="#472F7B"/>
<stop offset="0.655" stop-color="#1F298B"/>
<stop offset="1" stop-color="#0173BC"/>
</linearGradient>
<linearGradient id="paint1_linear_2160_1713" x1="32.0004" y1="7.30786" x2="32.0004" y2="47.7671" gradientUnits="userSpaceOnUse">
<stop stop-color="#CE3E50"/>
<stop offset="0.32" stop-color="#472F7B"/>
<stop offset="0.655" stop-color="#1F298B"/>
<stop offset="1" stop-color="#0173BC"/>
</linearGradient>
</defs>
</svg>
