<svg width="48" height="48" viewBox="0 0 48 48" fill="none" xmlns="http://www.w3.org/2000/svg">
<path fill-rule="evenodd" clip-rule="evenodd" d="M6.31626 17.1816C5.36052 17.3783 4.32799 17.1066 3.58665 16.365L2.87945 15.6575C1.70718 14.4858 1.70718 12.5867 2.87945 11.415L11.3648 2.93003C12.536 1.75837 14.4357 1.75837 15.607 2.93003L16.3142 3.6367C17.1803 4.50336 17.4064 5.76752 16.9915 6.84085C17.8352 7.20418 18.9254 7.34085 20.0368 7.38585C22.5008 7.48585 25.0929 7.04335 25.9206 6.84585C26.2705 6.76252 26.6033 6.71585 26.919 6.70085C28.3878 6.14669 29.6166 6.18919 30.5883 6.28502C30.6854 6.29502 30.7793 6.30502 30.8699 6.31502C30.6737 5.36002 30.9457 4.32753 31.687 3.58586L32.3942 2.87837C33.5654 1.70754 35.4652 1.70754 36.6364 2.87837L37.7073 3.95003C38.0977 4.34003 38.0977 4.97336 37.7073 5.36419C37.318 5.75419 36.6833 5.75419 36.294 5.36419L35.2219 4.29253C34.8315 3.90253 34.199 3.90253 33.8086 4.29253L33.1014 5.00002C32.711 5.39086 32.711 6.02335 33.1014 6.41419L41.5868 14.9C41.9782 15.29 42.6108 15.29 43.0012 14.8992L43.7073 14.1925C44.0988 13.8017 44.0988 13.1683 43.7073 12.7783L39.2934 8.36418C38.903 7.97335 38.903 7.34001 39.2934 6.95002C39.6838 6.55918 40.3174 6.55918 40.7078 6.95002L45.1217 11.3642C46.294 12.5358 46.294 14.435 45.1217 15.6066L44.4145 16.3133C43.5484 17.18 42.2844 17.4058 41.2113 16.9908C40.8476 17.835 40.711 18.925 40.6662 20.0358C40.566 22.5 41.0086 25.0924 41.206 25.9199C41.7414 28.1666 40.7665 29.7374 39.5025 30.2349C38.2662 30.7216 36.4614 30.2991 35.1548 28.0358C35.1025 27.9449 35.0513 27.8566 35.0012 27.7699V31.9999C35.0012 36.2932 33.3467 38.0657 32.055 39.1591C31.9142 39.2791 31.7766 39.3891 31.6475 39.4924C32.4625 40.0282 33.0011 40.9516 33.0001 41.9999L33.0011 42.9999C33.0011 44.6565 31.6571 45.9999 30.0006 45.9999H18.0006C16.344 45.9999 15 44.6565 15 42.9999V41.9999C15 40.7766 15.7328 39.7249 16.7824 39.2574C16.5979 38.8041 16.3184 38.3457 15.9899 37.8916C15.6656 37.4441 15.7659 36.8191 16.2139 36.4949C16.6608 36.1716 17.2859 36.2724 17.6102 36.7191C18.1542 37.4716 18.5723 38.2449 18.807 38.9999H29.3275C29.5366 38.6874 29.8417 38.3799 30.2363 38.0616C31.2774 37.2207 33.0011 35.9532 33.0011 31.9999V24.2266C33.0011 23.4416 32.5297 23 32.0006 23C31.4715 23 31.0011 23.4416 31.0011 24.2266V28.9999C31.0001 29.5516 30.5521 29.9999 30.0006 29.9999C29.4491 29.9999 29.0001 29.5516 29.0011 28.9999V17.2266C29.0011 16.4416 28.5297 16 28.0006 16C27.4715 16 27.0011 16.4416 27.0011 17.2266V26.9999C27.0011 27.5516 26.5521 27.9999 26.0006 27.9999C25.4491 27.9999 25.0011 27.5516 25.0011 26.9999V15.2267C25.0011 14.4417 24.5297 14 24.0006 14C23.4715 14 23.0011 14.4417 23.0011 15.2267V26.9999C23 27.5516 22.552 27.9999 22.0006 27.9999C21.4491 27.9999 21 27.5516 21.0011 26.9999V19.2266C21.0011 18.4416 20.5296 18 20.0006 18C19.4715 18 19.0011 18.4416 19.0011 19.2266V29.1183C19.0011 29.6691 18.5563 30.1158 18.0059 30.1183C18.0059 30.1183 16.9531 30.1374 14.039 29.4274C14.0272 29.4249 14.0165 29.4224 14.0048 29.4191C13.6165 29.3249 13.1963 29.2174 12.7419 29.0949C12.0443 28.9083 11.4693 28.8924 11.032 29.0341C10.7589 29.1224 10.5552 29.2708 10.4645 29.4808C10.2245 30.0308 10.6555 30.6999 11.5248 31.2341C11.8149 31.4133 12.3131 31.7474 12.9179 32.1983C13.3606 32.5274 13.4523 33.1549 13.1227 33.5974C12.7931 34.0399 12.1659 34.1316 11.7232 33.8016C11.1824 33.3991 10.7365 33.0982 10.4763 32.9382C8.50933 31.7282 8.088 29.9283 8.62986 28.6824C9.01067 27.8091 9.92801 27.0591 11.3467 26.9541L9.2432 24.8499C6.20746 21.8141 6.1232 19.3916 6.264 17.705C6.27893 17.5208 6.29812 17.3458 6.31626 17.1816ZM14.9008 6.46502C15.2902 6.07419 15.2902 5.44169 14.8998 5.05086L14.1926 4.34419C13.8022 3.95336 13.1696 3.95336 12.7792 4.34419L4.29386 12.8292C3.90239 13.22 3.90239 13.8533 4.29386 14.2433L4.99999 14.9508C5.39145 15.3408 6.02399 15.3408 6.41439 14.9508L14.9008 6.46502ZM27.0257 8.69251C26.8262 8.70501 26.6107 8.73751 26.3846 8.79168C25.4801 9.00751 22.648 9.49334 19.9558 9.38417C18.3899 9.32001 16.8774 9.03667 15.7467 8.44751L8.30454 15.8891C8.37814 16.2575 8.3792 16.6916 8.32587 17.195C8.184 18.5258 7.86186 20.6408 10.6576 23.4358L14.7686 27.5466C15.7616 27.7833 16.4902 27.9224 17.0011 28.0033V26.9508L14.1926 24.1433C13.8022 23.7525 13.8022 23.1191 14.1926 22.7291C14.583 22.3383 15.2166 22.3383 15.607 22.7291L17.0011 24.1224V19.2266C17.0011 17.0416 18.5286 16 20.0006 16C20.3376 16 20.6768 16.0541 21.0011 16.165V15.2267C21.0011 13.0417 22.5286 12 24.0006 12C24.4177 12 24.839 12.0833 25.2283 12.2525C25.7339 11.9333 26.3323 11.5708 27.0363 11.165C27.6625 10.8042 28.0795 10.4083 28.2886 9.99834C28.4198 9.74334 28.4582 9.49417 28.375 9.28167C28.2246 8.90001 27.8139 8.70084 27.2518 8.68834C27.1761 8.69834 27.1003 8.70001 27.0257 8.69251ZM32.1755 8.31751C31.9398 8.36751 31.6763 8.38418 31.3841 8.37001C31.0267 8.35251 30.5937 8.27418 30.0881 8.23751C30.1446 8.33918 30.1937 8.44334 30.2353 8.54918C30.7227 9.78584 30.3003 11.5908 28.0358 12.8967C27.5345 13.1867 27.0886 13.4525 26.6939 13.6958C26.7665 13.8558 26.8273 14.0275 26.8763 14.21C27.2358 14.0692 27.6198 14 28.0006 14C29.4726 14 31.0011 15.0417 31.0011 17.2266V21.165C31.3243 21.0541 31.6635 21 32.0006 21C33.4235 21 34.8977 21.9725 34.9958 24.0091C35.4609 24.6799 36.0902 25.6549 36.887 27.0358C37.2476 27.6616 37.6433 28.0791 38.0529 28.2883C38.3078 28.4191 38.5574 28.4574 38.7697 28.3741C39.3286 28.1541 39.4972 27.3766 39.2604 26.3841C39.0449 25.4799 38.5585 22.6475 38.6684 19.955C38.7313 18.3891 39.015 16.8775 39.6038 15.7458L32.1755 8.31751ZM18.0006 40.9999C17.448 41.0007 17 41.4482 17 41.9999V42.9999C17 43.5524 17.448 43.9999 18.0006 43.9999H30.0006C30.5531 43.9999 31.0011 43.5524 31.0011 42.9999V41.9999C31.0011 41.4474 30.5531 40.9999 30.0006 40.9999H18.0006ZM14.7227 34.0091C15.2752 34.0091 15.7232 34.4566 15.7232 35.0091C15.7232 35.5607 15.2752 36.0091 14.7227 36.0091C14.1712 36.0091 13.7232 35.5607 13.7232 35.0091C13.7232 34.4566 14.1712 34.0091 14.7227 34.0091Z" fill="url(#paint0_linear_11_2580)"/>
<defs>
<linearGradient id="paint0_linear_11_2580" x1="24.0006" y1="2.00024" x2="24.0006" y2="45.9999" gradientUnits="userSpaceOnUse">
<stop stop-color="#CE3E50"/>
<stop offset="0.32" stop-color="#472F7B"/>
<stop offset="0.655" stop-color="#1F298B"/>
<stop offset="1" stop-color="#0173BC"/>
</linearGradient>
</defs>
</svg>
