<svg width="28" height="32" viewBox="0 0 28 32" fill="none" xmlns="http://www.w3.org/2000/svg">
<g clip-path="url(#clip0_6_1771)">
<path d="M26.1811 27.7471L26.2233 27.9019L26.3477 28.0032C26.5543 28.1716 26.6875 28.4319 26.6875 28.7165V29.6585C26.6875 30.1653 26.2814 30.5714 25.7745 30.5714H6.46428C3.62017 30.5714 1.3125 28.2637 1.3125 25.4196V6.58037C1.3125 3.73626 3.62017 1.42859 6.46428 1.42859H25.7745C26.2814 1.42859 26.6875 1.83467 26.6875 2.34153V22.1228C26.6875 22.4083 26.5537 22.6661 26.352 22.8267L26.2241 22.9285L26.1811 23.0862C26.0383 23.6099 25.9781 24.542 25.9781 25.4167C25.9781 26.2914 26.0383 27.2235 26.1811 27.7471ZM23.2665 27.8036H23.8252L23.7635 27.2483C23.6557 26.2783 23.6557 24.5609 23.7635 23.5909L23.8252 23.0357H23.2665H6.46428C5.15198 23.0357 4.08035 24.1073 4.08035 25.4196C4.08035 26.7378 5.14609 27.8036 6.46428 27.8036H23.2665ZM8.70144 7.96429C8.23102 7.96429 7.84821 8.34711 7.84821 8.81753V9.99498C7.84821 10.4654 8.23102 10.8482 8.70144 10.8482H21.1825C21.6529 10.8482 22.0357 10.4654 22.0357 9.99498V8.81753C22.0357 8.34711 21.6529 7.96429 21.1825 7.96429H8.70144ZM8.70144 11.7321C8.23102 11.7321 7.84821 12.115 7.84821 12.5854V13.7628C7.84821 14.2333 8.23102 14.6161 8.70144 14.6161H21.1825C21.6529 14.6161 22.0357 14.2333 22.0357 13.7628V12.5854C22.0357 12.115 21.6529 11.7321 21.1825 11.7321H8.70144Z" stroke="url(#paint0_linear_6_1771)"/>
</g>
<defs>
<linearGradient id="paint0_linear_6_1771" x1="26.0571" y1="4.3539" x2="-0.242039" y2="6.28619" gradientUnits="userSpaceOnUse">
<stop offset="0.0608334" stop-color="#CE3E50"/>
<stop offset="0.345833" stop-color="#472F7B"/>
<stop offset="0.600833" stop-color="#1F298B"/>
<stop offset="0.795833" stop-color="#0173BC"/>
</linearGradient>
<clipPath id="clip0_6_1771">
<rect width="26.375" height="30.1428" fill="white" transform="translate(0.8125 0.928589)"/>
</clipPath>
</defs>
</svg>
