<svg width="57" height="57" viewBox="0 0 57 57" fill="none" xmlns="http://www.w3.org/2000/svg">
<path d="M6.41255 10.6875C6.03462 10.6875 5.67216 10.8376 5.40492 11.1049C5.13768 11.3721 4.98755 11.7346 4.98755 12.1125V18.525C4.98755 22.8463 8.50374 26.3625 12.825 26.3625H12.9626C14.3569 31.36 18.3669 35.3571 23.5125 36.9545V42.0375H21.6422C20.438 42.0388 19.2834 42.5178 18.4319 43.3693C17.5803 44.2209 17.1014 45.3754 17.1 46.5797V50.5875H15.3188C14.9409 50.5875 14.5784 50.7376 14.3112 51.0049C14.0439 51.2721 13.8938 51.6346 13.8938 52.0125C13.8938 52.3904 14.0439 52.7529 14.3112 53.0201C14.5784 53.2874 14.9409 53.4375 15.3188 53.4375H41.6813C42.0592 53.4375 42.4217 53.2874 42.6889 53.0201C42.9562 52.7529 43.1063 52.3904 43.1063 52.0125C43.1063 51.6346 42.9562 51.2721 42.6889 51.0049C42.4217 50.7376 42.0592 50.5875 41.6813 50.5875H39.9001V46.5797C39.8987 45.3754 39.4198 44.2209 38.5682 43.3693C37.7167 42.5178 36.5621 42.0388 35.3579 42.0375H33.4876V36.9545C38.6332 35.3571 42.6432 31.36 44.0375 26.3625H44.1751C48.4964 26.3625 52.0126 22.8463 52.0126 18.525V12.1125C52.0126 11.7346 51.8624 11.3721 51.5952 11.1049C51.3279 10.8376 50.9655 10.6875 50.5876 10.6875H44.5712V6.4125H46.5926C46.9705 6.4125 47.333 6.26237 47.6002 5.99513C47.8674 5.72789 48.0176 5.36543 48.0176 4.9875C48.0176 4.60957 47.8674 4.24711 47.6002 3.97987C47.333 3.71263 46.9705 3.5625 46.5926 3.5625H10.4075C10.0296 3.5625 9.66715 3.71263 9.39991 3.97987C9.13267 4.24711 8.98254 4.60957 8.98254 4.9875C8.98254 5.36543 9.13267 5.72789 9.39991 5.99513C9.66715 6.26237 10.0296 6.4125 10.4075 6.4125H12.4289V10.6875H6.41255ZM7.83755 18.525V13.5375H12.4289V22.4673C12.4289 22.8128 12.4453 23.1548 12.4695 23.4947C9.88527 23.3109 7.83755 21.1541 7.83755 18.525ZM37.0501 46.5797V50.5875H19.95V46.5797C19.9506 46.1311 20.1291 45.701 20.4463 45.3838C20.7635 45.0665 21.1936 44.8881 21.6422 44.8875H35.3579C35.8065 44.8881 36.2366 45.0665 36.5538 45.3838C36.871 45.701 37.0495 46.1311 37.0501 46.5797ZM30.6376 42.0375H26.3625V37.5701C27.0622 37.6592 27.7747 37.7098 28.5001 37.7098C29.2254 37.7098 29.9379 37.6599 30.6376 37.5708V42.0375ZM49.1626 13.5375V18.525C49.1626 21.1548 47.1148 23.3109 44.5313 23.4947C44.5548 23.1548 44.5712 22.8128 44.5712 22.4673V13.5375H49.1626ZM41.7212 6.4125V22.4673C41.7212 29.3001 35.7904 34.8598 28.5001 34.8598C21.2097 34.8598 15.2789 29.3008 15.2789 22.4673V6.4125H41.7212Z" fill="url(#paint0_linear_11_2588)"/>
<path d="M24.1837 21.4982L22.8712 25.5381C22.7787 25.8243 22.779 26.1324 22.8722 26.4183C22.9653 26.7043 23.1465 26.9535 23.3899 27.1302C23.6332 27.307 23.9262 27.4023 24.2269 27.4025C24.5277 27.4027 24.8208 27.3077 25.0643 27.1313L28.5 24.6347L31.9357 27.1313C32.1792 27.3084 32.4725 27.4038 32.7736 27.4038C33.0747 27.4039 33.368 27.3086 33.6116 27.1316C33.8552 26.9545 34.0364 26.7049 34.1293 26.4185C34.2222 26.1321 34.222 25.8237 34.1287 25.5374L32.8163 21.4982L36.2527 19.0016C36.4957 18.8245 36.6765 18.575 36.7692 18.289C36.8619 18.0029 36.8617 17.6948 36.7688 17.4088C36.6758 17.1228 36.4948 16.8735 36.2516 16.6966C36.0084 16.5197 35.7155 16.4242 35.4148 16.4238H31.1683L29.8552 12.3839C29.7621 12.0978 29.5809 11.8484 29.3375 11.6716C29.094 11.4948 28.8009 11.3995 28.5 11.3995C28.1991 11.3995 27.9059 11.4948 27.6625 11.6716C27.4191 11.8484 27.2378 12.0978 27.1448 12.3839L25.8324 16.4238H21.5852C21.2844 16.4242 20.9915 16.5197 20.7484 16.6966C20.5052 16.8735 20.3242 17.1228 20.2312 17.4088C20.1382 17.6948 20.1381 18.0029 20.2308 18.289C20.3235 18.575 20.5043 18.8245 20.7473 19.0016L24.1837 21.4982ZM26.8676 19.2738C27.1686 19.2738 27.4618 19.1785 27.7052 19.0016C27.9486 18.8247 28.1298 18.5753 28.2228 18.2891L28.5 17.4363L28.7771 18.2891C28.8701 18.5753 29.0513 18.8247 29.2948 19.0016C29.5382 19.1785 29.8314 19.2738 30.1323 19.2738H31.0294L30.3033 19.8011C29.8046 20.1644 29.5951 20.8071 29.786 21.3942L30.0632 22.2478L29.3379 21.7205C29.0944 21.5435 28.801 21.4482 28.5 21.4482C28.1989 21.4482 27.9056 21.5435 27.6621 21.7205L26.9368 22.2478L27.2146 21.3942C27.3075 21.108 27.3074 20.7997 27.2143 20.5135C27.1213 20.2274 26.9401 19.978 26.6967 19.8011L25.9706 19.2738H26.8676Z" fill="url(#paint1_linear_11_2588)"/>
<defs>
<linearGradient id="paint0_linear_11_2588" x1="28.5" y1="3.5625" x2="28.5" y2="53.4375" gradientUnits="userSpaceOnUse">
<stop stop-color="#CE3E50"/>
<stop offset="0.32" stop-color="#472F7B"/>
<stop offset="0.655" stop-color="#1F298B"/>
<stop offset="1" stop-color="#0173BC"/>
</linearGradient>
<linearGradient id="paint1_linear_11_2588" x1="28.5" y1="11.3995" x2="28.5" y2="27.4038" gradientUnits="userSpaceOnUse">
<stop stop-color="#CE3E50"/>
<stop offset="0.32" stop-color="#472F7B"/>
<stop offset="0.655" stop-color="#1F298B"/>
<stop offset="1" stop-color="#0173BC"/>
</linearGradient>
</defs>
</svg>
