<svg width="36" height="36" viewBox="0 0 36 36" fill="none" xmlns="http://www.w3.org/2000/svg">
<path d="M18 4.5C25.17 4.5 31.0345 10.0896 31.4736 17.149C31.2191 16.9835 30.9555 16.831 30.6837 16.6923C30.5683 15.5602 30.3047 14.4716 29.9127 13.4464L29.7898 13.125H29.4457H24.6629H24.0772L24.1692 13.7035C24.2899 14.4629 24.3793 15.2517 24.4346 16.0628C24.1845 16.132 23.939 16.2121 23.6986 16.3026C23.6399 15.3427 23.5323 14.4182 23.382 13.5406L23.3108 13.125H22.8892H13.1108H12.6892L12.618 13.5406C12.3808 14.9251 12.25 16.4268 12.25 18C12.25 19.5732 12.3808 21.0749 12.618 22.4594L12.6892 22.875H13.1108H18.1299C18.0786 23.1216 18.0371 23.3718 18.0061 23.625H13.4839H12.8384L12.9998 24.25C13.2729 25.3081 13.6134 26.2749 14.0088 27.1222L14.0088 27.1223C15.1046 29.4702 16.5424 30.75 18 30.75C18.5921 30.75 19.1831 30.5343 19.7432 30.1308C19.9973 30.5096 20.2754 30.8842 20.5754 31.2547C19.742 31.4156 18.881 31.5 18 31.5C10.5442 31.5 4.5 25.4559 4.5 18C4.5 10.5442 10.5442 4.5 18 4.5ZM22.5161 12.375H23.1614L23.0002 11.7501C22.7271 10.6919 22.3866 9.72506 21.9912 8.87781C20.8955 6.5297 19.4575 5.25 18 5.25C16.5424 5.25 15.1046 6.52971 14.0088 8.8778C13.6134 9.72505 13.2729 10.6918 12.9998 11.75L12.8384 12.375H13.4839H22.5161ZM11.6813 12.375H12.0769L12.1679 11.99C12.4687 10.7178 12.8619 9.56181 13.3291 8.56065C13.6438 7.88647 14.0036 7.26093 14.404 6.71275L15.3448 5.42464L13.837 5.94523C10.9173 6.95335 8.47927 8.99141 6.95604 11.6246L6.52198 12.375H7.38884H11.6813ZM11.8309 13.7036L11.923 13.125H11.3371H6.55435H6.21026L6.08734 13.4464C5.54621 14.8612 5.25 16.3966 5.25 18C5.25 19.6034 5.54621 21.1388 6.08734 22.5536L6.21026 22.875H6.55435H11.3371H11.923L11.8309 22.2964C11.6157 20.9437 11.5 19.4983 11.5 18C11.5 16.5018 11.6157 15.0563 11.8309 13.7036ZM12.1679 24.01L12.0769 23.625H11.6813H7.38884H6.52197L6.95604 24.3754C8.47928 27.0086 10.9173 29.0466 13.837 30.0548L15.3448 30.5755L14.404 29.2873C14.0037 28.7391 13.6438 28.1135 13.3291 27.4393L13.3291 27.4393C12.8619 26.4382 12.4687 25.2821 12.1679 24.01ZM22.163 5.94523L20.6555 5.42473L21.596 6.71271C21.9963 7.26092 22.3562 7.88649 22.6709 8.5607C23.1381 9.56182 23.5313 10.7178 23.8321 11.9901L23.9232 12.375H24.3187H28.6111H29.478L29.0439 11.6247C27.5208 8.99141 25.0827 6.95335 22.163 5.94523ZM26.8821 33.2041L26.882 33.2042C26.8028 33.2653 26.6972 33.2653 26.618 33.2042L26.6179 33.2041C22.5841 30.0922 20.6875 27.2944 20.6875 24.7499C20.6875 21.2848 23.4149 18.5 26.75 18.5C30.0851 18.5 32.8125 21.2848 32.8125 24.7499C32.8125 27.2944 30.9159 30.0922 26.8821 33.2041ZM26.75 22C25.2524 22 24.0625 23.2447 24.0625 24.7499C24.0625 26.2553 25.2524 27.5001 26.75 27.5001C28.2476 27.5001 29.4375 26.2553 29.4375 24.7499C29.4375 23.2447 28.2476 22 26.75 22Z" stroke="url(#paint0_linear_6_1046)"/>
<defs>
<linearGradient id="paint0_linear_6_1046" x1="32.0562" y1="7.38068" x2="2.87001" y2="9.79539" gradientUnits="userSpaceOnUse">
<stop offset="0.0608334" stop-color="#CE3E50"/>
<stop offset="0.345833" stop-color="#472F7B"/>
<stop offset="0.600833" stop-color="#1F298B"/>
<stop offset="0.795833" stop-color="#0173BC"/>
</linearGradient>
</defs>
</svg>
