<svg width="61" height="61" viewBox="0 0 61 61" fill="none" xmlns="http://www.w3.org/2000/svg">
<path d="M18.1094 33.5977H13.4629C12.8076 33.5977 12.2715 34.1339 12.2715 34.7891V53.4942C12.2715 54.1495 12.8076 54.6856 13.4629 54.6856H18.1094C18.7647 54.6856 19.3008 54.1495 19.3008 53.4942V34.7891C19.3008 34.1339 18.7647 33.5977 18.1094 33.5977ZM16.918 52.3028H14.6543V35.9805H16.918V52.3028ZM8.69727 43.8438H4.05079C3.39551 43.8438 2.85938 44.38 2.85938 45.0352V53.4942C2.85938 54.1495 3.39551 54.6856 4.05079 54.6856H8.69727C9.35254 54.6856 9.88868 54.1495 9.88868 53.4942V45.0352C9.88868 44.38 9.35254 43.8438 8.69727 43.8438ZM7.50586 52.3028H5.24219V46.2266H7.50586V52.3028ZM3.95547 38.0417L25.9965 16.0007L30.5 20.5161C30.9647 20.9807 31.7152 20.9807 32.1799 20.5161L45.9168 6.77917L45.9049 12.0333C45.9049 12.6886 46.4291 13.2128 47.0844 13.2128C47.0844 13.2128 47.0844 13.2128 47.0963 13.2128C47.7516 13.2128 48.2877 12.6886 48.2877 12.0333L48.2996 3.88406C48.2996 3.57429 48.1686 3.27644 47.9541 3.06199C47.7277 2.84753 47.4299 2.72839 47.1082 2.72839H38.959C38.3037 2.75222 37.7795 3.30027 37.8033 3.95554C37.8271 4.58699 38.3275 5.09929 38.959 5.11121L44.2369 5.08738L31.3459 17.9903L26.8305 13.4749C26.3658 13.0102 25.6152 13.0102 25.1506 13.4749L2.26368 36.3618C1.78711 36.8145 1.7752 37.577 2.23985 38.0417C2.7045 38.5063 3.45508 38.5302 3.91973 38.0655C3.93164 38.0655 3.94356 38.0536 3.95547 38.0417ZM47.2988 36.755V18.9553C47.3107 18.3001 46.7865 17.7639 46.1313 17.752H41.5205C40.8652 17.752 40.2695 18.3001 40.2695 18.9553V35.4682C39.507 35.5278 38.7564 35.635 38.0059 35.8018V25.1626C38.0059 24.4954 37.4697 23.9593 36.8145 23.9473H32.2037C31.5365 23.9593 30.9885 24.4954 30.9766 25.1626V38.9591C30.2617 39.4952 29.4277 40.079 28.7129 40.7223V32.0012C28.7129 31.346 28.1529 30.8575 27.4977 30.8575H22.8869C22.2316 30.8575 21.6836 31.3341 21.6836 32.0012V53.5061C21.6955 54.1614 22.2316 54.6975 22.8869 54.6856H27.4977C28.1648 54.6856 28.701 54.1614 28.7129 53.5061V53.0057C31.9297 55.6864 36.2783 58.2956 41.175 58.2956C45.2377 58.2956 49.5863 56.4251 53.7682 52.8985C55.6506 51.3139 57.3543 49.5268 58.8555 47.5729C59.1533 47.1559 59.1533 46.5841 58.8436 46.1671C58.641 45.8811 53.9707 39.5667 47.2988 36.755ZM42.6523 20.1348H44.916V35.9448C44.1773 35.7423 43.4148 35.5993 42.6523 35.5278V20.1348ZM33.3594 26.3302H35.623V36.5167C34.9082 36.8026 34.1934 37.1362 33.3594 37.5294V26.3302ZM24.0664 33.2403H26.3301V42.9264C25.5199 43.6889 24.7574 44.511 24.0664 45.3927V33.2403ZM26.3301 52.3028H24.0664V48.3354C24.7574 49.2171 25.5199 50.0391 26.3301 50.8016V52.3028ZM41.1631 55.9128C38.3633 55.9128 33.9074 54.8405 28.5818 49.7055C27.6525 48.812 26.7709 47.8589 25.9488 46.8581C26.7113 45.9288 27.5334 45.0352 28.3912 44.2012C29.7732 42.8311 31.2982 41.6159 32.9186 40.5555C34.2529 39.6739 35.7065 38.971 37.2195 38.4706C38.4943 38.0536 39.8168 37.8272 41.1512 37.8153C41.2584 37.8153 41.3537 37.8153 41.4371 37.8153C41.449 37.8153 41.4609 37.8153 41.4729 37.8153C42.8787 37.863 44.2607 38.137 45.5832 38.6255C50.7658 40.496 54.9238 45.0948 56.3654 46.8462C54.5307 49.0979 48.3354 55.9128 41.1631 55.9128Z" fill="url(#paint0_linear_10_2571)"/>
<path d="M41.1631 38.9352C36.7906 38.9352 33.2402 42.4856 33.2402 46.858C33.2402 51.2305 36.7906 54.7809 41.1631 54.7809C45.5355 54.7809 49.0859 51.2305 49.0859 46.858C49.0859 42.4856 45.5355 38.9471 41.1631 38.9352ZM41.1631 52.3981C38.1012 52.3981 35.623 49.9199 35.623 46.858C35.623 43.7961 38.1012 41.318 41.1631 41.318C44.225 41.318 46.7031 43.7961 46.7031 46.858C46.7031 49.9199 44.225 52.3981 41.1631 52.3981Z" fill="url(#paint1_linear_10_2571)"/>
<defs>
<linearGradient id="paint0_linear_10_2571" x1="30.488" y1="2.72839" x2="30.488" y2="58.2956" gradientUnits="userSpaceOnUse">
<stop stop-color="#CE3E50"/>
<stop offset="0.32" stop-color="#472F7B"/>
<stop offset="0.655" stop-color="#1F298B"/>
<stop offset="1" stop-color="#0173BC"/>
</linearGradient>
<linearGradient id="paint1_linear_10_2571" x1="41.1631" y1="38.9352" x2="41.1631" y2="54.7809" gradientUnits="userSpaceOnUse">
<stop stop-color="#CE3E50"/>
<stop offset="0.32" stop-color="#472F7B"/>
<stop offset="0.655" stop-color="#1F298B"/>
<stop offset="1" stop-color="#0173BC"/>
</linearGradient>
</defs>
</svg>
