<svg width="1065" height="572" viewBox="0 0 1065 572" fill="none" xmlns="http://www.w3.org/2000/svg">
<path d="M884.058 569.494C884.058 569.494 975.807 575.959 1034.47 511.179C1110.4 427.329 1029.62 158.577 912.253 227.02C769.849 310.064 787.714 27.3124 528.078 98.5876C455.072 118.629 257.818 -0.427361 202.805 190.47C189.723 235.864 143.374 240.863 76.091 269.667C-55.5884 326.038 4.6208 570.444 98.7107 571.404C192.801 572.363 884.058 569.494 884.058 569.494Z" fill="#EBF2F9"/>
<path d="M794.714 454.041H143.226L256.736 0H908.224L794.714 454.041Z" fill="#D2E4FF"/>
<path d="M781.303 435.543H165.045L270.147 18.498H890.609L781.303 435.543Z" fill="white"/>
<path d="M807.325 454.041H794.713L908.223 0H920.835L807.325 454.041Z" fill="#AED3FF"/>
<mask id="mask0_2048_4951" style="mask-type:luminance" maskUnits="userSpaceOnUse" x="224" y="43" width="271" height="270">
<path d="M417.13 312.939H245.532C232.023 312.939 222.107 300.249 225.374 287.141L282.143 59.3381C284.45 50.0824 292.763 43.5867 302.301 43.5867H473.9C487.409 43.5867 497.325 56.2771 494.058 69.385L437.289 297.188C434.982 306.444 426.669 312.939 417.13 312.939Z" fill="white"/>
</mask>
<g mask="url(#mask0_2048_4951)">
<path d="M433.363 312.939H218.944L286.068 43.5867H500.487L433.363 312.939Z" fill="#EBF2F9"/>
</g>
<mask id="mask1_2048_4951" style="mask-type:luminance" maskUnits="userSpaceOnUse" x="224" y="43" width="271" height="270">
<path d="M417.13 312.939H245.532C232.023 312.939 222.107 300.249 225.374 287.141L282.143 59.3381C284.45 50.0824 292.763 43.5867 302.301 43.5867H473.9C487.409 43.5867 497.325 56.2771 494.058 69.385L437.289 297.188C434.982 306.444 426.669 312.939 417.13 312.939Z" fill="white"/>
</mask>
<g mask="url(#mask1_2048_4951)">
<path d="M455.816 355.52C455.597 356.229 455.302 356.9 454.921 357.514C450.689 364.332 380.995 364.673 373.03 358.953C369.47 356.395 368.382 321.134 368.273 282.927C368.134 235.694 369.484 183.953 369.484 183.953C369.484 183.953 396.754 196.61 398.083 212.185C399.413 227.761 387.947 321.373 395.912 327.094C403.877 332.815 440.614 333.559 452.872 337.157C452.872 337.157 458.076 348.366 455.816 355.52Z" fill="#739AF0"/>
<path d="M385.301 76.5637C380.532 71.5978 372.737 71.1299 367.723 70.7789C369.176 69.6227 371.758 69.4676 371.758 69.4676C368.733 68.6091 361.449 70.7768 361.449 70.7768C361.449 70.7768 337.097 54.0412 320.582 86.725C320.582 86.725 322.994 84.4102 326.234 81.8453C316.7 100.642 319.893 131.362 341.197 139.514C355.047 144.814 434.175 127.457 385.301 76.5637Z" fill="#163560"/>
<path d="M370.545 191.76C370.68 191.842 355.81 197.27 345.702 193.045C336.193 189.08 331.409 175.464 331.549 175.453C335.831 175.165 337.778 169.585 340.885 144.922L342.724 145.539L373.641 155.936C373.641 155.936 371.624 165.828 370.383 175.233C369.338 183.128 368.846 190.682 370.545 191.76Z" fill="#E49963"/>
<path d="M373.641 155.936C373.641 155.936 371.625 165.828 370.384 175.233C352.692 172.43 345.406 155.015 342.725 145.539L373.641 155.936Z" fill="#D68D5D"/>
<path d="M339.896 141.66C339.896 141.66 332.496 125.75 331.892 112.889C331.461 103.707 340.346 71.0297 373.157 80.1551C373.157 80.1551 382.744 82.3711 391.072 89.7186C397.695 95.5618 406.799 107.504 391.322 135.018L387.008 144.43L339.896 141.66Z" fill="#163560"/>
<path d="M378.416 165.612C378.416 165.612 336.315 160.859 339.679 134.686C343.042 108.514 339.874 90.273 366.896 92.2014C393.919 94.1294 397.847 104.786 398.849 113.795C399.851 122.804 389.454 166.174 378.416 165.612Z" fill="#E49963"/>
<path d="M381.181 224.883C380.832 221.806 387.412 220.38 388.609 223.235C390.85 228.586 390.607 234.931 391.113 240.079C392.556 254.777 386.73 273.89 386.73 273.89L381.181 224.883Z" fill="#4A75CB"/>
<path d="M399.487 99.083C394.023 90.3852 388.898 91.4573 385.84 93.4601C378.52 78.7185 347.284 94.617 347.284 94.617C342.04 113.029 327.105 122.03 327.105 122.03C327.105 122.03 334.149 127.753 352.39 125.502C366.746 123.73 379.391 105.263 384.127 97.4763C386.337 100.021 390.944 105.836 391.872 111.066C393.102 118.002 392.266 131.842 396.325 131.894C396.325 131.894 407.696 112.15 399.487 99.083Z" fill="#163560"/>
<path d="M371.133 148.538C371.133 148.538 371.485 151.964 379.822 152.523C379.822 152.523 386.821 152.994 387.083 149.313C387.083 149.313 380.687 145.841 371.133 148.538Z" fill="white"/>
<path d="M455.816 355.52C455.597 356.229 455.303 356.9 454.922 357.514C450.689 364.332 380.995 364.673 373.03 358.953C369.471 356.395 368.32 312.578 378.131 274.784C380.459 297.427 376.196 342.694 388.047 346.387C401.487 350.58 438.176 350.662 455.816 355.52Z" fill="#82B479"/>
<path d="M389.071 275.98C361.404 355.852 374.017 370.299 364.126 377.221C364.075 377.254 355.833 379.614 355.774 379.654C345.517 386.454 346.542 376.736 315.933 385.539C301.352 389.737 282.626 395.372 266.56 398.058C260.51 399.062 254.84 399.66 249.906 399.596C240.451 399.482 233.712 396.96 232.262 390.377C228.045 371.245 265.953 326.802 262.343 292.655C262.314 292.363 262.285 292.065 262.263 291.773C262.066 288.801 262.391 285.461 263.161 281.851C267.032 263.561 282.185 238.214 297.25 216.848C313.881 193.28 330.399 174.553 331.548 175.452C364.05 200.916 369.484 183.953 369.484 183.953C369.484 183.953 398.509 248.74 389.071 275.98Z" fill="#739AF0"/>
<path d="M358.723 378.864C358.672 378.897 358.781 378.825 358.723 378.864C348.465 385.665 346.542 376.736 315.933 385.539C301.352 389.737 282.627 395.372 266.561 398.058C258.485 398.411 252.446 398.86 249.907 399.596C240.452 399.482 233.713 396.961 232.263 390.377C228.045 371.245 265.953 326.802 262.343 292.655C262.314 292.363 262.286 292.065 262.263 291.774C262.009 288.412 262.341 285.133 263.161 281.851C266.648 268.025 278.951 254.129 293.524 233.455C300.277 242.736 360.284 240.77 335.799 320.641C328.292 345.123 357.586 358.96 358.723 378.864Z" fill="#4A75CB"/>
<path d="M331.55 175.452C331.55 175.452 283.688 169.897 272.138 191.84C260.587 213.783 252.719 295.137 262.074 321.129C271.429 347.121 338.294 389.274 346.027 391.617C353.76 393.958 360.279 382.413 360.12 381.054C359.962 379.694 293.348 309.78 294.488 303.566C295.629 297.351 331.55 175.452 331.55 175.452Z" fill="#739AF0"/>
</g>
<path d="M459.983 127.516C453.995 127.516 449.123 122.644 449.123 116.656C449.123 110.668 453.995 105.795 459.983 105.795C465.972 105.795 470.843 110.668 470.843 116.656C470.843 122.644 465.971 127.516 459.983 127.516ZM459.983 109.999C456.313 109.999 453.327 112.985 453.327 116.655C453.327 120.326 456.313 123.312 459.983 123.312C463.653 123.312 466.639 120.326 466.639 116.655C466.639 112.985 463.653 109.999 459.983 109.999Z" fill="#2B478B"/>
<path d="M464.607 109.999C464.069 109.999 463.531 109.794 463.121 109.383C462.3 108.563 462.3 107.232 463.121 106.411L496.99 72.542H763.883C765.044 72.542 765.985 73.4829 765.985 74.644C765.985 75.8052 765.044 76.7461 763.883 76.7461H498.731L466.093 109.384C465.683 109.794 465.145 109.999 464.607 109.999Z" fill="#2B478B"/>
<path d="M753.153 64.2393H517.316C510.873 64.2393 505.65 59.0166 505.65 52.5734C505.65 46.1306 510.873 40.9075 517.316 40.9075H753.153C759.596 40.9075 764.819 46.1302 764.819 52.5734C764.819 59.0161 759.596 64.2393 753.153 64.2393Z" fill="#EE9849"/>
<path d="M653.197 341.382C633.747 341.382 617.979 357.15 617.979 376.6C617.979 396.05 633.747 411.818 653.197 411.818C672.648 411.818 688.416 396.05 688.416 376.6C688.416 357.15 672.648 341.382 653.197 341.382Z" fill="#AED3FF"/>
<path d="M772.811 356.927H714.468C712.354 356.927 710.624 358.656 710.624 360.771C710.624 362.885 712.353 364.615 714.468 364.615H772.811C774.925 364.615 776.655 362.886 776.655 360.771C776.655 358.656 774.925 356.927 772.811 356.927Z" fill="#AED3FF"/>
<path d="M772.811 372.756H714.468C712.354 372.756 710.624 374.486 710.624 376.6C710.624 378.714 712.353 380.444 714.468 380.444H772.811C774.925 380.444 776.655 378.715 776.655 376.6C776.655 374.486 774.925 372.756 772.811 372.756Z" fill="#AED3FF"/>
<path d="M772.811 388.585H714.468C712.354 388.585 710.624 390.315 710.624 392.43C710.624 394.545 712.353 396.275 714.468 396.275H772.811C774.925 396.275 776.655 394.545 776.655 392.43C776.655 390.315 774.925 388.585 772.811 388.585Z" fill="#AED3FF"/>
<path d="M620.953 376.088H653.198V343.843C635.39 343.843 620.953 358.28 620.953 376.088Z" fill="#80BDCC"/>
<path d="M685.443 377.127H653.198H620.953C620.953 394.934 635.39 409.371 653.198 409.372C671.005 409.371 685.443 394.934 685.443 377.127Z" fill="#F1A34F"/>
<path d="M647.628 359.511H630.128C629.132 359.511 628.317 360.326 628.317 361.321C628.317 362.317 629.132 363.132 630.128 363.132H647.628C648.624 363.132 649.438 362.317 649.438 361.321C649.438 360.326 648.624 359.511 647.628 359.511Z" fill="#D2E4FF"/>
<path d="M634.114 366.098H630.128C629.132 366.098 628.317 366.913 628.317 367.909C628.317 368.905 629.132 369.719 630.128 369.719H634.114C635.109 369.719 635.924 368.905 635.924 367.909C635.924 366.913 635.109 366.098 634.114 366.098Z" fill="#D2E4FF"/>
<path d="M673.61 385.009H656.11C655.114 385.009 654.299 385.824 654.299 386.82C654.299 387.816 655.114 388.63 656.11 388.63H673.61C674.605 388.63 675.42 387.816 675.42 386.82C675.42 385.824 674.605 385.009 673.61 385.009Z" fill="#DD8936"/>
<path d="M660.095 391.597H656.11C655.114 391.597 654.299 392.412 654.299 393.407C654.299 394.403 655.114 395.218 656.11 395.218H660.095C661.091 395.218 661.906 394.403 661.906 393.407C661.905 392.412 661.091 391.597 660.095 391.597Z" fill="#DD8936"/>
<path d="M453.092 411.818C472.542 411.818 488.31 396.051 488.31 376.6C488.31 357.15 472.542 341.382 453.092 341.382C433.642 341.382 417.874 357.15 417.874 376.6C417.874 396.051 433.642 411.818 453.092 411.818Z" fill="#AED3FF"/>
<path d="M514.363 364.615H572.705C574.82 364.615 576.55 362.885 576.55 360.77C576.55 358.656 574.82 356.926 572.705 356.926H514.363C512.249 356.926 510.519 358.655 510.519 360.77C510.519 362.885 512.249 364.615 514.363 364.615Z" fill="#AED3FF"/>
<path d="M572.706 372.756H514.363C512.249 372.756 510.519 374.486 510.519 376.6C510.519 378.715 512.249 380.444 514.363 380.444H572.706C574.821 380.444 576.551 378.715 576.551 376.6C576.551 374.486 574.821 372.756 572.706 372.756Z" fill="#AED3FF"/>
<path d="M572.706 388.585H514.363C512.249 388.585 510.519 390.315 510.519 392.43C510.519 394.544 512.249 396.274 514.363 396.274H572.706C574.821 396.274 576.551 394.544 576.551 392.43C576.55 390.315 574.821 388.585 572.706 388.585Z" fill="#AED3FF"/>
<path d="M453.093 377.172L420.851 376.762C420.848 376.897 420.848 377.036 420.848 377.172C420.848 394.98 435.285 409.417 453.093 409.417C459.46 409.417 465.395 407.57 470.394 404.384L453.093 377.172Z" fill="#F1A34F"/>
<path d="M454.28 387.326H436.78C435.784 387.326 434.97 388.14 434.97 389.136C434.97 390.132 435.784 390.946 436.78 390.946H454.28C455.276 390.946 456.091 390.132 456.091 389.136C456.091 388.14 455.276 387.326 454.28 387.326Z" fill="#DD8936"/>
<path d="M440.766 393.913H436.78C435.784 393.913 434.97 394.728 434.97 395.724C434.97 396.719 435.784 397.534 436.78 397.534H440.766C441.761 397.534 442.576 396.719 442.576 395.724C442.576 394.727 441.761 393.913 440.766 393.913Z" fill="#DD8936"/>
<path d="M251.251 411.818C270.702 411.818 286.469 396.051 286.469 376.6C286.469 357.15 270.702 341.382 251.251 341.382C231.801 341.382 216.033 357.15 216.033 376.6C216.033 396.051 231.801 411.818 251.251 411.818Z" fill="#AED3FF"/>
<path d="M251.252 344.358C233.445 344.358 219.007 358.792 219.007 376.6C219.007 388.799 225.783 399.416 235.777 404.893C240.942 395.325 251.252 376.6 251.252 376.6L266.52 405.004C276.627 399.561 283.495 388.883 283.495 376.6C283.495 358.792 269.06 344.358 251.252 344.358Z" fill="#80BDCC"/>
<path d="M370.865 356.927H312.522C310.408 356.927 308.678 358.657 308.678 360.771C308.678 362.885 310.408 364.615 312.522 364.615H370.865C372.979 364.615 374.709 362.885 374.709 360.771C374.709 358.657 372.979 356.927 370.865 356.927Z" fill="#AED3FF"/>
<path d="M370.865 372.756H312.522C310.408 372.756 308.678 374.486 308.678 376.6C308.678 378.715 310.408 380.445 312.522 380.445H370.865C372.979 380.445 374.709 378.715 374.709 376.6C374.709 374.486 372.979 372.756 370.865 372.756Z" fill="#AED3FF"/>
<path d="M370.865 388.585H312.522C310.408 388.585 308.678 390.315 308.678 392.43C308.678 394.545 310.408 396.275 312.522 396.275H370.865C372.979 396.275 374.709 394.545 374.709 392.43C374.709 390.315 372.979 388.585 370.865 388.585Z" fill="#AED3FF"/>
<path d="M252.44 361.2H234.94C233.944 361.2 233.129 362.015 233.129 363.011C233.129 364.007 233.944 364.821 234.94 364.821H252.44C253.435 364.821 254.25 364.007 254.25 363.011C254.25 362.015 253.435 361.2 252.44 361.2Z" fill="#D2E4FF"/>
<path d="M238.925 367.788H234.94C233.944 367.788 233.129 368.603 233.129 369.598C233.129 370.594 233.944 371.409 234.94 371.409H238.925C239.921 371.409 240.735 370.594 240.735 369.598C240.735 368.602 239.921 367.788 238.925 367.788Z" fill="#D2E4FF"/>
<path d="M484.243 312.939H778.168C784.202 312.939 789.455 308.819 790.892 302.959L837.665 112.29C839.69 104.035 833.44 96.0679 824.941 96.0679H531.93C525.919 96.0679 520.679 100.158 519.22 105.99L471.533 296.659C469.465 304.928 475.719 312.939 484.243 312.939Z" fill="#D2E4FF"/>
<path d="M801.321 206.58C801.321 206.58 748.285 199.752 707.235 230.614C666.147 261.504 610.797 233.35 586.389 230.614C543.953 225.858 506.187 240.159 492.113 255.885L480.309 303.11H777.622L801.321 206.58Z" fill="#AED3FF"/>
<path d="M757.171 204.327H759.463L777.553 130.831H775.264L757.171 204.327Z" fill="white"/>
<path d="M659.374 235.914H661.667L679.874 162.349H677.582L659.374 235.914Z" fill="white"/>
<path d="M570.632 219.256H572.925L591.224 145.727H588.934L570.632 219.256Z" fill="white"/>
<path d="M746.915 142.098H764.474C765.524 142.098 766.595 141.238 766.853 140.188C767.112 139.138 766.465 138.278 765.415 138.278H747.856C746.807 138.278 745.736 139.138 745.477 140.188C745.219 141.238 745.866 142.098 746.915 142.098Z" fill="white"/>
<path d="M745.219 148.974H762.78C763.829 148.974 764.9 148.114 765.159 147.063C765.417 146.013 764.77 145.154 763.721 145.154H746.16C745.111 145.154 744.04 146.013 743.781 147.063C743.522 148.115 744.17 148.974 745.219 148.974Z" fill="white"/>
<path d="M649.071 179.553H666.64C667.69 179.553 668.763 178.693 669.023 177.642C669.283 176.59 668.637 175.73 667.587 175.73H650.019C648.969 175.73 647.896 176.59 647.635 177.642C647.375 178.693 648.021 179.553 649.071 179.553Z" fill="white"/>
<path d="M647.399 186.296H664.97C666.02 186.296 667.093 185.435 667.353 184.383C667.614 183.332 666.967 182.471 665.917 182.471H648.347C647.297 182.471 646.224 183.331 645.963 184.383C645.702 185.435 646.349 186.296 647.399 186.296Z" fill="white"/>
<path d="M561.642 151.84H579.204C580.253 151.84 581.326 150.98 581.588 149.93C581.849 148.879 581.205 148.019 580.156 148.019H562.595C561.545 148.019 560.472 148.879 560.21 149.93C559.948 150.98 560.592 151.84 561.642 151.84Z" fill="white"/>
<path d="M559.963 158.577H577.526C578.576 158.577 579.649 157.717 579.91 156.666C580.172 155.615 579.527 154.756 578.478 154.756H560.916C559.865 154.756 558.792 155.615 558.53 156.666C558.268 157.717 558.912 158.577 559.963 158.577Z" fill="white"/>
<path d="M134.236 517.554L141.261 547.145L151.785 547.086L152.171 517.554H134.236Z" fill="#FFB27D"/>
<path d="M222.758 518.816L242.748 547.145L250.54 537.141L238.508 514.921L222.758 518.816Z" fill="#FFB27D"/>
<path d="M170.785 128.707C167.152 126.642 162.798 126.417 159.753 126.597C160.537 125.787 162.079 125.492 162.079 125.492C160.191 125.212 155.976 127.085 155.976 127.085C129.709 116.963 125.58 155.64 126.132 164.625C126.68 173.61 117.306 176.544 103.639 183.624C77.5648 197.132 75.2744 215.22 75.2744 215.22C75.4775 215.339 75.6894 215.476 75.9151 215.631C77.2087 213.439 79.872 209.323 82.1174 208.703C82.0325 208.902 79.4634 214.369 78.5048 217.502C86.1975 223.354 100.588 236.32 110.617 245.513C110.572 243.716 110.643 241.165 111.3 239.818L112.539 247.28C117.905 252.213 121.607 255.684 121.607 255.684C120.944 248.423 154.447 210.105 171.926 198.629C176.181 192.365 177.693 181.298 177.807 180.427C177.072 189.202 175.571 194.123 174.229 196.895C189.031 183.271 180.414 134.179 170.785 128.707Z" fill="#163560"/>
<path d="M170.892 199.2C170.98 199.239 162.453 203.666 156.039 201.912C150.006 200.267 146.064 192.444 146.147 192.427C148.702 191.919 149.439 188.408 149.384 173.321L150.54 173.548L169.961 177.394C169.961 177.394 169.519 183.506 169.506 189.263C169.492 194.098 169.786 198.683 170.892 199.2Z" fill="#FFB27D"/>
<path d="M148.93 135.04C148.93 135.04 158.51 124.841 170.538 134.518C170.538 134.518 163.538 133.308 148.93 135.04Z" fill="#82B479"/>
<path d="M169.96 177.394C169.96 177.394 169.518 183.506 169.505 189.264C158.637 188.957 152.893 179.043 150.539 173.548L169.96 177.394Z" fill="#D68D5D"/>
<path d="M148.533 171.434C148.533 171.434 142.838 162.435 141.471 154.741C140.495 149.247 143.293 128.884 163.756 131.817C163.756 131.817 169.699 132.402 175.286 136.175C179.729 139.176 186.14 145.654 178.971 163.423L177.109 169.426L148.533 171.434Z" fill="#163560"/>
<path d="M247.368 529.376L237.073 529.691L225.93 530.032C225.93 530.032 200.191 501.375 185.753 455.436C185.417 454.369 185.062 453.288 184.686 452.194C176.784 429.155 160.404 400.236 151.772 374.059C150.398 369.89 149.164 365.966 148.057 362.251C147.703 361.061 147.357 359.893 147.029 358.742C140.668 336.639 138.826 322.127 137.128 306.621L199.461 307.12C199.461 307.12 209.523 412.998 247.368 529.376Z" fill="#A8D2A0"/>
<path d="M190.734 271.303C190.577 300.965 195.085 313.69 195.085 313.69C195.085 313.69 168.398 327.25 136.678 317.269C136.304 317.152 110.414 311.242 110.414 311.242C110.945 310.042 115.665 290.052 116.182 288.951C122.879 274.57 127.964 268.263 128.759 263.842C130.232 255.588 130.264 247.047 129.53 238.992C127.595 217.668 121.839 199.966 121.839 199.966C130.481 198 138.799 194.637 147.794 191.263C149.863 193.839 155.965 196.444 161.452 196.32C167.77 196.181 169.743 193.509 169.511 190.499C176.244 194.246 181.597 197.809 181.597 197.809C187.319 207.749 198.925 217.402 199.765 232.65C199.974 236.399 190.738 270.472 190.734 271.303Z" fill="#E7F1FD"/>
<path d="M137.128 274.609C134.403 278.466 129.179 301.905 116.183 304.852C122.879 288.147 127.965 280.821 128.759 275.686C130.232 266.097 130.264 256.177 129.53 246.82C133.881 239.194 137.128 233.966 137.128 233.966C137.47 232.733 144.042 212.412 146.148 230.576C148.249 248.745 140.172 270.296 137.128 274.609Z" fill="#5F9AA8"/>
<path d="M173.589 182.846C173.589 182.846 147.876 183.27 147.859 167.253C147.841 151.237 144.51 140.505 160.927 139.557C177.343 138.609 180.54 144.717 181.846 150.061C183.152 155.406 180.278 182.323 173.589 182.846Z" fill="#FFB27D"/>
<path d="M181.082 141.155C177.114 136.346 174.113 137.391 172.429 138.836C166.872 130.533 149.31 142.541 149.31 142.541C147.59 154.033 139.303 160.616 139.303 160.616C139.303 160.616 143.989 163.511 154.794 160.733C163.297 158.546 169.467 146.444 171.711 141.387C173.24 142.746 176.466 145.887 177.433 148.963C178.715 153.042 179.292 161.438 181.739 161.152C181.739 161.152 187.042 148.38 181.082 141.155Z" fill="#163560"/>
<path d="M140.908 545.491C140.908 545.491 141.756 551.352 139.569 557.623C139.569 557.623 137.846 565.471 145.575 565.617C153.305 565.763 155.201 565.033 154.325 560.221C153.45 555.408 151.786 547.086 151.786 547.086L140.908 545.491Z" fill="#FFB27D"/>
<path d="M155.055 569.468C155.055 569.468 155.046 569.473 155.029 569.486H139.037C139.02 569.473 139.012 569.468 139.012 569.468C138.137 565.363 139.567 557.632 139.567 557.632C148.32 565.999 153.798 557.421 153.798 557.421C155.219 560.999 155.055 569.468 155.055 569.468Z" fill="#DD8936"/>
<path d="M269.166 561.373C269.166 561.373 254.915 545.19 250.54 537.141L239.943 542.57L263.63 564.814L269.171 564.086L269.166 561.373Z" fill="#FFB27D"/>
<path d="M277.907 569.44H258.135C256.394 567.872 254.734 564.711 252.699 560.566C251.535 558.191 248.924 556.883 246.246 556.164V569.44H242.155L238.367 555.323C235.845 550.594 237.74 546.256 239.514 542.518C241.578 542.514 247.566 544.006 258.093 556.101C261.553 560.074 265.37 561.491 269.166 561.373C269.217 561.406 269.272 561.436 269.322 561.457C275.317 564.206 277.272 567.586 277.907 569.44Z" fill="#DD8936"/>
<path d="M276.948 209.428C276.948 209.428 260.069 218.865 254.04 221.586C251.896 222.553 248.011 224.361 244.043 226.215C241.646 227.333 239.221 228.472 237.123 229.46C233.579 231.125 229.362 230.213 226.814 227.236C217.675 216.565 194.023 193.435 169.596 190.536L169.511 190.499C169.511 190.499 169.515 190.509 169.522 190.526C169.512 190.525 169.502 190.524 169.492 190.522L169.627 190.786C171 194.2 184.39 227.657 184.805 234.713C185.242 242.15 186.555 356.341 186.555 356.341C186.555 356.341 185.68 361.591 195.743 359.403C205.805 357.216 208.431 355.029 208.431 355.029C208.431 355.029 198.806 284.589 201.431 260.088C201.946 255.281 201.481 249.877 200.406 244.298C215.282 253.309 232.822 257.317 232.822 257.317C232.822 257.317 239.364 254.462 249.529 248.164C253.796 245.516 258.745 241.294 263.617 236.829C269.503 231.433 279.63 218.399 279.63 218.399L276.948 209.428Z" fill="#F1A34F"/>
<path d="M237.074 529.69L225.93 530.032C225.93 530.032 200.192 501.375 185.754 455.436C185.417 454.369 185.062 453.288 184.686 452.194C176.785 429.155 160.404 400.235 151.772 374.059C150.398 369.89 149.165 365.965 148.058 362.251C147.703 361.061 147.358 359.893 147.029 358.742L156.208 351.777C156.208 351.777 183.767 396.403 192.298 438.4C199.71 474.879 229.391 518.775 237.074 529.69Z" fill="#82B479"/>
<path d="M157.166 442.311C157.324 462.734 156.291 509.688 153.631 529.127H143.76C138.305 529.127 135.583 529.048 135.583 529.048C128.911 495.25 124.164 467.284 120.708 443.186C117.873 423.411 115.353 406.457 113.415 391.862C111.464 377.174 110.107 364.876 109.622 354.485C109.547 352.849 109.491 351.256 109.46 349.712C109.429 348.159 109.421 346.65 109.434 345.184L163.291 339.934C162.613 375.717 157.078 430.441 157.166 442.311Z" fill="#A8D2A0"/>
<path d="M143.761 529.127C138.305 529.127 135.584 529.048 135.584 529.048C128.912 495.25 124.165 467.284 120.709 443.186C117.874 423.411 115.354 406.457 113.415 391.862C111.464 377.174 110.108 364.876 109.623 354.485L129.385 366.109C129.385 366.109 116.771 370.559 121.584 404.248C126.396 437.935 137.063 524.357 143.761 529.127Z" fill="#82B479"/>
<path d="M146.304 354.153C146.304 354.153 142.511 367.86 129.386 366.11C116.26 364.36 97.5962 356.484 97.5962 356.484C97.5962 356.484 103.205 338.761 110.179 315.476C118.623 287.287 129.075 250.947 134.001 228.027C135.384 221.604 136.329 216.24 136.679 212.398L147.794 191.262C147.794 191.262 163.805 227.711 164.679 236.899C165.555 246.087 146.304 354.153 146.304 354.153Z" fill="#F1A34F"/>
<path d="M179.324 309.465L148.118 304.952C143.653 304.307 140.556 300.163 141.202 295.697L150.402 232.074C151.048 227.609 155.192 224.512 159.658 225.158L190.864 229.671C195.329 230.317 198.426 234.46 197.78 238.926L188.58 302.548C187.934 307.014 183.79 310.111 179.324 309.465Z" fill="#80BDCC"/>
<path d="M182.191 276.908C185.729 274.288 189.487 273.848 192.676 274.226L194.236 263.438L185.94 268.78L143.803 277.714L141.739 291.989C151.839 289.052 175.549 281.829 182.191 276.908Z" fill="#5F9AA8"/>
<path d="M195.609 255.717C192.001 253.751 188.533 254.763 184.994 258.025C183.171 259.706 182.191 261.143 180.91 262.438C174.618 262.775 159.632 263.591 147.042 264.388L146.003 280.902C156.346 279.614 169.056 276.99 183.683 271.983C184.807 271.791 186.166 271.036 187.971 269.652C192.491 266.189 196.371 266.804 197.396 265.348C198.728 263.455 200.676 258.477 195.609 255.717Z" fill="#FFB27D"/>
<path d="M145.722 256.151C145.136 271.026 141.636 299.902 110.428 315.359C110.345 315.398 110.262 315.442 110.179 315.477C118.623 287.288 129.075 250.948 134.001 228.027C139.733 236.594 146.042 247.96 145.722 256.151Z" fill="#DD8936"/>
<path d="M147.794 191.262C147.794 191.262 121.099 193.155 114.682 207.447C108.265 221.739 106.223 269.282 114.39 283.282C114.39 283.282 125.634 286.485 145.521 282.766C145.765 282.72 146.01 282.674 146.256 282.626C146.256 282.626 152.6 267.094 146.912 264.031C146.912 264.031 130.14 264.906 131.891 259.364C133.641 253.823 147.794 191.262 147.794 191.262Z" fill="#F1A34F"/>
<path d="M295.045 198.211C280.682 196.365 277.058 209.429 277.058 209.429L279.739 218.401C284.166 219.012 288.04 217.859 291.609 212.751C295.178 207.644 296.161 209.605 298.43 205.804C301.509 200.647 296.693 198.727 295.045 198.211Z" fill="#FFB27D"/>
<path d="M254.04 221.586C251.896 222.553 248.011 224.361 244.042 226.215C246.166 229.986 248.823 236.839 249.529 248.164C253.796 245.516 259.321 241.107 264.037 236.478C271.604 229.051 279.63 218.399 279.63 218.399L276.948 209.428C276.948 209.428 260.068 218.866 254.04 221.586Z" fill="#FFB27D"/>
<path d="M930.52 346.76C894.461 351.52 911.619 393.33 856.595 451.668C816.812 493.848 729.541 416.797 684.851 460.114C646.009 497.762 699.142 570.79 699.142 570.79H933.446C1043.45 491.118 960.582 342.792 930.52 346.76Z" fill="#A8D29F"/>
<path d="M656.304 518.053C655.368 519.545 653.991 520.113 652.309 520.022C652.302 520.023 652.292 520.022 652.285 520.017C649.175 519.846 645.034 517.437 640.734 514.485C640.182 514.108 639.684 513.776 639.23 513.492C639.11 513.418 638.991 513.343 638.873 513.274C638.78 513.217 638.686 513.163 638.597 513.108C634.156 510.485 633.801 512.082 625.044 507.604C615.064 502.495 613.382 497.416 613.649 495.747C613.879 494.334 618.738 495.601 624.187 496.987C624.45 497.054 624.715 497.118 624.981 497.188C625.706 497.373 626.44 497.553 627.167 497.734C633.699 499.314 636.053 497.694 644.084 494.434C650.61 491.786 678.454 472.69 678.454 472.69L685.203 486.206C685.203 486.206 661.969 497.884 659.616 503.752C658.365 506.887 659.192 509.726 658.432 512.607C658.38 512.809 658.325 513.011 658.265 513.209C657.765 514.866 657.243 516.558 656.304 518.053Z" fill="#E49963"/>
<path d="M656.304 518.053C655.368 519.545 653.991 520.113 652.309 520.022C652.302 520.023 652.292 520.022 652.285 520.017C649.109 519.618 645.009 517.288 640.759 514.462C640.202 514.094 639.697 513.772 639.23 513.492C639.11 513.417 638.991 513.343 638.873 513.274C638.78 513.216 638.686 513.162 638.597 513.107C634.156 510.484 633.801 512.082 625.044 507.603C615.064 502.495 613.382 497.416 613.649 495.747C613.879 494.333 618.738 495.601 624.187 496.986C625.154 498.275 629.912 504.178 637.951 507.304C645.016 510.062 653.259 510.838 658.431 512.607C658.38 512.809 658.324 513.011 658.264 513.209C657.765 514.866 657.243 516.558 656.304 518.053Z" fill="#1C468A"/>
<path d="M679.77 565.257C679.098 569.895 672.516 569.48 665.113 568.086C657.709 566.693 659.56 568.723 649.097 568.13C638.635 567.536 635.276 563.827 634.876 562.298C634.518 560.94 639.632 560.181 645.11 559.25C645.799 559.135 646.49 559.012 647.182 558.889C653.364 557.774 657.706 553.514 663.183 549.912C668.37 546.501 675.678 533.343 675.678 533.343L690.002 533.708C690.002 533.708 683.127 545.478 680.498 550.576C678.95 553.575 679.247 557.414 679.619 560.372C679.816 561.979 680.009 563.623 679.77 565.257Z" fill="#E49963"/>
<path d="M665.227 568.621C657.782 567.469 659.698 569.437 649.222 569.185C638.745 568.932 635.245 563.592 634.796 562.077C634.395 560.733 637.377 560.365 642.821 559.256L644.985 558.8C644.985 558.8 651.612 564.416 660.268 563.877C667.323 563.44 674.606 560.78 679.475 560.439C679.724 562.039 679.971 563.676 679.785 565.317C679.264 569.973 672.672 569.773 665.227 568.621Z" fill="#1C468A"/>
<path d="M707.54 351.572C707.54 351.572 704.137 343.233 700.394 342.893C696.65 342.553 684.738 340.681 683.887 342.383C683.037 344.084 683.887 350.21 686.44 352.422C688.992 354.634 704.818 358.208 704.818 358.208L707.54 351.572Z" fill="#E49963"/>
<path d="M733.836 426.505L663.382 479.872C663.382 479.872 664.307 484.532 666.865 488.497C669.22 492.145 673.622 495.813 673.622 495.813C673.622 495.813 747.591 465.563 759.398 447.386C771.204 429.209 733.836 426.505 733.836 426.505Z" fill="#AA413E"/>
<path d="M849.334 431.125C849.334 431.125 759.399 405.997 740.04 413.408C720.68 420.819 667.845 541.675 667.845 541.675C667.845 541.675 669.274 543.379 672.991 544.55C676.45 545.639 684.649 545.117 684.649 545.117C684.649 545.117 735.575 496.499 741.214 482.813C746.852 469.126 748.713 456.281 755.135 457.211C761.559 458.141 838.784 483.951 854.987 465.237C871.191 446.523 865.463 423.645 865.463 423.645L849.334 431.125Z" fill="#E15154"/>
<path d="M798.204 297.371C796.792 294.454 795.212 289.274 794.439 280.039C794.558 280.956 796.15 292.603 800.629 299.196C819.025 311.274 854.287 351.604 853.59 359.246C853.59 359.246 866.01 338.181 866.224 338.054C866.224 338.054 889.135 308.92 861.981 292.232C848.18 283.749 848.25 272.864 848.827 263.408C849.408 253.95 845.062 213.244 817.417 223.897C817.417 223.897 812.98 221.925 810.993 222.221C810.993 222.221 812.616 222.531 813.441 223.383C810.236 223.194 805.654 223.431 801.831 225.605C791.695 231.363 782.626 283.033 798.204 297.371Z" fill="#E15154"/>
<path d="M801.718 299.797C801.625 299.838 810.6 304.498 817.351 302.652C823.701 300.921 827.85 292.687 827.762 292.669C825.073 292.134 824.298 288.439 824.355 272.559L823.139 272.799L802.699 276.846C802.699 276.846 803.164 283.279 803.178 289.339C803.191 294.428 802.882 299.254 801.718 299.797Z" fill="#E49963"/>
<path d="M802.699 276.847C802.699 276.847 803.164 283.279 803.178 289.339C814.616 289.017 820.663 278.583 823.14 272.799L802.699 276.847Z" fill="#D68D5D"/>
<path d="M825.25 270.574C825.25 270.574 831.244 261.102 832.683 253.004C833.71 247.222 830.765 225.79 809.228 228.877C809.228 228.877 802.973 229.493 797.094 233.464C792.418 236.622 785.669 243.441 793.214 262.142L795.174 268.46L825.25 270.574Z" fill="#E15154"/>
<path d="M798.879 282.585C798.879 282.585 825.941 283.032 825.96 266.174C825.979 249.316 829.485 238.02 812.206 237.023C794.927 236.025 791.563 242.454 790.189 248.079C788.814 253.705 791.84 282.034 798.879 282.585Z" fill="#E49963"/>
<path d="M824.434 240.164C824.434 240.164 805.95 227.526 800.102 236.265C798.329 234.744 795.171 233.644 790.994 238.706C784.72 246.31 790.303 259.752 790.303 259.752C792.879 260.053 793.485 251.216 794.835 246.923C795.852 243.685 799.248 240.379 800.857 238.949C803.218 244.272 809.712 257.009 818.662 259.311C830.034 262.235 834.966 259.188 834.966 259.188C834.966 259.188 826.244 252.26 824.434 240.164Z" fill="#E15154"/>
<path d="M873.013 436.986C871.553 441.038 867.077 442.082 861.077 441.377C849.639 440.041 832.646 432.361 820.401 427.049C801.733 418.958 793.247 426.561 787.307 421.41C781.367 416.26 794.095 404.808 783.064 351.632C779.322 333.599 803.017 294.91 803.017 294.91C803.017 294.91 804.657 305.392 827.762 292.668C827.879 292.605 837.491 305.414 846.091 321.711C855.57 339.692 864.65 361.412 861.981 372.604C856.89 393.942 877.256 425.212 873.013 436.986Z" fill="#699DEE"/>
<path d="M803.017 294.909L789.046 352.302C789.046 352.302 787.307 355.399 784.579 359.808C778.176 370.16 766.325 387.747 758.739 389.533C754.997 390.416 747.038 387.301 738.229 382.851C721.577 374.437 701.885 361.25 701.885 361.25C700.612 353.613 707.256 347.389 707.256 347.389C707.256 347.389 747.139 362.379 751.102 362.663C759.737 363.278 768.523 321.604 776.593 307.718C782.427 297.675 803.017 294.909 803.017 294.909Z" fill="#699DEE"/>
<path d="M804.895 272.366C804.895 272.366 804.391 274.507 799.063 274.177C799.063 274.177 794.59 273.9 794.727 271.547C794.727 271.547 799.064 269.873 804.895 272.366Z" fill="white"/>
<path d="M873.012 436.986C871.553 441.038 867.077 442.082 861.077 441.377C853.16 437.928 818.958 424.677 819.34 415.699C819.909 402.406 825.917 401.982 821.674 385.575C818.267 372.401 849.869 347.905 854.91 342.581C864.388 360.562 864.65 361.412 861.981 372.604C856.889 393.942 877.256 425.212 873.012 436.986Z" fill="#4A75CB"/>
<path d="M784.578 359.808C778.175 370.161 766.325 387.747 758.739 389.533C754.997 390.416 747.037 387.301 738.229 382.851C744.657 384.51 750.902 384.463 756.97 383.877C763.546 383.241 765.456 375.18 775.851 363.088C782.593 355.247 784.247 357.22 784.578 359.808Z" fill="#4A75CB"/>
<path d="M816.264 385.257C816.264 385.257 810.536 380.801 805.126 381.863C799.717 382.923 797.065 386.636 797.277 388.333C797.489 390.03 800.354 394.804 804.49 395.228C808.627 395.652 820.401 392.682 820.401 392.682L816.264 385.257Z" fill="#E49963"/>
<path d="M827.762 292.669C827.762 292.669 849.82 294.027 857.455 304.677C868.204 319.668 894.001 386.352 881.781 394.874C868.019 404.469 814.673 394.591 814.673 394.591C814.673 394.591 813.047 386.989 815.31 383.312C817.572 379.635 854.344 373.695 856.041 371.997C857.739 370.3 834.827 338.903 834.827 333.811C834.827 328.72 827.762 292.669 827.762 292.669Z" fill="#699DEE"/>
<path d="M810.507 415.221H729.263L714.617 364.146H795.735L810.507 415.221Z" fill="#1C468A"/>
<path d="M728.729 413.231H835.754V415.221H729.264L728.729 413.231Z" fill="#163560"/>
<path d="M755.062 388.854C754.547 387.058 755.585 385.603 757.38 385.603C759.176 385.603 761.049 387.059 761.564 388.854C762.078 390.649 761.04 392.104 759.245 392.104C757.449 392.104 755.577 390.649 755.062 388.854Z" fill="white"/>
<path d="M989.145 572H74.9167C74.2255 572 73.6597 571.434 73.6597 570.743C73.6597 570.052 74.2255 569.486 74.9167 569.486H989.145C989.837 569.486 990.402 570.052 990.402 570.743C990.402 571.434 989.837 572 989.145 572Z" fill="#202F4E"/>
</svg>
