<svg width="1213" height="647" viewBox="0 0 1213 647" fill="none" xmlns="http://www.w3.org/2000/svg">
<path d="M140.178 644.349C140.178 644.349 -25.6171 468.151 90.6396 303.791C134.02 242.461 244.77 208.021 346.576 235.961C406.71 252.464 497.909 250.029 587.019 104.562C708.541 -93.814 1213 -3.6115 1114.53 343.955C1073.06 490.358 1227.65 497.022 1151.07 644.662L140.178 644.349Z" fill="#EBF3FA"/>
<path d="M1037.76 291.379L676.628 593.501L486.62 431.635C451.057 462.952 396.134 511.289 340.88 559.794C303.12 592.944 272.549 619.729 247.77 641.405L75.1914 641.205C123.049 600.459 315.744 431.129 445.561 316.692L485.255 281.704L677.33 445.332L959.254 209.475L1037.76 291.379Z" fill="#D5E5FB"/>
<path d="M913.537 172.32L1085.53 344.84L1134.12 147.76L913.537 172.32Z" fill="#D5E5FB"/>
<path d="M349.704 535.832C349.062 520.035 347.677 506.293 346.019 496.71C343.378 481.434 340.999 472.645 340.972 472.552C340.624 471.208 335.597 465.773 324.419 465.94C313.242 466.108 314.302 473.237 314.302 473.237C314.301 473.477 314.332 473.702 314.381 473.87C314.489 474.238 324.75 511.44 324.305 559.473C324.299 560.148 324.223 561.313 324.271 562.089C324.271 562.093 350.173 562.758 350.18 562.089C351.084 557.892 350.643 546.259 349.704 535.832Z" fill="#B7D3F3"/>
<path d="M352.96 559.237C352.952 559.906 352.599 560.442 352.168 560.442H352.158C351.727 560.432 351.384 559.896 351.379 559.237H329.181C329.173 559.906 328.82 560.442 328.389 560.442H328.379C327.94 560.432 327.592 559.878 327.597 559.201C327.726 545.452 326.942 532.612 325.755 521.28C322.804 493.02 317.349 474.132 317.272 473.871C317.222 473.702 317.192 473.478 317.192 473.237C317.192 473.237 316.131 466.109 327.308 465.94C338.487 465.772 343.514 471.209 343.863 472.552C343.883 472.623 345.23 477.6 347.02 486.547C347.613 489.511 348.253 492.91 348.911 496.709C350.566 506.292 351.952 520.035 352.594 535.83C353.533 546.259 353.863 555.04 352.96 559.237Z" fill="#D2E3FC"/>
<path d="M325.957 560.443H412.985C412.985 560.443 410.959 552.241 360.557 553.462C324.889 554.327 325.957 560.443 325.957 560.443Z" fill="#C5DCF8"/>
<path d="M318.874 646.107C328.964 595.024 326.369 563.679 326.357 563.284C326.331 562.497 327.781 561.783 328.56 561.758C329.35 561.744 332.832 561.525 333.235 562.199C333.763 563.08 335.795 601.701 320.757 646.107H318.874Z" fill="#B7D3F3"/>
<path d="M400.131 646.107C390.04 595.024 392.635 563.679 392.648 563.284C392.673 562.497 391.224 561.783 390.444 561.758C389.654 561.744 386.172 561.525 385.769 562.199C385.241 563.08 383.209 601.701 398.248 646.107H400.131Z" fill="#B7D3F3"/>
<path d="M416.234 646.107C406.143 595.024 408.738 563.679 408.751 563.284C408.776 562.497 407.327 561.783 406.547 561.758C405.757 561.744 402.275 561.525 401.872 562.199C401.344 563.08 399.312 601.701 414.351 646.107H416.234Z" fill="#B7D3F3"/>
<path d="M335.085 646.107C345.176 595.024 342.581 563.679 342.568 563.284C342.543 562.497 343.993 561.783 344.772 561.758C345.562 561.744 349.044 561.525 349.447 562.199C349.975 563.08 352.007 601.701 336.968 646.107H335.085Z" fill="#B7D3F3"/>
<path d="M413.037 563.06H326.009C325.028 563.06 324.226 562.258 324.226 561.277V560.105C324.226 559.124 325.028 558.322 326.009 558.322H413.037C414.017 558.322 414.82 559.124 414.82 560.105V561.277C414.82 562.258 414.017 563.06 413.037 563.06Z" fill="#B7D3F3"/>
<path d="M409.98 484.465L438.909 478.2L440.612 482.353C440.612 482.353 408.692 501.346 405.702 500.416C402.711 499.486 409.98 484.465 409.98 484.465Z" fill="#FFB27D"/>
<path d="M383.679 615.3C382.954 616.131 382.862 617.058 383.221 618.049C383.221 618.053 383.223 618.059 383.227 618.063C383.891 619.895 386.082 621.942 388.626 623.985C388.951 624.247 389.241 624.486 389.493 624.707C389.559 624.765 389.625 624.823 389.687 624.882C389.739 624.927 389.788 624.974 389.837 625.017C392.21 627.205 391.317 627.705 395.581 632.144C400.442 637.202 403.789 637.294 404.741 636.833C405.547 636.44 403.91 633.757 402.097 630.742C402.009 630.598 401.923 630.45 401.833 630.303C401.591 629.902 401.351 629.495 401.112 629.092C398.986 625.463 399.532 623.761 400.036 618.36C400.445 613.972 406.863 593.844 406.863 593.844L397.547 592.239C397.547 592.239 394.741 608.267 391.65 610.735C389.997 612.051 388.147 612.068 386.558 613.043C386.446 613.11 386.336 613.18 386.228 613.252C385.325 613.85 384.406 614.468 383.679 615.3Z" fill="#FFB27D"/>
<path d="M383.679 615.3C382.954 616.131 382.862 617.059 383.221 618.049C383.221 618.053 383.223 618.059 383.227 618.063C384.04 619.894 386.176 621.93 388.635 623.967C388.957 624.233 389.24 624.478 389.493 624.708C389.559 624.766 389.625 624.824 389.687 624.882C389.739 624.927 389.788 624.974 389.837 625.017C392.21 627.205 391.317 627.706 395.581 632.145C400.442 637.203 403.789 637.294 404.741 636.833C405.547 636.441 403.91 633.758 402.097 630.743C401.151 630.396 396.755 628.611 393.431 624.358C390.504 620.622 388.552 615.823 386.559 613.043C386.447 613.111 386.337 613.181 386.228 613.252C385.325 613.851 384.406 614.468 383.679 615.3Z" fill="#1C468A"/>
<path d="M458.797 609.482C459.372 612.358 463.471 611.878 468.051 610.758C472.63 609.64 471.542 610.97 478.059 610.248C484.577 609.527 486.551 607.097 486.75 606.128C486.928 605.268 483.707 604.965 480.253 604.567C479.819 604.518 479.382 604.464 478.946 604.411C475.046 603.922 472.19 601.404 468.647 599.338C465.292 597.38 460.284 589.404 460.284 589.404L451.346 590.112C451.346 590.112 456.037 597.236 457.851 600.333C458.918 602.155 458.861 604.564 458.728 606.424C458.659 607.435 458.593 608.469 458.797 609.482Z" fill="#FFB27D"/>
<path d="M468.051 610.759C472.63 609.64 471.542 610.97 478.059 610.249C484.577 609.527 486.551 607.097 486.75 606.128C486.928 605.268 483.707 604.965 480.253 604.567L480.221 604.634C480.221 604.634 476.312 607.405 470.887 607.535C466.465 607.643 461.781 606.376 458.728 606.425C458.659 607.436 458.593 608.47 458.796 609.483C459.373 612.358 463.471 611.878 468.051 610.759Z" fill="#1C468A"/>
<path d="M438.908 478.2C438.908 478.2 441.038 472.982 443.381 472.769C445.723 472.556 453.177 471.385 453.709 472.45C454.242 473.515 453.709 477.348 452.112 478.732C450.515 480.116 440.613 482.353 440.613 482.353L438.908 478.2Z" fill="#FFB27D"/>
<path d="M424.543 552.328L405.279 604.17C405.279 604.17 402.32 604.457 399.483 603.639C396.872 602.887 393.88 600.911 393.88 600.911C393.88 600.911 398.658 551.133 407.42 540.779C416.18 530.426 424.543 552.328 424.543 552.328Z" fill="#163560"/>
<path d="M348.349 531.354C348.349 531.354 403.702 512.638 416.047 516.62C428.392 520.603 465.457 594.347 465.457 594.347C465.457 594.347 464.622 595.459 462.338 596.316C460.214 597.112 455.073 597.061 455.073 597.061C455.073 597.061 421.622 568.389 417.64 560.027C413.658 551.664 412.065 543.699 408.083 544.496C404.1 545.292 356.712 564.009 345.96 552.858C335.208 541.708 338.019 527.221 338.019 527.221L348.349 531.354Z" fill="#1C468A"/>
<path d="M379.907 399.376C377.514 398.016 374.647 397.867 372.641 397.986C373.158 397.453 374.174 397.259 374.174 397.259C372.93 397.074 370.154 398.307 370.154 398.307C352.855 391.641 350.135 417.113 350.499 423.031C350.86 428.948 350.904 435.76 342.268 441.067C325.276 451.51 339.613 469.741 339.613 469.741C339.747 469.82 347.519 483.002 347.519 483.002C347.082 478.219 369.147 452.983 380.659 445.425C383.461 441.3 384.457 434.011 384.532 433.437C384.048 439.217 383.059 442.458 382.176 444.283C391.924 435.312 386.249 402.979 379.907 399.376Z" fill="#B5453C"/>
<path d="M379.978 445.802C380.035 445.828 374.42 448.744 370.195 447.589C366.222 446.505 363.626 441.353 363.68 441.342C365.363 441.007 365.848 438.695 365.812 428.758L366.573 428.908L379.364 431.44C379.364 431.44 379.073 435.466 379.065 439.258C379.055 442.442 379.248 445.462 379.978 445.802Z" fill="#FFB27D"/>
<path d="M379.364 431.44C379.364 431.44 379.073 435.466 379.064 439.258C371.907 439.056 368.124 432.527 366.574 428.908L379.364 431.44Z" fill="#ED975D"/>
<path d="M365.252 427.515C365.252 427.515 361.501 421.588 360.601 416.521C359.958 412.903 361.801 399.492 375.277 401.423C375.277 401.423 379.192 401.809 382.871 404.294C385.797 406.27 390.02 410.536 385.298 422.239L384.072 426.193L365.252 427.515Z" fill="#B5453C"/>
<path d="M381.754 435.032C381.754 435.032 364.82 435.311 364.808 424.762C364.797 414.214 362.603 407.145 373.415 406.521C384.226 405.897 386.331 409.919 387.192 413.439C388.052 416.959 386.159 434.687 381.754 435.032Z" fill="#FFB27D"/>
<path d="M381.127 406.263C381.127 406.263 376.491 418.638 369.375 420.468C362.259 422.298 359.173 420.392 359.173 420.392C359.173 420.392 364.631 416.056 365.764 408.487C365.764 408.487 377.63 400.372 381.127 406.263Z" fill="#B5453C"/>
<path d="M379.979 407.267C379.979 407.267 383.441 410.03 384.285 412.716C385.13 415.402 385.509 420.932 387.121 420.744C387.121 420.744 390.615 412.332 386.689 407.574C382.525 402.528 379.979 407.267 379.979 407.267Z" fill="#B5453C"/>
<path d="M342.268 491.361C340.598 484.357 346.28 470.766 352.211 459.514C357.592 449.317 363.178 441.044 363.68 441.341C377.873 449.765 379.156 442.762 379.156 442.762L379.157 442.763C379.162 442.764 392.05 444.474 395.7 450.758C400.228 458.555 405.12 480.342 409.979 484.466C409.233 486.749 409.553 487.966 410.344 490.795C410.514 491.402 410.7 491.979 410.906 492.525C411.639 494.516 412.555 496.131 413.346 497.534C410.876 499.035 406.106 501.889 402.591 499.837C397.234 496.701 393.054 487.156 390.701 483.355C390.692 483.341 390.684 483.326 390.675 483.312C385.562 512.257 392.515 518.849 388.995 521.901C385.278 525.124 379.967 520.367 368.286 525.429C360.623 528.754 349.991 533.559 342.833 534.395C339.079 534.836 336.278 534.183 335.364 531.647C332.71 524.279 345.454 504.712 342.268 491.361Z" fill="#1C468A"/>
<path d="M377.989 428.637C377.989 428.637 378.305 429.977 381.639 429.77C381.639 429.77 384.438 429.598 384.352 428.124C384.352 428.124 381.638 427.077 377.989 428.637Z" fill="white"/>
<path d="M335.365 531.646C336.279 534.182 339.08 534.835 342.834 534.394C347.788 532.236 369.19 523.944 368.95 518.326C368.595 510.008 364.835 509.743 367.49 499.476C369.622 491.233 349.847 475.905 346.693 472.573C340.762 483.824 340.598 484.356 342.268 491.36C345.454 504.712 332.71 524.279 335.365 531.646Z" fill="#163560"/>
<path d="M332.946 501.646C336.741 496.316 340.696 493.498 343.297 492.082C342.698 490.539 359.261 470.233 359.261 467.087C359.261 463.901 363.68 441.34 363.68 441.34C363.68 441.34 349.88 442.192 345.101 448.856C339.125 457.19 326.714 489.263 332.946 501.646Z" fill="#1C468A"/>
<path d="M343.296 492.082L370.876 499.277L368.287 503.924C368.287 503.924 334.725 503.689 332.946 501.646C331.167 499.603 343.296 492.082 343.296 492.082Z" fill="#FFB27D"/>
<path d="M390.701 483.354C393.054 487.155 397.234 496.701 402.592 499.836C406.106 501.889 410.876 499.034 413.346 497.533C412.556 496.13 411.639 494.515 410.907 492.524C408.936 492.975 406.53 493.551 404.979 494.019C401.96 494.932 390.701 483.354 390.701 483.354Z" fill="#163560"/>
<path d="M370.875 499.277C370.875 499.277 379.535 496.826 381.598 497.399C383.661 497.973 390.729 502.652 389.736 503.924C388.742 505.195 382.515 503.163 379.65 503.548C376.785 503.932 374.569 505.346 372.506 505.04C370.443 504.735 368.286 503.924 368.286 503.924L370.875 499.277Z" fill="#FFB27D"/>
<path d="M370.875 499.278C370.875 499.278 375.113 497.101 376.318 495.862C376.47 495.706 376.727 495.738 376.844 495.923C377.167 496.432 377.469 497.416 375.983 498.394C373.844 499.801 370.875 499.278 370.875 499.278Z" fill="#FFB27D"/>
<path d="M410.899 511.462H370.493C370.493 509.683 371.935 508.241 373.714 508.241H410.899V511.462Z" fill="#CE3E50"/>
<path d="M410.783 467.457H473.253L458.269 511.463H395.393L410.783 467.457Z" fill="#CE3E50"/>
<path d="M474.174 467.457L459.188 511.461H396.314L411.703 467.457H474.174Z" fill="#F99746"/>
<path d="M440.493 489.053C440.105 490.734 438.427 492.097 436.746 492.097C435.065 492.097 434.016 490.734 434.405 489.053C434.793 487.371 436.47 486.008 438.152 486.008C439.833 486.008 440.881 487.371 440.493 489.053Z" fill="#F9DDBF"/>
<path d="M474.174 467.457L459.188 511.461H417.55C445.132 502.047 452.474 473.342 453.706 467.457H474.174Z" fill="#ED893E"/>
<path d="M292.814 646.107C293.604 646.107 294.28 645.552 294.415 644.794L302.261 600.322L313.546 536.361L316.702 518.476L308.664 518.246L307.269 528.629L297.476 601.593L291.671 644.841C291.582 645.512 292.118 646.107 292.814 646.107Z" fill="#95C0F4"/>
<path d="M307.27 528.629C312.478 530.927 313.547 536.361 313.547 536.361L316.703 518.476L308.664 518.246L307.27 528.629Z" fill="#78ACEA"/>
<path d="M492.751 646.107C491.961 646.107 491.285 645.552 491.15 644.794L483.304 600.322L472.018 536.361L468.863 518.476L476.901 518.246L478.296 528.629L488.088 601.593L493.894 644.841C493.983 645.512 493.447 646.107 492.751 646.107Z" fill="#95C0F4"/>
<path d="M478.296 528.629C473.088 530.927 472.018 536.361 472.018 536.361L468.863 518.476L476.901 518.246L478.296 528.629Z" fill="#78ACEA"/>
<path d="M287.451 525.497H493.299C495.995 525.497 498.202 523.29 498.202 520.594V516.356C498.202 513.66 495.995 511.453 493.299 511.453H287.451C284.754 511.453 282.548 513.66 282.548 516.356V520.594C282.548 523.291 284.755 525.497 287.451 525.497Z" fill="#78ACEA"/>
<path d="M1211.63 645.683H1.37451C0.618687 645.683 0 645.065 0 644.309V643.84C0 643.085 0.618687 642.466 1.37451 642.466H1211.63C1212.38 642.466 1213 643.085 1213 643.84V644.309C1213 645.065 1212.38 645.683 1211.63 645.683Z" fill="#2E3552"/>
<path d="M798.75 503.969C798.75 503.969 793.409 510.594 795.079 511.496C796.749 512.399 801.16 514.088 802.2 513.023C803.24 511.959 803.566 504.153 803.566 504.153L798.75 503.969Z" fill="#FFB27D"/>
<path d="M798.967 504.079C798.967 504.079 796.784 504.836 795.925 505.972C795.066 507.107 793.167 508.839 793.632 509.319C794.098 509.8 796.825 507.679 796.825 507.679L798.967 504.079Z" fill="#FFB27D"/>
<path d="M818.936 415.532C818.936 415.532 812.917 471.561 812.381 473.158C812.264 473.505 811.793 475.278 811.128 477.83C810.181 481.475 808.842 486.712 807.572 491.691C805.657 499.213 803.899 506.156 803.899 506.156L798.674 504.435C798.674 504.435 798.404 477.206 799.746 470.937C801.093 464.664 805.391 426.143 807.564 420.958C809.733 415.773 818.936 415.532 818.936 415.532Z" fill="#AEC3FF"/>
<path d="M806.421 549.892L773.595 541.283C769.323 540.163 766.744 535.751 767.864 531.478L771.595 517.253C772.716 512.981 777.128 510.402 781.4 511.522L814.226 520.131C818.498 521.252 821.077 525.664 819.956 529.936L816.226 544.161C815.105 548.434 810.693 551.012 806.421 549.892Z" fill="#A02E2E"/>
<path d="M775.925 518.378L772.151 532.768C771.422 535.554 772.256 538.399 774.107 540.358C774.72 541.008 775.445 541.562 776.264 541.981C776.266 541.982 776.266 541.982 776.268 541.983L776.27 541.984C776.779 542.247 777.325 542.46 777.904 542.611L810.671 551.202C814.96 552.327 819.387 549.74 820.512 545.451L824.287 531.061C825.41 526.772 822.822 522.344 818.534 521.219L807.251 518.261L808.057 515.192C808.43 513.773 807.576 512.317 806.159 511.945L804.922 511.62L798.059 509.82L796.353 509.373C795.67 509.193 794.951 509.293 794.337 509.65C793.722 510.01 793.285 510.586 793.106 511.27L792.301 514.34L785.765 512.625C785.506 512.557 785.249 512.504 784.991 512.462C784.989 512.464 784.987 512.463 784.985 512.462L784.983 512.461C782.356 512.043 779.754 512.973 777.968 514.785L777.967 514.787C777.014 515.756 776.293 516.975 775.925 518.378ZM805.64 517.837L793.914 514.763L794.72 511.694C794.858 511.166 795.402 510.847 795.932 510.986L798.876 511.758L804.278 513.174L805.736 513.557C805.836 513.584 805.926 513.624 806.01 513.676C806.368 513.9 806.557 514.34 806.445 514.77L805.64 517.837Z" fill="#BC3F3F"/>
<path d="M801.87 513.17C801.87 513.17 803.328 510.715 802.782 509.858C802.236 509.001 800.268 512.403 800.268 512.403C800.268 512.403 801.611 509.483 801.11 509.001C800.61 508.519 798.551 511.878 798.551 511.878C798.551 511.878 799.832 509.04 799.383 508.944C798.933 508.847 797.406 511.33 797.406 511.33C797.406 511.33 798.199 509.204 797.475 509.306C796.751 509.409 795.181 511.347 795.181 511.347L801.87 513.17Z" fill="#FFB27D"/>
<path d="M811.128 477.83C810.181 481.475 808.842 486.712 807.572 491.691C806.753 489.389 805.713 485.724 805.056 480.701C803.846 471.428 807.564 451.674 807.564 451.674L811.128 477.83Z" fill="#9DB0F4"/>
<path d="M879.982 501.665C879.982 501.665 885.801 506.392 886.521 507.868C887.24 509.345 889.049 514.813 888.953 516.574C888.857 518.336 884.494 512.541 883.212 512.074C881.931 511.606 884.552 514.452 884.257 515.063C883.962 515.675 881.232 513.68 880.191 513.028C879.149 512.375 878.418 507.954 876.866 505.548C875.314 503.143 879.982 501.665 879.982 501.665Z" fill="#FFB27D"/>
<path d="M803.619 643.215H832.634C834.713 641.805 832.073 628.022 832.073 628.022C832.073 628.022 824.154 625.017 822.787 631.127C821.415 637.233 812.7 639.175 808.088 639.92C804.932 640.433 803.934 642.167 803.619 643.215Z" fill="#233862"/>
<path d="M846.65 643.215H875.666C877.744 641.805 875.105 628.022 875.105 628.022C875.105 628.022 867.186 625.017 865.818 631.127C864.446 637.233 855.732 639.175 851.119 639.92C847.963 640.433 846.966 642.167 846.65 643.215Z" fill="#233862"/>
<path d="M811.425 502.604C811.425 502.604 812.729 518.875 814.263 538.434C816.346 565.003 821.965 630.876 821.965 630.876C821.965 630.876 825.649 634.02 833.808 632.3C833.808 632.3 840.754 609.574 842.831 583.637C842.863 583.212 842.896 582.783 842.927 582.355C844.86 555.951 847.864 500.349 847.864 500.349L811.425 502.604Z" fill="#2B478B"/>
<path d="M810.98 496.982C810.98 496.982 812.729 518.875 814.262 538.434L842.831 583.638C842.863 583.213 842.895 582.784 842.927 582.356C844.859 555.952 847.864 500.35 847.864 500.35L810.98 496.982Z" fill="#233862"/>
<path d="M819.307 496.982C819.307 496.982 840.027 548.557 846.651 568.108C851.369 582.034 864.675 630.887 864.675 630.887C864.675 630.887 870.462 632.648 875.325 629.244C875.325 629.244 880.275 579.332 870.275 565.259C864.97 557.792 868.957 487.642 847.447 487.041C825.935 486.44 819.307 496.982 819.307 496.982Z" fill="#2B478B"/>
<path d="M858.792 501.664C850.152 506.538 813.14 506.43 811.426 502.604C807.596 494.061 806.637 450.65 808.443 437.334C808.443 437.334 809.378 416.87 811.426 417.774C825.097 411.493 847.226 417.197 847.226 417.197C853.193 418.955 852.681 432.589 854.346 451.735C854.559 454.202 854.797 456.774 855.063 459.431C856.24 471.255 857.954 484.837 860.558 499.165C860.731 500.108 860.074 500.942 858.792 501.664Z" fill="#AEC3FF"/>
<path d="M837.002 414.894C836.772 418.555 831.999 418.14 826.258 416.829C820.521 415.523 822.597 412.137 822.597 412.137C822.597 412.137 822.682 409.537 823.045 406.42C823.178 405.287 823.343 404.082 823.561 402.913C823.662 402.341 823.775 401.776 823.904 401.232C824.653 398.011 835.369 401.119 835.293 401.986C835.083 404.323 836.776 412.02 837.002 414.894Z" fill="#FFB27D"/>
<path d="M824.698 421.282L824.245 416.226L830.599 417.424L828.154 421.939L824.698 421.282Z" fill="#233862"/>
<path d="M822.733 409.757L818.937 415.531C818.937 415.531 818.937 419.083 822.231 421.66L827.423 416.826C827.423 416.826 824.066 415.545 822.733 409.757Z" fill="#9DB0F4"/>
<path d="M827.422 416.826C827.422 416.826 828.499 420.686 830.577 422.458C830.577 422.458 838.683 420.279 840.615 416.126L836.393 410.675C836.393 410.675 836.189 414.798 827.422 416.826Z" fill="#9DB0F4"/>
<path d="M835.352 403.804C835.352 403.804 830.192 407.234 823.044 406.42C823.177 405.288 823.343 404.082 823.56 402.913C824.971 402.571 826.153 402.357 826.153 402.357L835.352 403.804Z" fill="#E2915A"/>
<path d="M838.627 399.906C836.106 406.847 826.903 405.075 822.984 403.961C821.88 403.648 821.197 403.388 821.197 403.388C819.986 402.839 819.611 400.725 819.717 398.055C819.926 392.772 822.012 385.313 823.209 383.516C825.011 380.811 828.015 378.061 836.943 381.891C845.873 385.722 841.861 391.013 838.627 399.906Z" fill="#FFB27D"/>
<path d="M845.522 396.342C842.704 398.64 836.651 402.893 836.651 402.893C836.651 402.893 837.325 402.097 838.148 399.803C838.242 399.542 838.271 399.161 838.258 398.757C838.224 397.632 838.496 396.509 839.086 395.551C839.455 394.952 839.588 394.331 839.122 393.891C838.357 393.167 837.05 393.832 836.195 394.418C835.631 394.804 834.888 394.827 834.307 394.466C834.303 394.463 834.3 394.461 834.296 394.459C831.889 392.951 834.546 390.294 832.591 388.089C830.632 385.884 822.166 385.581 822.504 384.199C819.613 382.566 821.436 376.539 821.488 376.22C821.488 376.22 825.637 376.587 830.817 375.294C835.022 374.237 839.658 376.939 841.126 378.051C841.126 377.785 841.081 377.414 840.892 377.023C840.892 377.023 841.529 377.652 841.517 378.386C841.582 378.451 841.609 378.495 841.589 378.507C841.589 378.507 842.428 378.491 842.916 378.814C842.916 378.814 842.557 378.701 842.388 378.914C842.368 378.939 842.343 378.955 842.315 378.971C847.942 382.945 847.86 394.431 845.522 396.342Z" fill="#233862"/>
<path d="M825.317 398.902C825.317 398.902 824.864 399.777 822.589 399.052C822.589 399.052 820.678 398.443 820.994 397.437C820.994 397.437 823.059 397.184 825.317 398.902Z" fill="white"/>
<path d="M824.698 421.282C824.698 421.282 819.629 485.345 819.701 490.682C819.771 496.02 825.317 501.664 825.317 501.664C825.317 501.664 829.737 496.826 830.6 491.719C831.463 486.613 828.155 421.939 828.155 421.939L824.698 421.282Z" fill="#2A4E96"/>
<path d="M847.227 417.199C847.227 417.199 855.411 419.158 861.88 431.586C868.35 444.014 873.461 469.081 876.549 475.697C879.638 482.314 881.756 503.148 881.756 503.148L876.866 505.548C876.866 505.548 865.058 484.194 863.311 477.191C862.365 473.403 847.928 443.073 847.928 443.073L847.227 417.199Z" fill="#AEC3FF"/>
<path d="M858.792 501.665C858.787 501.665 858.787 501.665 858.783 501.665C843.375 499.447 847.79 448.449 848.999 448.247C850.208 448.046 854.639 457.362 854.639 457.362L855.062 459.43C856.239 471.255 857.953 484.837 860.557 499.165C860.731 500.108 860.074 500.942 858.792 501.665Z" fill="#9DB0F4"/>
<path d="M1051.05 613.07C1051.05 613.07 1057.46 618.925 1056.21 623.086C1054.96 627.245 1049.17 630.019 1048.39 635.104C1047.6 640.188 1044.47 642.962 1041.66 642.962C1038.84 642.962 1028.23 642.962 1028.23 642.962C1028.23 642.962 1026.15 639.384 1031.16 638.306C1036.17 637.227 1038.06 631.252 1037.75 625.705C1037.43 620.158 1038.21 612.762 1038.21 612.762L1048.86 610.296L1051.05 613.07Z" fill="#233862"/>
<path d="M972.335 628.214C972.335 628.214 973.487 641.539 970.67 642.926L934.622 642.852C934.622 642.852 934.622 638.692 940.412 637.767C946.202 636.842 956.374 633.453 958.095 625.903C959.816 618.352 972.335 628.214 972.335 628.214Z" fill="#233862"/>
<path d="M941.901 439.985C941.901 439.985 943.803 463.343 946.038 491.419C949.075 529.559 952.727 576.408 953.089 585.283C953.713 600.694 956.22 625.346 956.22 625.346C956.22 625.346 962.163 631.203 974.059 628.734C974.059 628.734 984.659 593.544 987.687 556.31C987.734 555.7 987.781 555.085 987.828 554.47C990.645 516.566 995.024 436.749 995.024 436.749L941.901 439.985Z" fill="#2A4E96"/>
<path d="M941.901 439.986C941.901 439.986 943.803 463.343 946.038 491.42L987.687 556.31C987.734 555.7 987.781 555.085 987.828 554.47C990.645 516.566 995.024 436.749 995.024 436.749L941.901 439.986Z" fill="#233862"/>
<path d="M950.584 442.759C950.584 442.759 984.854 527.351 1007.39 567.104C1029.92 606.857 1036.96 617.951 1036.96 617.951C1036.96 617.951 1049.87 612.866 1051.05 609.4C1051.05 609.4 1042.43 532.654 1027.34 513.945C1018.81 503.374 1011.46 479.921 1011.83 468.823C1012.46 449.684 1005.27 427.505 1005.27 427.505L950.584 442.759Z" fill="#2A4E96"/>
<path d="M923.217 444.002C923.217 444.002 916.818 452.667 916.347 454.979C915.877 457.292 915.323 465.547 916.089 467.963C916.855 470.38 920.844 460.752 922.459 459.643C924.074 458.533 921.45 463.432 922.079 464.177C922.708 464.921 925.79 461.167 927.004 459.886C928.219 458.604 927.649 452.192 928.945 448.288C930.24 444.384 923.217 444.002 923.217 444.002Z" fill="#FFB27D"/>
<path d="M951.437 318.094C951.437 318.094 942.79 398.587 942.02 400.881C941.852 401.379 941.174 403.927 940.219 407.593C938.857 412.829 936.935 420.352 935.11 427.505C932.359 438.312 929.386 447.658 929.386 447.658C929.386 447.658 928.081 448.502 924.931 448.234C922.782 448.051 921.624 446.216 921.624 446.216C921.624 446.216 921.94 406.696 923.869 397.69C925.804 388.678 931.978 333.338 935.099 325.89C938.215 318.442 951.437 318.094 951.437 318.094Z" fill="white"/>
<path d="M940.219 407.593C938.858 412.829 936.935 420.352 935.111 427.505C933.935 424.198 932.441 418.933 931.496 411.716C929.759 398.396 935.099 370.016 935.099 370.016L940.219 407.593Z" fill="#DCEAFF"/>
<path d="M1008.69 441.834C996.281 448.836 943.108 448.68 940.647 443.184C935.144 430.911 933.766 368.546 936.361 349.416C936.361 349.416 937.705 320.017 940.647 321.314C960.286 312.291 992.077 320.486 992.077 320.486C1000.65 323.011 999.913 342.599 1002.31 370.104C1002.61 373.648 1002.95 377.343 1003.34 381.16C1005.03 398.147 1007.49 417.659 1011.23 438.243C1011.48 439.599 1010.54 440.797 1008.69 441.834Z" fill="white"/>
<path d="M977.39 317.179C977.06 322.438 970.203 321.842 961.955 319.96C953.713 318.083 956.696 313.218 956.696 313.218C956.696 313.218 956.818 309.482 957.339 305.005C957.53 303.378 957.768 301.646 958.08 299.967C958.225 299.145 958.387 298.334 958.572 297.552C959.65 292.924 975.044 297.389 974.934 298.635C974.633 301.994 977.065 313.05 977.39 317.179Z" fill="#FFB27D"/>
<path d="M959.714 326.356L959.064 319.092L968.193 320.814L964.68 327.3L959.714 326.356Z" fill="#233862"/>
<path d="M956.892 309.797L951.437 318.092C951.437 318.092 951.437 323.195 956.17 326.898L963.628 319.953C963.628 319.953 958.806 318.114 956.892 309.797Z" fill="#DCEAFF"/>
<path d="M963.627 319.953C963.627 319.953 965.175 325.499 968.16 328.045C968.16 328.045 979.806 324.914 982.58 318.948L976.515 311.118C976.515 311.118 976.222 317.04 963.627 319.953Z" fill="#DCEAFF"/>
<path d="M975.021 301.246C975.021 301.246 967.608 306.175 957.339 305.005C957.53 303.378 957.767 301.646 958.08 299.966C960.107 299.474 961.804 299.167 961.804 299.167L975.021 301.246Z" fill="#E2915A"/>
<path d="M979.725 295.646C976.102 305.618 962.881 303.072 957.251 301.471C955.666 301.023 954.684 300.648 954.684 300.648C952.944 299.859 952.405 296.822 952.558 292.987C952.858 285.397 955.856 274.681 957.575 272.099C960.164 268.214 964.48 264.264 977.305 269.765C990.133 275.268 984.371 282.87 979.725 295.646Z" fill="#FFB27D"/>
<path d="M989.63 290.526C985.582 293.827 976.885 299.937 976.885 299.937C976.885 299.937 977.854 298.794 979.036 295.498C979.171 295.123 979.213 294.576 979.195 293.995C979.146 292.379 979.535 290.765 980.384 289.389C980.914 288.529 981.106 287.636 980.435 287.004C979.337 285.963 977.46 286.919 976.23 287.761C975.419 288.317 974.354 288.349 973.519 287.831C973.513 287.827 973.509 287.824 973.503 287.821C970.046 285.654 973.862 281.838 971.053 278.669C968.238 275.502 956.076 275.067 956.563 273.081C952.409 270.735 955.027 262.076 955.103 261.619C955.103 261.619 961.062 262.146 968.505 260.287C974.545 258.769 981.206 262.65 983.314 264.248C983.314 263.866 983.25 263.333 982.979 262.772C982.979 262.772 983.893 263.675 983.876 264.729C983.969 264.822 984.009 264.885 983.98 264.903C983.98 264.903 985.185 264.879 985.886 265.343C985.886 265.343 985.37 265.18 985.127 265.488C985.098 265.522 985.064 265.545 985.023 265.569C993.108 271.28 992.989 287.781 989.63 290.526Z" fill="#BC3F3F"/>
<path d="M960.604 294.205C960.604 294.205 959.954 295.461 956.685 294.419C956.685 294.419 953.94 293.545 954.395 292.099C954.395 292.099 957.361 291.736 960.604 294.205Z" fill="white"/>
<path d="M959.714 326.356C959.714 326.356 952.433 418.389 952.535 426.058C952.636 433.725 960.604 441.834 960.604 441.834C960.604 441.834 966.953 434.884 968.193 427.548C969.432 420.211 964.68 327.3 964.68 327.3L959.714 326.356Z" fill="#2A4E96"/>
<path d="M1008.69 441.834C1008.69 441.834 1008.69 441.834 1008.68 441.834C986.546 438.649 992.888 365.384 994.626 365.094C996.363 364.805 1002.73 378.19 1002.73 378.19L1003.34 381.161C1005.03 398.148 1007.49 417.66 1011.23 438.244C1011.48 439.599 1010.54 440.798 1008.69 441.834Z" fill="#DCEAFF"/>
<path d="M1073.77 496.41L1026.96 510.032C1020.86 511.805 1014.43 508.271 1012.66 502.178L1006.75 481.892C1004.98 475.8 1008.51 469.365 1014.61 467.592L1061.42 453.97C1067.51 452.197 1073.95 455.731 1075.72 461.823L1081.62 482.109C1083.39 488.202 1079.86 494.637 1073.77 496.41Z" fill="#A02E2E"/>
<path d="M1012.92 480.084L1018.89 500.604C1020.05 504.576 1023.18 507.467 1026.91 508.514C1028.14 508.864 1029.44 509.011 1030.76 508.923C1030.77 508.923 1030.77 508.923 1030.77 508.923L1030.77 508.922C1031.59 508.871 1032.42 508.73 1033.25 508.489L1079.97 494.889C1086.09 493.11 1089.64 486.652 1087.86 480.537L1081.89 460.014C1080.1 453.9 1073.65 450.353 1067.53 452.132L1051.44 456.815L1050.17 452.437C1049.58 450.413 1047.46 449.249 1045.43 449.836L1043.67 450.349L1033.88 453.197L1031.45 453.906C1030.48 454.188 1029.66 454.841 1029.17 455.735C1028.68 456.632 1028.56 457.665 1028.85 458.641L1030.12 463.019L1020.8 465.729C1020.43 465.836 1020.08 465.962 1019.73 466.101C1019.73 466.104 1019.72 466.104 1019.72 466.105L1019.72 466.105C1016.17 467.529 1013.65 470.597 1012.79 474.148L1012.79 474.151C1012.33 476.048 1012.34 478.082 1012.92 480.084ZM1049.14 457.482L1032.42 462.35L1031.15 457.972C1030.93 457.219 1031.37 456.425 1032.12 456.205L1036.32 454.983L1044.02 452.739L1046.1 452.136C1046.24 452.095 1046.39 452.078 1046.53 452.081C1047.13 452.091 1047.69 452.494 1047.87 453.106L1049.14 457.482Z" fill="#BC3F3F"/>
<path d="M1035.12 444.38C1035.12 444.38 1033.67 456.518 1036.39 456.343C1039.11 456.169 1045.77 454.863 1046.22 452.774C1046.68 450.684 1041.12 440.932 1041.12 440.932L1035.12 444.38Z" fill="#FFB27D"/>
<path d="M1035.47 444.348C1035.47 444.348 1033.39 446.935 1033.21 448.972C1033.03 451.01 1032.03 454.566 1032.97 454.796C1033.9 455.026 1035.6 450.364 1035.6 450.364L1035.47 444.348Z" fill="#FFB27D"/>
<path d="M992.08 320.488C992.08 320.488 1003.84 323.302 1013.13 341.157C1022.43 359.012 1029.77 395.023 1034.21 404.528C1038.64 414.033 1042.02 442.553 1042.02 442.553C1042.02 442.553 1041.33 443.97 1038.94 444.489C1037.08 444.891 1035.18 444.734 1035.18 444.734C1035.18 444.734 1017.7 416.736 1015.19 406.676C1013.83 401.233 993.087 357.661 993.087 357.661L992.08 320.488Z" fill="white"/>
<path d="M217.788 631.344L216.027 618.656L223.426 612.473L225.757 629.27L217.788 631.344Z" fill="#FFB27D"/>
<path d="M242.361 642.677H212.193C212.193 642.677 211.471 638.079 213.046 634.591C214.556 631.244 216.905 629.177 217.12 626.613C219.037 628.587 221.396 629.856 225.757 629.27C226.292 630.136 229.206 634.773 230.992 636.055C232.963 637.472 241.754 636.967 242.361 642.677Z" fill="#233862"/>
<path d="M236.3 460.02C234.327 475.89 232.714 490.853 231.4 504.798C224.378 579.098 225.757 624.511 225.757 624.511C225.757 624.511 225.249 625.856 220.897 625.876C218.436 625.889 216.026 625.351 216.026 625.351C216.026 625.351 200.307 576.833 201.52 549.223C201.665 545.902 202.055 542.884 202.747 540.286C206.519 526.16 188.793 472.136 208.061 452.018C227.326 431.902 237.208 452.737 236.3 460.02Z" fill="#F99746"/>
<path d="M236.3 460.02C234.327 475.89 232.714 490.853 231.399 504.798L201.521 549.223C201.665 545.902 202.055 542.884 202.747 540.286C206.519 526.16 188.793 472.136 208.061 452.018C227.326 431.902 237.207 452.737 236.3 460.02Z" fill="#CE3E50"/>
<path d="M260.043 308.64C260.043 308.64 259.316 305.014 258.497 302.247C258.135 301.022 260.66 292.98 262.407 291.991C264.155 291.001 268.706 296.417 267.419 300.575C266.757 302.711 265.67 309.662 265.67 309.662L260.043 308.64Z" fill="#FFB27D"/>
<path d="M260.043 308.64C260.043 308.64 259.093 306.538 258.235 306.197C257.377 305.856 256.458 302.419 255.828 301.055C255.828 301.055 256.436 300.163 257.501 301.311C258.15 302.011 259.597 304.063 259.597 304.063L260.043 308.64Z" fill="#FFB27D"/>
<path d="M135.507 320.836C135.322 321.218 135.065 321.9 134.836 322.541C134.832 322.366 134.829 322.193 134.827 322.023C134.816 320.746 130.047 313.796 128.086 313.361C126.125 312.925 123.358 319.437 125.807 323.036C127.065 324.885 130.138 331.214 130.138 331.214L135.22 328.589C135.22 328.589 135.513 326.3 136.234 325.723C136.955 325.146 136.828 321.59 137.031 320.102C137.031 320.102 136.189 319.428 135.507 320.836Z" fill="#FFB27D"/>
<path d="M167.195 627.54C166.769 623.474 166.663 612.775 166.663 612.775C166.663 612.775 177.565 609.29 177.164 611.682C175.192 623.446 175.727 629.271 175.727 629.271L171.318 631.904L167.195 627.54Z" fill="#FFB27D"/>
<path d="M227.195 459.263C227.195 459.263 185.078 574.712 176.787 624.79C176.787 624.79 174.867 626.11 171.284 625.672C167.22 625.175 166.107 622.353 166.107 622.353C166.107 622.353 158.498 562.332 173.621 541.494C184.011 527.178 169.14 464.304 193.338 459.263C217.538 454.222 227.195 459.263 227.195 459.263Z" fill="#F99746"/>
<path d="M219.714 348.208C219.714 348.204 219.714 348.204 219.714 348.204C219.706 348.153 219.695 348.103 219.679 348.054C219.433 347.038 219.163 346.038 218.875 345.045C218.874 345.041 218.874 345.041 218.874 345.041C217.992 342.005 216.944 339.114 215.812 336.563C215.16 335.1 214.485 333.744 213.795 332.536C213.689 332.349 213.586 332.175 213.487 331.997L213.482 331.993C211.855 329.257 210.181 327.366 208.672 326.783C205.918 325.719 202.855 326.015 200.746 326.454C201.209 325.809 202.259 325.442 202.259 325.442C200.91 325.441 198.161 327.187 198.161 327.187C178.762 322.848 179.896 350.289 181.217 356.508C182.533 362.728 176.288 365.75 167.48 372.114C150.671 384.257 150.952 397.128 150.952 397.128C151.104 397.192 151.269 397.265 151.441 397.352C152.118 395.687 153.552 392.534 155.056 391.868C155.013 392.016 153.79 396.1 153.443 398.386C156.003 399.797 159.546 401.981 163.394 404.448C163.394 404.448 163.394 404.448 163.398 404.451C168.547 407.746 174.229 411.537 178.782 414.616C178.565 413.364 178.351 411.577 178.669 410.567L180.12 415.062L180.31 415.648C183.216 417.617 185.509 419.193 186.673 420C186.793 420.081 186.898 420.156 186.993 420.218C187.333 420.452 187.516 420.579 187.516 420.579C187.129 418.991 188.825 414.85 191.671 409.63C191.866 409.266 192.073 408.896 192.284 408.521C193.203 406.871 194.229 405.133 195.333 403.34C195.731 402.693 196.133 402.044 196.55 401.384C196.549 401.38 196.554 401.38 196.554 401.38C196.887 400.849 197.226 400.321 197.575 399.784L197.579 399.779C198.404 398.505 199.257 397.222 200.127 395.936C202.382 392.606 204.769 389.299 207.129 386.266C210.554 381.85 213.915 378.012 216.73 375.5C216.822 375.31 216.909 375.117 216.988 374.92C217.429 373.896 217.767 372.759 218.028 371.603C218.11 371.256 218.183 370.905 218.247 370.556C218.948 366.864 218.962 363.201 218.953 362.329C219.178 365.897 219.088 368.588 218.849 370.621C218.795 371.068 218.737 371.48 218.669 371.864L218.67 371.868C218.52 372.737 218.347 373.455 218.16 374.05C218.621 373.479 219.026 372.851 219.385 372.166C219.619 371.719 219.833 371.249 220.022 370.757C222.292 364.961 221.681 356.316 219.714 348.208Z" fill="#163560"/>
<path d="M216.07 376.006C216.135 376.025 210.639 380.003 205.977 379.444C201.593 378.922 198.027 373.868 198.083 373.847C199.815 373.227 199.965 370.698 198.359 360.166L199.19 360.205L213.153 360.873C213.153 360.873 213.48 365.188 214.069 369.211C214.562 372.589 215.243 375.761 216.07 376.006Z" fill="#FFB27D"/>
<path d="M213.153 360.873C213.153 360.873 213.479 365.188 214.069 369.211C206.446 370.126 201.405 363.799 199.189 360.205L213.153 360.873Z" fill="#ED975D"/>
<path d="M197.569 358.937C197.569 358.937 192.656 353.244 190.902 348.012C189.65 344.276 189.488 329.764 204.085 329.686C204.085 329.686 208.297 329.477 212.59 331.532C216.005 333.166 221.156 337.025 217.995 350.18L217.318 354.566L197.569 358.937Z" fill="#163560"/>
<path d="M238.06 457.047C238.06 457.047 219.889 467.846 197.074 462.293C196.805 462.227 178.288 459.272 178.288 459.272C178.607 458.401 181 444.097 181.313 443.297C185.36 432.852 192.757 376.163 198.938 373.367C200.516 375.086 205.026 376.262 208.886 375.919C213.331 375.526 214.82 373.606 214.451 371.54C219.37 373.866 223.15 376.028 223.15 376.028C227.645 382.766 238.06 457.047 238.06 457.047Z" fill="white"/>
<path d="M216.255 364.305C216.255 364.305 198.34 367.272 196.664 356.088C194.988 344.902 191.546 337.753 202.914 335.385C214.281 333.017 217.148 336.952 218.616 340.549C220.083 344.146 220.872 363.244 216.255 364.305Z" fill="#FFB27D"/>
<path d="M211.052 333.894C211.052 333.894 208.087 347.75 200.83 350.813C193.572 353.876 189.998 352.341 189.998 352.341C189.998 352.341 195.102 346.882 195.11 338.676C195.11 338.676 206.414 328.199 211.052 333.894Z" fill="#163560"/>
<path d="M209.992 335.141C209.992 335.141 214.1 337.525 215.419 340.24C216.738 342.956 218.013 348.76 219.692 348.307C219.692 348.307 222.07 338.835 217.156 334.408C211.946 329.714 209.992 335.141 209.992 335.141Z" fill="#163560"/>
<path d="M265.793 308.898C265.064 308.642 263.99 308.034 262.59 307.908C261.342 307.796 259.775 308.203 259.775 308.203C259.775 308.203 254.721 339.622 254.346 341.287C253.97 342.951 232.666 366.951 226.922 366.854C221.736 366.768 215.591 370.772 214.451 371.541C214.451 371.541 226.53 397.082 227.132 401.88C227.787 407.101 234.04 487.495 234.04 487.495C234.04 487.495 233.668 491.235 240.657 489.225C247.644 487.214 249.392 485.55 249.392 485.55C249.392 485.55 242.973 422.259 241.626 402.576C241.446 399.933 241.015 397.488 240.401 395.232C239.808 393.056 240.275 390.73 241.603 388.908C250.438 376.78 264.39 357.131 265.167 352.955C266.308 346.818 265.793 308.898 265.793 308.898Z" fill="#2B478B"/>
<path d="M192.331 642.677H162.163C162.163 642.677 161.44 638.079 163.016 634.591C164.525 631.244 166.875 629.177 167.09 626.613C169.007 628.587 171.365 629.856 175.727 629.27C176.261 630.136 179.176 634.773 180.962 636.055C182.932 637.472 191.723 636.967 192.331 642.677Z" fill="#233862"/>
<path d="M213.054 404.361C212.038 398.104 199.057 372.983 199.057 372.983C199.057 372.983 190.85 370.528 185.45 372.485C180.049 374.442 152.104 358.664 151.208 357.212C150.313 355.759 135.345 327.869 135.345 327.869C135.345 327.869 134.104 327.15 132.116 328.187C130.149 329.212 130.139 331.214 130.139 331.214C130.139 331.214 141.691 366.329 144.764 371.762C146.617 375.038 162.198 386.442 174.278 394.982C176.584 396.612 177.795 399.389 177.417 402.188C175.792 414.196 175.379 420.958 173.511 441.563C171.961 458.656 171.368 491.749 171.368 491.749C171.368 491.749 184.886 496.426 194.215 497.047C203.545 497.668 205.578 487.833 205.578 487.833C205.578 487.833 214.099 410.794 213.054 404.361Z" fill="#2B478B"/>
<path d="M210.384 358.774C210.384 358.774 212.561 360.052 215.131 359.667C216.891 359.403 217.291 357.314 217.291 357.314C217.291 357.314 216.067 356.929 214.114 357.321C212.162 357.713 210.384 358.774 210.384 358.774Z" fill="white"/>
<path d="M782.595 145.557C782.595 145.557 774.213 130.659 782.595 127.629C790.978 124.599 794.771 127.393 795.17 130.786C795.569 134.179 791.977 147.553 791.977 147.553L782.595 145.557Z" fill="#FFB27D"/>
<path d="M789.314 240.833C774.029 243.588 759.977 244.865 747.295 245.149C735.255 245.42 724.452 244.793 714.995 243.696C712.456 243.405 710.017 243.077 707.674 242.722C682.928 238.969 669.263 232.315 669.263 232.315C669.263 232.315 691.874 184.986 710.137 186.802C731.566 188.938 767.876 208.167 771.486 202.774C775.549 196.698 778.951 144.591 778.951 144.591C788.451 138.084 794.124 144.943 794.124 144.943C794.124 144.943 812.683 236.618 789.314 240.833Z" fill="#F99746"/>
<path d="M789.314 240.833C774.029 243.588 759.977 244.865 747.295 245.149C735.255 245.42 724.452 244.793 714.995 243.696C709.295 225.565 705.195 207.046 716.66 218.211C736.887 237.903 789.314 240.833 789.314 240.833Z" fill="#CE3E50"/>
<path d="M667.547 622.971C667.547 622.971 665.921 641.786 669.898 643.744L720.798 643.64C720.798 643.64 720.798 637.765 712.622 636.46C704.447 635.155 690.084 630.369 687.655 619.708C685.224 609.047 667.547 622.971 667.547 622.971Z" fill="#233862"/>
<path d="M704.915 395.251C704.664 407.555 704.073 420.245 702.915 431.65C697.419 485.769 695.487 551.157 694.696 563.764C693.327 585.648 689.003 620.61 689.003 620.61C689.003 620.61 680.429 628.75 663.714 624.865C663.714 624.865 649.866 574.51 646.772 521.489C646.725 520.619 646.677 519.744 646.633 518.87C646.273 511.86 645.898 503.844 645.514 495.202C642.967 437.31 640.201 351.311 640.201 351.311L704.073 336.313C704.073 336.313 705.542 364.581 704.915 395.251Z" fill="#2A4E96"/>
<path d="M704.915 395.251C688.728 423.179 657.874 474.632 645.514 495.202C642.967 437.311 640.201 351.312 640.201 351.312L704.073 336.314C704.073 336.314 705.542 364.581 704.915 395.251Z" fill="#233862"/>
<path d="M543.191 341.151C543.191 341.151 532.798 353.374 531.863 356.763C530.928 360.151 529.263 372.362 530.154 376.031C531.046 379.7 537.956 365.8 540.469 364.316C542.983 362.832 538.583 369.844 539.442 371.014C540.302 372.185 545.264 366.921 547.199 365.14C549.134 363.359 548.943 353.772 551.266 348.104C553.59 342.435 543.191 341.151 543.191 341.151Z" fill="#FFB27D"/>
<path d="M540.753 601.588C540.753 601.588 531.693 609.855 533.461 615.73C535.228 621.604 543.404 625.52 544.509 632.7C545.614 639.879 550.032 643.796 554.01 643.796C557.987 643.796 572.972 643.796 572.972 643.796C572.972 643.796 575.9 638.743 568.829 637.22C561.758 635.698 559.092 627.261 559.534 619.428C559.976 611.596 558.871 601.152 558.871 601.152L543.846 597.671L540.753 601.588Z" fill="#233862"/>
<path d="M694.008 352.622C694.008 352.622 634.217 480.55 602.399 536.683C570.582 592.815 560.639 608.48 560.639 608.48C560.639 608.48 542.409 601.3 540.752 596.404C540.752 596.404 552.919 488.039 574.227 461.622C586.267 446.696 600.41 401.901 601.074 386.236C601.736 370.571 615.705 333.183 615.705 333.183L694.008 352.622Z" fill="#2A4E96"/>
<path d="M711.489 358.654C711.489 358.654 687.711 374.551 654.06 373.075C639.291 372.429 609.995 368.242 605.267 356.497C604.157 353.739 604.971 350.24 606.636 344.868C610.958 330.907 621.032 304.322 617.99 245.375C617.706 239.891 617.86 234.734 618.386 229.906C621.555 200.871 638.195 183.676 654.278 178.058C693.5 164.349 706.576 183.342 706.576 183.342C706.576 183.342 723.913 197.077 726.526 225.743C731.749 283.082 711.489 358.654 711.489 358.654Z" fill="#F99746"/>
<path d="M665.771 174.764C665.771 174.764 683.768 185.711 703.288 182.615C703.288 182.615 707.147 181.634 705.25 177.103C706.44 173.447 706.296 173.777 706.983 171.059C708.695 164.806 709.218 161.199 709.218 161.199L698.14 149.556L687.648 138.429C684.75 165.022 665.771 174.764 665.771 174.764Z" fill="#FFB27D"/>
<path d="M685.968 148.515C685.968 148.515 691.996 164.628 706.983 171.059C708.695 164.806 709.808 158.265 709.808 158.265L698.14 149.556L685.968 148.515Z" fill="#ED985F"/>
<path d="M721.646 160.636C721.646 160.636 687.293 164.931 684.881 143.82C682.47 122.71 676.412 109.047 698.244 105.412C720.076 101.778 725.265 109.366 727.81 116.221C730.354 123.077 730.52 158.975 721.646 160.636Z" fill="#FFB27D"/>
<path d="M674.037 101.981C673.74 101.614 673.036 101.3 671.448 101.153C671.448 101.153 672.75 100.406 674.452 100.428C674.868 98.2285 676.193 94.3572 680.037 93.5496C680.037 93.5496 677.95 94.5627 677.593 96.9049C682.174 92.5424 691.748 89.6031 717.836 92.658C752.217 96.6839 740.017 118.332 735.453 120.796C730.889 123.259 719.925 115.618 711.582 115.964C703.239 116.309 701.202 128.269 698.319 129.811C695.435 131.354 696.654 128.48 692.902 126.61C689.149 124.74 688.547 131.053 689.494 135.207C690.441 139.362 684.99 144.589 684.99 144.589C684.99 144.589 684.99 144.589 679.905 138.68C674.82 132.771 670.738 108.4 673.343 103.337C673.573 102.89 673.801 102.436 674.037 101.981Z" fill="#2C3A64"/>
<path d="M778.951 135.675L720.631 136.194L720.233 127.421L778.371 122.916L778.951 135.675Z" fill="#2A4E96"/>
<path d="M822.974 137.14L759.478 138.058L758.754 122.106L822.069 117.2L822.974 137.14Z" fill="#2A4E96"/>
<path d="M865.789 138.392L812.245 138.459L811.267 116.924L864.594 112.072L865.789 138.392Z" fill="#233862"/>
<path d="M866.554 142.027C868.206 141.952 869.484 140.552 869.409 138.901L868.152 111.238C868.078 109.586 866.678 108.308 865.026 108.383C863.374 108.458 862.096 109.858 862.171 111.51L863.427 139.172C863.502 140.824 864.902 142.102 866.554 142.027Z" fill="#233862"/>
<path d="M720.45 138.067C718.982 138.134 717.737 136.998 717.67 135.53L717.344 128.352C717.277 126.883 718.414 125.639 719.882 125.573C721.35 125.506 722.594 126.642 722.661 128.11L722.988 135.288C723.055 136.757 721.918 138.001 720.45 138.067Z" fill="#2A4E96"/>
<path d="M606.637 344.869C610.959 330.908 621.033 304.322 617.991 245.376C617.707 239.892 617.861 234.735 618.386 229.907L618.39 229.907C631.299 228.798 651.03 242.752 651.03 242.752C651.03 242.752 638.878 316.836 606.637 344.869Z" fill="#CE3E50"/>
<path d="M665.771 174.764C665.771 174.764 632.673 180.453 615.41 201.528C598.147 222.602 570.378 252.318 563.814 262.723C557.248 273.129 539.022 343.945 539.022 343.945C539.022 343.945 540.225 346.221 545.252 347.547C550.063 348.815 553.554 346.849 553.554 346.849C553.554 346.849 577.701 305.522 586.789 284.877C590.564 276.299 655.868 242.329 680.418 245.848C690.06 247.231 665.771 174.764 665.771 174.764Z" fill="#F99746"/>
<path d="M778.603 120.403C778.603 120.403 785.722 124.758 789.98 122.916C794.239 121.074 793.863 119.387 793.863 119.387C793.863 119.387 780.999 115.817 778.603 120.403Z" fill="#FFB27D"/>
<path d="M697.888 197.852C697.888 197.852 683.363 289.557 580.305 316.256L569.078 338.405L588.8 341.743C588.8 341.743 706.128 307.752 704.548 196.23L697.888 197.852Z" fill="#BC3F3F"/>
<path d="M695.637 183.214L690.88 183.68V190.566L697.888 197.852L704.552 196.23V186.674L699.762 183.214H695.637Z" fill="#A02E2E"/>
<path d="M676.97 164.978C676.97 164.978 672.366 166.017 661.839 174.765C661.839 174.765 672.308 196.988 694.397 199.649C694.397 199.649 694.04 189.336 695.637 183.214C695.637 183.214 678.13 176.948 676.97 164.978Z" fill="#CE3E50"/>
<path d="M695.637 183.214C695.637 183.214 706.415 188.936 707.213 197.852C707.213 197.852 711.334 191.324 710.139 186.804C708.944 182.283 705.25 177.104 705.25 177.104C705.25 177.104 705.616 182.549 695.637 183.214Z" fill="#CE3E50"/>
</svg>
