<svg width="400" height="358" viewBox="0 0 400 358" fill="none" xmlns="http://www.w3.org/2000/svg">
<path d="M175.04 298.706C259.225 298.706 327.471 231.838 327.471 149.353C327.471 66.8676 259.225 0 175.04 0C90.854 0 22.6082 66.8676 22.6082 149.353C22.6082 231.838 90.854 298.706 175.04 298.706Z" fill="#A6E2E2"/>
<path d="M197.046 204.59C197.046 204.59 154.556 255.113 139.527 253.796C124.499 252.48 114.2 227.854 114.2 227.854C114.2 227.854 114.716 227.584 115.59 227.07C119.989 224.527 133.518 216.105 136.683 207.115C139.748 202.236 162.038 166.826 168.82 157.791C176.118 148.079 184.705 147.701 184.705 147.701C189.546 155.5 195.656 161.434 203.23 162.552C204.27 162.705 205.283 162.804 206.249 162.849C206.709 166.024 209.755 182.218 224.6 190.505C224.6 190.505 225.17 179.225 232.781 178.224C232.781 178.224 240.843 173.895 247.497 180.226C247.497 180.226 258.044 169.134 247.497 137.989L239.969 131.316L239.96 131.307L236.509 123.264C236.509 123.264 275.023 121.38 283.932 129.468C292.84 137.547 349.825 211.434 349.825 211.434L266.934 274.491C266.934 274.491 216.676 225.654 197.046 204.59Z" fill="white"/>
<path d="M247.497 137.989C258.044 169.134 247.497 180.225 247.497 180.225C240.843 173.895 232.781 178.224 232.781 178.224L243.531 139.612L239.969 131.316L247.497 137.989Z" fill="#D7F2ED"/>
<path d="M221.636 171.019L232.781 178.224C225.17 179.225 224.6 190.505 224.6 190.505C209.755 182.218 206.709 166.024 206.249 162.85C207.188 162.895 208.099 162.886 208.964 162.832L221.636 171.019Z" fill="#D7F2ED"/>
<path d="M196.788 204.184C192.152 198.577 187.515 192.97 182.878 187.363C182.505 186.912 181.857 187.553 182.227 188C186.864 193.607 191.5 199.214 196.138 204.822C196.51 205.273 197.158 204.631 196.788 204.184Z" fill="#2E303D"/>
<path d="M192.725 205.288C189.442 203.907 186.161 202.527 182.878 201.146C182.34 200.92 181.87 201.696 182.413 201.925C185.696 203.305 188.978 204.686 192.26 206.066C192.799 206.293 193.268 205.517 192.725 205.288Z" fill="#2E303D"/>
<path d="M265.996 231.005C261.822 224.241 257.649 217.477 253.475 210.712C249.322 203.98 245.168 197.248 241.014 190.516C238.66 186.701 236.307 182.886 233.953 179.071C233.646 178.575 232.85 179.028 233.159 179.526C237.332 186.291 241.506 193.055 245.679 199.82C249.834 206.552 253.987 213.284 258.14 220.016C260.494 223.831 262.848 227.646 265.202 231.461C265.507 231.957 266.303 231.504 265.996 231.005Z" fill="#2E303D"/>
<path d="M137.355 203.787C137.309 204.897 137.079 206.006 136.683 207.115C133.517 216.105 119.989 224.527 115.59 227.07L114.2 222.083C114.2 222.083 107.068 223.652 101.85 219.225C101.712 219.486 101.491 219.721 101.233 219.883C100.497 220.325 99.5673 220.325 98.7023 220.253C94.791 219.91 90.9809 218.44 87.8795 216.069C86.0481 214.671 84.4008 212.859 83.8946 210.64C83.4068 208.539 84.2259 206.042 86.1309 205.014C86.0573 204.68 86.0113 204.337 85.9929 203.995C85.9101 202.038 86.9592 200.163 88.3857 198.792C89.7017 197.511 91.3306 196.601 92.9596 195.735C92.978 195.654 92.9964 195.582 93.0148 195.51C93.4105 194.121 94.4229 192.967 95.6008 192.11C96.6684 191.335 97.8832 190.776 99.098 190.235C93.1989 187.259 87.539 183.959 88.1096 182.48C89.26 179.477 101.344 180.541 113.565 184.734C125.778 188.936 129.772 195.194 129.772 195.194C133.573 193.544 137.732 193.869 137.355 203.787Z" fill="#FF9971"/>
<path d="M132.877 205.475C130.029 206.673 127.181 207.869 124.334 209.067C122.892 209.673 121.45 210.279 120.009 210.885C118.824 211.382 117.382 212.194 116.052 211.791C114.62 211.356 114.605 209.786 115.154 208.66C115.702 207.535 116.56 206.508 117.352 205.539C118.918 203.628 120.687 201.876 122.618 200.318C124.858 198.51 127.325 196.982 129.939 195.749C130.473 195.497 130.006 194.719 129.474 194.97C124.423 197.355 119.934 200.869 116.468 205.189C115.116 206.875 112.567 209.847 114.598 211.958C115.523 212.92 117.013 212.924 118.216 212.559C119.711 212.106 121.148 211.38 122.583 210.777C126.17 209.269 129.755 207.761 133.341 206.253C133.883 206.026 133.416 205.249 132.877 205.475Z" fill="#2E303D"/>
<path d="M110.428 196.473C106.857 194.384 103.287 192.295 99.7166 190.207C99.2067 189.908 98.7438 190.688 99.2518 190.986L109.963 197.252C110.473 197.55 110.936 196.77 110.428 196.473Z" fill="#2E303D"/>
<path d="M112.094 213.365C111.995 212.512 111.601 211.724 111.267 210.941C110.9 210.08 110.533 209.219 110.165 208.357C108.475 204.395 106.784 200.433 105.095 196.471C104.87 195.943 103.979 196.175 104.208 196.711C105.574 199.914 106.941 203.119 108.308 206.323C108.999 207.942 109.689 209.562 110.379 211.181C110.798 212.164 112.088 214.749 110.227 215.168C108.922 215.461 107.399 214.183 106.409 213.501C105.265 212.712 104.176 211.849 103.147 210.923C101.1 209.083 99.2858 206.998 97.7609 204.724C96.0362 202.153 94.6862 199.359 93.7594 196.419C93.5855 195.867 92.6965 196.102 92.8723 196.659C94.665 202.347 98.0177 207.536 102.496 211.56C103.584 212.538 104.738 213.447 105.944 214.28C107.09 215.07 108.462 216.123 109.937 216.1C111.443 216.076 112.25 214.724 112.094 213.365Z" fill="#2E303D"/>
<path d="M104.36 213.838C104.008 213.381 103.208 213.83 103.566 214.293C104.189 215.101 104.252 216.2 103.521 216.971C102.796 217.736 101.72 217.743 100.793 217.343C99.849 216.935 99.0244 216.247 98.2201 215.628C97.3817 214.982 96.5589 214.318 95.7518 213.636C92.5474 210.928 89.6015 207.935 86.9427 204.71C86.5709 204.258 85.923 204.9 86.2921 205.347C88.7345 208.31 91.4191 211.078 94.3254 213.607C95.7408 214.84 97.2059 216.023 98.7226 217.134C100.055 218.112 101.796 219.043 103.435 218.165C105.025 217.313 105.446 215.246 104.36 213.838Z" fill="#2E303D"/>
<path d="M243.53 139.612L232.781 178.224L221.636 171.019C233.103 155.059 230.867 136.105 230.867 136.105C230.867 136.105 229.082 161.632 208.964 162.832C208.099 162.886 207.188 162.895 206.249 162.85C205.283 162.805 204.27 162.705 203.23 162.552C195.656 161.434 189.545 155.501 184.705 147.701C175.088 132.209 170.44 109.396 169.179 102.39C180.508 100.938 191.515 96.2759 202.264 92.074C205.586 90.7755 209.093 89.486 212.654 89.8738C216.299 90.2615 219.566 92.3895 222.014 95.0676C224.158 97.4211 225.759 100.18 227.269 102.967C227.692 100.424 229.45 92.7953 235.34 94.9955C236.021 95.248 236.628 95.6538 237.153 96.1677C242.04 101.001 240.245 116.005 234.705 119.062L236.508 123.264L239.96 131.308L239.969 131.317L243.53 139.612Z" fill="#FF9971"/>
<path d="M230.867 136.105C230.867 136.105 233.103 155.059 221.636 171.019L208.964 162.832C229.082 161.633 230.867 136.105 230.867 136.105Z" fill="#2E303D"/>
<path d="M236.159 82.5328C235.616 79.1424 234.769 75.6166 232.459 73.0377C230.389 70.7357 226.812 69.512 224.005 70.6455C224.81 67.6184 224.42 64.3082 222.834 61.5742C221.196 58.7537 218.387 56.6247 215.18 55.8069C207.377 53.8159 200.25 58.8474 193.914 62.5201C190.527 64.4832 186.992 66.0558 183.151 66.9457C179.408 67.8132 175.525 68.0693 171.696 67.7113C169.75 67.5292 167.832 67.1685 165.944 66.6725C164.06 66.1775 162.182 65.6058 160.227 65.4552C156.98 65.2045 153.671 66.4092 152.364 69.5192C151.147 72.4165 151.772 75.7979 152.957 78.5995C153.79 80.5689 154.969 82.3849 156.419 83.9656C152.881 83.6049 149.141 85.3777 147.369 88.4201C145.363 91.8647 146.071 96.6077 148.998 99.3489C151.529 101.72 155.191 102.478 158.679 102.73C162.213 102.992 165.71 102.839 169.18 102.388C180.509 100.936 191.516 96.274 202.265 92.0721C205.587 90.7736 209.093 89.4841 212.655 89.8719C216.299 90.2596 219.567 92.3876 222.015 95.0657C224.159 97.4192 225.76 100.178 227.269 102.965C227.693 100.422 229.451 92.7934 235.341 94.9936C236.022 95.2461 236.629 95.6519 237.154 96.1658C237.217 91.614 236.886 87.0414 236.159 82.5328ZM216.621 60.4146C212.222 58.8637 207.289 59.8736 203 61.6951C198.712 63.5075 194.791 66.0864 190.484 67.8448C182.615 71.0368 173.56 71.3164 165.516 68.6022C162.535 67.5923 159.277 66.1856 156.378 67.3939C154.13 68.3308 152.881 70.6401 152.64 73.0639C152.639 72.5202 152.667 71.9764 152.76 71.4399C153.009 69.9972 153.658 68.6193 154.833 67.6806C156.106 66.6635 157.812 66.3136 159.42 66.3236C161.317 66.3353 163.161 66.861 164.976 67.3497C166.744 67.8258 168.519 68.2226 170.338 68.4606C177.394 69.384 184.698 68.2072 191.068 65.0882C197.598 61.8898 203.571 56.5336 211.224 56.2947C214.647 56.1883 217.941 57.3569 220.331 59.7915C222.743 62.2478 223.864 65.705 223.397 69.0801C223.38 69.1964 223.347 69.31 223.327 69.4255C223.498 65.5796 220.437 61.7708 216.621 60.4146Z" fill="#2E303D"/>
<path d="M216.796 136.411C216.796 136.411 221.913 145.573 214.108 150.893C206.304 156.222 200.801 148.656 200.801 148.656L216.796 136.411Z" fill="white"/>
<path d="M190.19 119.811L200.801 140.496C200.801 140.496 192.168 145.257 190.19 142.498C188.202 139.739 190.19 119.811 190.19 119.811Z" fill="#F9785A"/>
<path d="M186.283 124.481C187.097 127.181 186.206 129.818 184.291 130.372C182.377 130.925 180.166 129.187 179.352 126.487C178.538 123.787 179.429 121.15 181.344 120.595C183.258 120.042 185.469 121.781 186.283 124.481Z" fill="#2E303D"/>
<path d="M208.677 117.079C209.49 119.779 208.599 122.417 206.685 122.97C204.771 123.524 202.559 121.785 201.746 119.086C200.931 116.386 201.823 113.748 203.737 113.195C205.651 112.64 207.862 114.38 208.677 117.079Z" fill="#2E303D"/>
<path d="M181.63 113.558C179.886 113.965 178.202 114.632 176.635 115.484C175.792 115.942 175.502 117.191 176.044 117.968C176.63 118.807 177.676 119.038 178.579 118.548C178.968 118.337 179.367 118.148 179.769 117.965C180.71 117.572 181.678 117.25 182.673 117.017C183.61 116.798 184.229 115.665 183.916 114.777C183.577 113.811 182.635 113.322 181.63 113.558Z" fill="#2E303D"/>
<path d="M207.859 107.493C207.473 107.167 207.068 107.051 206.564 107.003C204.335 106.792 202.009 107.131 199.937 107.962C199.472 108.148 199.091 108.382 198.842 108.829C198.627 109.218 198.544 109.777 198.694 110.201C198.992 111.049 200.027 111.802 200.981 111.42C201.838 111.076 202.728 110.836 203.638 110.676C204.632 110.547 205.632 110.515 206.632 110.609C207.075 110.651 207.648 110.345 207.94 110.041C208.242 109.725 208.468 109.212 208.439 108.772C208.408 108.301 208.236 107.811 207.859 107.493Z" fill="#2E303D"/>
<path d="M223.758 55.4788C223.524 54.9477 222.731 55.4058 222.963 55.9342C224.674 59.8161 225.522 64.0208 225.478 68.2462C225.471 68.8269 226.392 68.8269 226.398 68.2462C226.443 63.8522 225.535 59.5113 223.758 55.4788Z" fill="#2E303D"/>
<path d="M227.972 63.2544C227.579 64.8396 227.187 66.4257 226.794 68.0109C226.655 68.5745 227.542 68.8152 227.682 68.2508C228.075 66.6655 228.467 65.0794 228.86 63.4942C228.999 62.9306 228.112 62.6899 227.972 63.2544Z" fill="#2E303D"/>
<path d="M221.718 330.314V336.076H139.609L77.019 302.74V297.555L140.805 330.314H221.718Z" fill="#8E8E8E"/>
<path d="M221.718 330.314H140.805L77.019 297.555H157.932L221.718 330.314Z" fill="#B7B7B7"/>
<path d="M149.369 327.795H139.405L131.55 323.76H141.514L149.369 327.795Z" fill="#8E8E8E"/>
<path d="M138.839 322.404H128.875L121.02 318.371H130.984L138.839 322.404Z" fill="#8E8E8E"/>
<path d="M129.929 317.226H119.965L112.11 313.191H122.074L129.929 317.226Z" fill="#8E8E8E"/>
<path d="M119.399 311.835H109.435L101.58 307.801H111.544L119.399 311.835Z" fill="#8E8E8E"/>
<path d="M161.394 327.011H151.43L143.574 322.977H153.539L161.394 327.011Z" fill="#8E8E8E"/>
<path d="M152.484 321.833H142.52L134.665 317.798H144.629L152.484 321.833Z" fill="#8E8E8E"/>
<path d="M141.955 316.442H131.991L124.136 312.408H134.099L141.955 316.442Z" fill="#8E8E8E"/>
<path d="M163.568 320.871H153.604L145.749 316.837H155.713L163.568 320.871Z" fill="#8E8E8E"/>
<path d="M154.658 315.692H144.694L136.84 311.657H146.804L154.658 315.692Z" fill="#8E8E8E"/>
<path d="M144.129 310.302H134.165L126.31 306.268H136.274L144.129 310.302Z" fill="#8E8E8E"/>
<path d="M200.272 328.281H190.308L182.453 324.248H192.417L200.272 328.281Z" fill="#8E8E8E"/>
<path d="M189.742 322.892H179.778L171.924 318.858H181.888L189.742 322.892Z" fill="#8E8E8E"/>
<path d="M180.833 317.712H170.869L163.014 313.678H172.978L180.833 317.712Z" fill="#8E8E8E"/>
<path d="M170.304 312.323H160.34L152.484 308.289H162.448L170.304 312.323Z" fill="#8E8E8E"/>
<path d="M212.298 327.498H202.334L194.479 323.465H204.443L212.298 327.498Z" fill="#8E8E8E"/>
<path d="M203.388 322.319H193.424L185.57 318.285H195.534L203.388 322.319Z" fill="#8E8E8E"/>
<path d="M192.858 316.929H182.894L175.04 312.895H185.004L192.858 316.929Z" fill="#8E8E8E"/>
<path d="M273.411 358H192.498L151.184 336.74H232.097L273.411 358Z" fill="#D5E0E0"/>
<path d="M217.295 355.448H193.747L181.723 349.26H205.272L217.295 355.448Z" fill="#4E7DF5"/>
<path d="M224.647 355.058C224.504 355.058 224.358 355.025 224.22 354.955L196.298 340.585C195.848 340.354 195.674 339.809 195.91 339.367C196.148 338.926 196.703 338.759 197.153 338.988L225.076 353.356C225.526 353.588 225.7 354.133 225.464 354.575C225.298 354.883 224.978 355.058 224.647 355.058Z" fill="#B7B7B7"/>
<path d="M234.041 354.529C233.897 354.529 233.751 354.495 233.614 354.426L205.691 340.056C205.241 339.824 205.067 339.28 205.304 338.838C205.541 338.397 206.096 338.229 206.547 338.458L234.47 352.828C234.92 353.06 235.094 353.604 234.857 354.046C234.692 354.353 234.371 354.529 234.041 354.529Z" fill="#B7B7B7"/>
<path d="M246.813 355.323C246.669 355.323 246.523 355.29 246.386 355.22L218.463 340.852C218.013 340.62 217.839 340.075 218.075 339.633C218.313 339.192 218.868 339.025 219.318 339.254L247.241 353.623C247.691 353.855 247.865 354.4 247.628 354.842C247.463 355.148 247.143 355.323 246.813 355.323Z" fill="#B7B7B7"/>
<path d="M256.206 354.793C256.063 354.793 255.916 354.76 255.779 354.69L227.856 340.321C227.406 340.09 227.232 339.545 227.469 339.103C227.706 338.662 228.261 338.494 228.712 338.723L256.635 353.093C257.085 353.325 257.259 353.87 257.023 354.31C256.857 354.618 256.537 354.793 256.206 354.793Z" fill="#B7B7B7"/>
<path d="M340.572 115.555L356.319 107.521C362.598 109.134 369.419 109.044 376.046 106.897C394.342 100.975 404.274 81.6413 398.23 63.7143C392.185 45.7873 372.453 36.056 354.156 41.9784C335.87 47.8982 325.938 67.2319 331.983 85.1589C333.731 90.3437 336.632 94.8505 340.308 98.4844L340.572 115.555Z" fill="#A6E2E2"/>
<path d="M374.936 98.163V100.401H372.967H359.671H357.624V94.0034L374.936 98.163Z" fill="#8E8E8E"/>
<path d="M359.671 100.401H372.967C372.967 100.401 372.653 103.096 366.277 103.096C359.908 103.096 359.671 100.401 359.671 100.401Z" fill="#B7B7B7"/>
<path d="M374.936 92.0737V98.163L357.624 94.0034V92.0737H358.863H374.088H374.936Z" fill="#B7B7B7"/>
<path d="M386.892 65.2438C386.892 72.6144 382.825 79.0626 376.762 82.5315L374.088 92.0734H358.864L356.198 82.5315C350.136 79.0626 346.06 72.6153 346.06 65.2438C346.06 54.196 355.205 45.2446 366.481 45.2446C377.756 45.2437 386.892 54.196 386.892 65.2438Z" fill="#4E7DF5"/>
<path d="M358.282 69.8823C358.206 69.4053 357.466 69.6073 357.541 70.0825C358.682 77.2502 359.823 84.418 360.963 91.5866C361.039 92.0636 361.779 91.8617 361.704 91.3864C360.564 84.2187 359.422 77.051 358.282 69.8823Z" fill="white"/>
<path d="M374.473 69.1544C373.241 76.7 372.011 84.2464 370.78 91.792C370.702 92.2663 371.443 92.4701 371.52 91.9922C372.752 84.4466 373.982 76.9002 375.214 69.3546C375.291 68.8803 374.551 68.6765 374.473 69.1544Z" fill="white"/>
<path d="M376.551 74.6055C375.974 76.1655 374.188 77.2196 372.508 76.904C371.088 76.6371 370.004 75.6055 369.263 74.4171C369.956 73.4405 370.446 72.3053 370.709 71.2539C370.987 70.1447 371.058 68.9869 370.895 67.8544C370.77 66.9923 370.357 65.8923 369.342 65.7579C368.156 65.601 367.547 66.7714 367.354 67.7299C367.106 68.9671 367.108 70.2412 367.333 71.482C367.506 72.436 367.837 73.4225 368.321 74.3278C368.219 74.4504 368.12 74.574 368.011 74.6894C367.353 75.3945 366.517 76.0492 365.503 76.1033C364.533 76.1556 363.857 75.5622 363.361 74.8264C363.874 74.1033 364.23 73.2484 364.414 72.3981C364.684 71.1474 364.797 69.7561 364.71 68.4811C364.643 67.4892 363.942 66.3242 362.755 66.6578C361.534 67.0014 361.33 68.4585 361.25 69.5063C361.159 70.7047 361.311 71.9319 361.685 73.0762C361.872 73.6488 362.119 74.2502 362.435 74.8075C361.937 75.372 361.289 75.7868 360.451 75.9229C358.138 76.2998 357.267 73.9806 356.817 72.2178C356.697 71.748 355.955 71.9473 356.076 72.418C356.576 74.3729 357.547 76.7219 359.982 76.7128C361.154 76.7083 362.112 76.2034 362.846 75.4468C363.033 75.6948 363.237 75.9256 363.466 76.1258C364.352 76.8986 365.549 77.0374 366.638 76.6064C367.451 76.2854 368.158 75.7318 368.752 75.0564C369.462 76.1132 370.416 76.9861 371.629 77.4369C373.897 78.2791 376.478 76.9996 377.291 74.8021C377.461 74.3494 376.718 74.1529 376.551 74.6055ZM362.076 68.9734C362.147 68.4919 362.243 67.9157 362.63 67.5739C363.1 67.1601 363.63 67.4306 363.835 67.9446C364.025 68.4198 363.949 68.9951 363.933 69.4928C363.917 70.023 363.896 70.5532 363.843 71.0807C363.745 72.0762 363.475 73.1907 362.943 74.1051C362.136 72.5352 361.821 70.7119 362.076 68.9734ZM368.768 73.5136C367.94 71.7164 367.67 69.5514 368.163 67.628C368.275 67.1916 368.482 66.674 368.966 66.5298C369.437 66.39 369.754 66.7831 369.926 67.1619C370.275 67.9391 370.255 68.9202 370.187 69.7498C370.075 71.1249 369.603 72.4811 368.834 73.6434C368.813 73.5992 368.788 73.5568 368.768 73.5136Z" fill="white"/>
<path d="M143.627 120.609L127.245 123.098C123.43 127.714 118.248 131.341 112.051 133.319C94.9412 138.777 76.5554 129.613 70.9848 112.849C65.4142 96.0849 74.7672 78.0714 91.8766 72.6124C108.977 67.157 127.362 76.3211 132.933 93.0849C134.545 97.9335 134.905 102.896 134.191 107.622L143.627 120.609Z" fill="white"/>
<path d="M127.851 92.7244L97.3457 122.614L80.761 106.354L88.8017 98.4755L97.3457 106.846L119.8 84.8452L127.851 92.7244Z" fill="#4E7DF5"/>
<path d="M318.581 191.661L297.8 214.51L292.49 228.55L291.404 215.385L289.223 199.344L289.444 196.377L290.686 179.614C287.235 179.93 283.876 179.84 280.72 179.28C268.296 177.116 258.816 167.82 257.629 147.702C256.902 135.448 258.448 126.215 260.537 119.56C263.602 109.785 267.863 105.592 267.863 105.592C267.863 105.592 283.407 131.102 304.003 133.924C304.003 133.924 307.776 125.205 313.657 127.774C319.547 130.344 319.547 147.693 310.215 149.966C308.991 161.968 310.777 174.267 315.378 185.457C316.262 187.594 317.283 189.74 318.581 191.661Z" fill="#FF9971"/>
<path d="M298.261 157.513C302.861 157.513 306.59 153.86 306.59 149.353C306.59 144.846 302.861 141.192 298.261 141.192C293.661 141.192 289.932 144.846 289.932 149.353C289.932 153.86 293.661 157.513 298.261 157.513Z" fill="#F9785A"/>
<path d="M301.058 177.604L290.033 188.388L290.687 179.614C294.073 179.317 297.561 178.622 301.058 177.604Z" fill="#2E303D"/>
<path d="M290.033 188.388L289.444 196.377C289.444 196.377 277.499 201.625 272.023 214.024C270.836 210.255 270.965 206.134 271.82 202.265C272.787 197.937 274.609 193.852 276.45 189.822C278.023 186.368 279.625 182.897 280.72 179.281C283.876 179.84 287.236 179.93 290.687 179.614L290.033 188.388Z" fill="#2E303D"/>
<path d="M270.293 137.802L275.032 157.36C275.032 157.36 266.777 159.804 265.691 157.856C264.605 155.917 270.293 137.802 270.293 137.802Z" fill="#F9785A"/>
<path d="M386.449 195.921C383.981 186.032 377.991 177.475 371.167 169.964C365.643 163.884 359.504 158.384 353.681 152.586C351.858 149.676 350.151 146.699 348.629 143.618C342.923 132.085 339.932 119.398 334.061 107.955C328.18 96.5033 318.323 85.845 305.402 83.8703C286.426 80.9668 268.314 97.4501 249.439 93.9785C248.693 103.383 252.651 113.05 259.829 119.344L260.538 119.56C263.167 111.174 266.669 106.906 267.613 105.86C268.749 111.398 272.674 115.952 276.556 119.975C281.097 124.679 286.208 129.052 292.417 131.479C295.096 132.527 297.943 133.175 300.821 133.29C301.868 133.554 302.927 133.777 304.003 133.925C304.003 133.925 307.777 125.205 313.657 127.775C319.547 130.345 319.547 147.694 310.215 149.966C308.991 161.968 310.777 174.267 315.378 185.458C316.262 187.595 317.283 189.741 318.581 191.661C319.382 192.861 320.293 193.97 321.351 194.944V194.953C321.728 195.295 322.124 195.629 322.548 195.945C330.637 201.995 342.555 198.37 352.08 201.878C360.897 205.124 366.363 214.213 367.799 223.339C369.244 232.464 367.366 241.743 365.507 250.796L365.673 250.85C365.857 250.309 366.032 249.759 366.207 249.218C378.571 244.929 385.896 231.795 386.483 218.872C388.262 211.353 388.322 203.425 386.449 195.921ZM285.369 126.576C282.781 124.729 280.422 122.586 278.19 120.341C276.004 118.143 273.856 115.864 272.061 113.342C270.709 111.443 269.569 109.374 268.887 107.165C272.062 111.875 282.394 125.93 296.037 131.679C292.201 130.715 288.58 128.869 285.369 126.576ZM386.406 214.335C385.512 201.272 379.061 189.081 371.619 178.145C366.55 170.703 360.943 163.572 355.956 156.09C359.504 159.53 363.108 162.917 366.567 166.433C373.874 173.862 380.793 182.156 384.312 192.019C386.855 199.153 387.484 206.867 386.406 214.335Z" fill="#2E303D"/>
<path d="M266.821 137.972C266.821 140.788 265.203 143.069 263.207 143.069C261.211 143.069 259.593 140.787 259.593 137.972C259.593 135.158 261.211 132.876 263.207 132.876C265.203 132.876 266.821 135.157 266.821 137.972Z" fill="#2E303D"/>
<path d="M285.551 137.241C285.551 140.056 283.933 142.338 281.937 142.338C279.94 142.338 278.323 140.056 278.323 137.241C278.323 134.426 279.94 132.145 281.937 132.145C283.933 132.145 285.551 134.426 285.551 137.241Z" fill="#2E303D"/>
<path d="M265.517 126.205C263.727 126.112 261.919 126.283 260.17 126.666C259.23 126.871 258.589 127.989 258.885 128.884C259.204 129.852 260.141 130.364 261.149 130.144C261.582 130.049 262.02 129.979 262.458 129.915C263.473 129.799 264.495 129.759 265.516 129.812C266.48 129.862 267.4 128.946 267.357 128.008C267.311 126.988 266.549 126.258 265.517 126.205Z" fill="#2E303D"/>
<path d="M287.538 127.82C287.262 127.4 286.908 127.177 286.438 126.991C284.362 126.17 282.034 125.849 279.807 126.07C279.306 126.12 278.873 126.238 278.505 126.599C278.186 126.912 277.946 127.425 277.966 127.874C278.007 128.769 278.781 129.779 279.807 129.677C280.728 129.586 281.651 129.602 282.57 129.702C283.561 129.853 284.53 130.101 285.46 130.469C285.873 130.632 286.511 130.498 286.878 130.287C287.26 130.068 287.624 129.638 287.724 129.209C287.831 128.748 287.808 128.229 287.538 127.82Z" fill="#2E303D"/>
<path d="M288.933 163.979C290.268 167.21 289.014 170.754 286.131 171.897C283.25 173.039 279.832 171.347 278.497 168.116C277.163 164.885 278.417 161.34 281.3 160.198C284.182 159.055 287.6 160.749 288.933 163.979Z" fill="#E56B45"/>
<path d="M289.932 159.488C289.932 159.488 292.684 167.198 284.751 169.768C278.29 171.86 275.575 167.703 274.848 166.278L289.932 159.488Z" fill="white"/>
<path d="M365.507 250.796L365.673 250.85C363.114 258.632 360.206 266.441 357.27 273.808V273.817C348.196 296.576 338.846 315.142 338.561 315.692C329.597 303.564 312.903 295.512 307.482 293.122C306.369 292.635 305.734 292.383 305.734 292.383L302.319 302.41C302.605 302.672 302.899 302.933 303.175 303.186L272.225 307.225V294.727C272.225 294.727 271.462 293.104 270.33 290.525C268.783 287.009 266.547 281.707 264.679 276.369C262.627 270.507 261.016 264.601 261.209 260.967C261.725 251.607 282.652 215.512 282.652 215.512C282.68 220.715 283.858 224.917 283.858 224.917C283.95 224.358 284.162 223.762 284.475 223.158C284.567 223.546 287.53 235.521 293.061 244.592L304.841 224.917C305.329 226.152 305.807 227.532 306.24 229.047C306.24 229.047 319.308 208.343 321.351 194.953C321.728 195.295 322.124 195.629 322.547 195.945C330.637 201.995 342.555 198.37 352.08 201.878C360.896 205.124 366.363 214.213 367.799 223.339C369.244 232.464 367.366 241.743 365.507 250.796Z" fill="#4E7DF5"/>
<path d="M357.271 273.817L362.783 321.292H337.953L340.015 317.785C339.564 317.072 339.076 316.378 338.561 315.693C338.846 315.143 348.196 296.576 357.271 273.817Z" fill="#4E7DF5"/>
<path d="M338.561 315.693C339.076 316.378 339.564 317.072 340.015 317.785L337.953 321.292L327.563 339.011C327.563 339.011 323.91 322.176 303.175 303.186C302.899 302.933 302.605 302.672 302.319 302.41L305.734 292.383C305.734 292.383 306.369 292.636 307.482 293.123C312.903 295.512 329.597 303.565 338.561 315.693Z" fill="#0CBCBC"/>
<path d="M327.563 339.011C327.563 339.011 303.792 339.426 237.337 335.666C237.337 335.666 221.811 346.198 215.507 345.531C209.194 344.863 196.742 333.412 193.668 328.65C190.604 323.889 198.62 316.784 198.62 316.784C198.62 316.784 198.703 313.195 203.737 311.103C205.982 310.174 212.139 310.301 218.287 310.724C225.943 311.265 233.582 312.275 233.582 312.275L252.071 309.859L272.225 307.226L303.175 303.186C323.91 322.176 327.563 339.011 327.563 339.011Z" fill="#FF9971"/>
<path d="M321.351 194.944V194.953C319.308 208.343 306.24 229.047 306.24 229.047C305.807 227.532 305.329 226.152 304.841 224.917C301.684 216.91 297.801 214.511 297.801 214.511L318.581 191.662C319.382 192.861 320.293 193.97 321.351 194.944Z" fill="white"/>
<path d="M304.841 224.917L293.061 244.592C287.53 235.521 284.567 223.546 284.475 223.159C284.475 223.15 284.475 223.15 284.475 223.15C286.324 219.489 291.404 215.386 291.404 215.386L292.49 228.551L297.801 214.511C297.801 214.511 301.684 216.91 304.841 224.917Z" fill="#D7F2ED"/>
<path d="M282.616 272.419H289.858H296.972L297.543 301.238H276.311L275.879 272.419H282.616ZM292.481 288.722V275.188H280.941V288.722H292.481Z" fill="white"/>
<path d="M292.481 275.188H280.941V288.722H292.481V275.188Z" fill="#4E7DF5"/>
<path d="M289.223 199.344L291.405 215.386C291.405 215.386 286.325 219.489 284.475 223.15C284.475 223.15 284.475 223.15 284.475 223.159C284.162 223.763 283.95 224.358 283.858 224.917C283.858 224.917 282.68 220.715 282.653 215.512C282.625 209.985 283.886 203.312 289.223 199.344Z" fill="white"/>
<path d="M286.315 268.028L289.858 272.419H282.616L286.315 268.028Z" fill="#B7B7B7"/>
<path d="M272.023 214.024C277.499 201.625 289.444 196.377 289.444 196.377L289.223 199.344C283.886 203.312 282.625 209.984 282.652 215.512C282.652 215.512 261.725 251.607 261.209 260.967C261.016 264.601 262.627 270.507 264.679 276.369L263.427 276.675L254.445 272.401L254.73 271.833C254.73 271.833 266.161 232.139 270.762 217.351C271.121 216.188 271.544 215.079 272.023 214.024Z" fill="#4E7DF5"/>
<path d="M272.225 294.727V307.225L252.071 309.858L190.731 309.734C180.35 314.107 174.982 314.342 170.969 312.385C169.331 312.493 163.188 313.159 161.55 313.258C161.393 314.989 160.85 316.531 159.387 316.531C156.065 316.531 152.356 309.263 152.356 309.263C152.356 309.263 151.334 316.531 148.003 314.782C144.681 313.023 145.573 303.077 145.573 303.077C145.573 303.077 138.027 310.327 137.005 307.595C135.984 304.854 140.972 291.842 153.378 290.715C165.783 289.588 193.797 294.475 193.797 294.475L249.356 285.368L270.329 290.525C271.461 293.104 272.225 294.727 272.225 294.727Z" fill="#FF9971"/>
<path d="M270.33 290.526L249.356 285.368C248.067 275.26 251.491 270.995 251.491 270.995L254.445 272.401L264.679 276.369C266.547 281.707 268.783 287.009 270.33 290.526Z" fill="#0CBCBC"/>
<path d="M228.111 290.42C229.427 291.304 229.786 293.071 228.985 294.424C222.497 293.603 220.951 290.709 220.951 290.709C221.484 289.825 222.543 288.779 223.583 288.725C224.853 288.671 226.509 289.347 228.111 290.42Z" fill="#ED694F"/>
<path d="M228.985 294.424L225.064 301.052C219.902 300.321 217.141 296.976 217.141 296.976L220.951 290.709C220.951 290.709 222.497 293.604 228.985 294.424Z" fill="#FF9076"/>
<path d="M225.064 301.052L218.954 311.385L208.517 311.169L217.141 296.976C217.141 296.976 219.901 300.321 225.064 301.052Z" fill="#4E7DF5"/>
<path d="M325.616 229.882C323.09 237.674 320.564 245.468 318.039 253.26C315.525 261.018 313.01 268.775 310.496 276.532C309.071 280.929 307.646 285.326 306.221 289.723C306.042 290.278 306.93 290.515 307.108 289.963C309.635 282.17 312.16 274.377 314.685 266.584C317.2 258.827 319.714 251.07 322.228 243.313C323.653 238.916 325.078 234.518 326.503 230.121C326.683 229.567 325.794 229.33 325.616 229.882Z" fill="#2E303D"/>
<path d="M356.814 275.098C351.523 285.408 346.661 295.928 342.246 306.626C341.001 309.643 339.791 312.676 338.617 315.72C338.407 316.264 339.296 316.498 339.504 315.96C343.64 305.238 348.219 294.682 353.233 284.327C354.657 281.386 356.117 278.462 357.608 275.554C357.874 275.036 357.08 274.579 356.814 275.098Z" fill="#2E303D"/>
<path d="M281.399 216.557C277.022 224.507 272.539 232.41 268.291 240.427C264.458 247.658 261.073 255.418 261.103 263.711C261.118 268.022 262.076 272.334 264.259 276.101C264.552 276.606 265.347 276.152 265.055 275.646C261.082 268.791 261.44 260.439 263.729 253.108C264.964 249.154 266.729 245.386 268.649 241.711C270.655 237.872 272.789 234.097 274.878 230.301C277.317 225.871 279.755 221.441 282.194 217.012C282.475 216.502 281.681 216.046 281.399 216.557Z" fill="#2E303D"/>
<path d="M304.797 225.969C299.824 236.989 294.852 248.01 289.879 259.03C288.668 261.715 287.456 264.399 286.245 267.084C284.383 256.101 283.586 244.948 283.896 233.818C283.988 230.515 284.177 227.214 284.46 223.921C284.51 223.343 283.588 223.346 283.54 223.921C282.536 235.632 282.735 247.435 284.15 259.105C284.536 262.299 285.015 265.481 285.578 268.65C285.574 268.733 285.595 268.809 285.63 268.878C285.68 269.024 285.785 269.104 285.911 269.127C286.096 269.198 286.307 269.163 286.412 268.93C286.415 268.923 286.418 268.915 286.422 268.908C286.45 268.865 286.475 268.817 286.487 268.764C291.435 257.799 296.381 246.835 301.329 235.87C302.75 232.721 304.17 229.572 305.591 226.424C305.828 225.899 305.036 225.439 304.797 225.969Z" fill="#2E303D"/>
<path d="M271.576 307.44C265.052 308.067 258.528 308.693 252.005 309.32C251.42 309.376 251.415 310.279 252.005 310.222C258.529 309.595 265.053 308.968 271.576 308.342C272.16 308.286 272.167 307.384 271.576 307.44Z" fill="#2E303D"/>
<path d="M180.573 309.115C175.085 310.817 169.418 311.949 163.683 312.448C163.025 312.506 162.367 312.555 161.708 312.596C161.155 312.63 160.583 312.694 160.034 312.583C159.615 312.498 159.146 312.302 159.175 311.806C159.211 311.191 160.009 310.616 160.423 310.232C162.31 308.479 164.334 306.872 166.476 305.427C168.899 303.793 171.464 302.372 174.136 301.17C174.673 300.927 174.206 300.15 173.671 300.39C168.474 302.731 163.682 305.917 159.554 309.798C158.78 310.526 157.767 311.603 158.509 312.699C159.042 313.484 160.178 313.574 161.048 313.538C164.161 313.412 167.282 313.017 170.35 312.496C173.893 311.894 177.389 311.051 180.817 309.986C181.38 309.81 181.139 308.939 180.573 309.115Z" fill="#2E303D"/>
<path d="M152.823 309.149C151.613 305.167 151.597 300.93 152.779 296.94C152.945 296.382 152.057 296.143 151.892 296.7C150.666 300.838 150.681 305.259 151.936 309.389C152.105 309.944 152.993 309.708 152.823 309.149Z" fill="#2E303D"/>
<path d="M149.36 295.483C149.124 295.345 148.88 295.452 148.73 295.644C147.016 297.837 145.848 300.417 145.332 303.133C145.225 303.7 146.112 303.944 146.219 303.373C146.723 300.722 147.852 298.24 149.524 296.1C149.677 295.905 149.555 295.597 149.36 295.483Z" fill="#2E303D"/>
<path d="M291.03 215.357C288.372 217.936 285.876 220.671 283.556 223.546C283.193 223.997 283.84 224.639 284.207 224.184C286.527 221.308 289.023 218.573 291.681 215.994C292.102 215.586 291.452 214.948 291.03 215.357Z" fill="#2E303D"/>
<path d="M306.382 228.12C304.822 222.972 302.108 218.216 298.459 214.211C298.063 213.777 297.414 214.417 297.808 214.849C301.351 218.737 303.98 223.364 305.495 228.36C305.663 228.914 306.552 228.678 306.382 228.12Z" fill="#2E303D"/>
<path d="M293.225 229.302C293.2 228.724 292.279 228.72 292.304 229.302C292.478 233.299 292.653 237.297 292.828 241.294C292.853 241.872 293.774 241.876 293.748 241.294C293.574 237.297 293.399 233.299 293.225 229.302Z" fill="#2E303D"/>
<path d="M296.555 231.602C296.301 231.089 295.615 230.809 295.07 231.018C294.905 231.081 294.758 231.179 294.628 231.296C294.613 231.308 294.592 231.314 294.579 231.33C294.552 231.36 294.54 231.399 294.516 231.43C294.473 231.482 294.418 231.525 294.385 231.585C294.368 231.618 294.368 231.655 294.353 231.688C294.34 231.718 294.335 231.748 294.325 231.779C294.288 231.89 294.262 232 294.258 232.116C294.258 232.129 294.251 232.141 294.251 232.153C294.251 232.186 294.267 232.215 294.268 232.247C294.275 232.321 294.266 232.395 294.287 232.467C294.295 232.496 294.316 232.518 294.326 232.546C294.346 232.6 294.375 232.647 294.401 232.697C294.443 232.777 294.486 232.854 294.545 232.923C294.558 232.939 294.564 232.959 294.578 232.974C294.609 233.007 294.654 233.025 294.69 233.054C294.736 233.093 294.771 233.143 294.823 233.175C294.844 233.188 294.87 233.188 294.891 233.199C294.95 233.229 295.015 233.243 295.077 233.264C295.154 233.289 295.225 233.322 295.306 233.331C295.596 233.372 295.899 233.321 296.138 233.153C296.381 232.982 296.561 232.748 296.642 232.463C296.726 232.17 296.689 231.872 296.555 231.602Z" fill="#2E303D"/>
<path d="M61.8349 311.418L59.1016 333.492L106.175 330.652V339.849L37.6126 347.37L19.0225 333.492L40.2262 284.322L47.8463 266.648L66.7769 271.499L64.4026 290.715L61.8349 311.418Z" fill="#8E8E8E"/>
<path d="M86.9871 144.574L118.802 307.009H105.154L73.1733 144.574H86.9871Z" fill="#8E8E8E"/>
<path d="M106.175 330.652L59.1018 333.492L61.8351 311.418L106.175 330.652Z" fill="#B7B7B7"/>
<path d="M73.1732 144.574L105.154 307.009L64.4027 290.715L66.7771 271.499L47.8465 266.648L40.2264 284.322L36.8489 282.915L0 144.574H73.1732Z" fill="#B7B7B7"/>
<path d="M98.4382 270.915C96.674 260.745 94.8628 250.583 93.0056 240.43C91.1393 230.225 89.226 220.028 87.2657 209.841C85.3156 199.704 83.3194 189.575 81.2764 179.456C79.2342 169.336 77.1451 159.225 75.011 149.124C74.7441 147.861 74.4763 146.598 74.2085 145.337C74.0879 144.768 73.2007 145.009 73.3213 145.576C75.4665 155.676 77.5676 165.784 79.6217 175.901C81.6758 186.018 83.6839 196.145 85.6451 206.28C87.6163 216.466 89.5416 226.66 91.419 236.862C93.2882 247.014 95.1104 257.175 96.8865 267.342C98.6627 277.51 100.393 287.686 102.076 297.868C102.287 299.141 102.496 300.414 102.706 301.687C102.799 302.258 103.687 302.016 103.593 301.447C101.921 291.262 100.203 281.084 98.4382 270.915Z" fill="#2E303D"/>
<path d="M61.0932 271.113C58.2936 280.891 55.3818 290.639 52.3549 300.352C49.3391 310.03 46.211 319.674 42.9715 329.283C41.1383 334.718 39.2691 340.141 37.3659 345.553C37.1727 346.103 38.0617 346.34 38.2531 345.793C41.6306 336.192 44.8977 326.553 48.0516 316.879C51.1935 307.24 54.2231 297.565 57.1395 287.858C58.7896 282.367 60.4029 276.865 61.9803 271.354C62.1405 270.793 61.2533 270.554 61.0932 271.113Z" fill="#2E303D"/>
</svg>
