<svg width="1080" height="758" viewBox="0 0 1080 758" fill="none" xmlns="http://www.w3.org/2000/svg">
<path d="M107.207 721.969C31.1958 639.204 -7.12779 550.552 20.9984 418.853C39.5937 331.781 99.1142 321.386 153.722 269.029C180.673 243.19 163.722 205.579 163.222 168.25C162.079 72.6554 268.764 -1.52444 366.845 0.0237984C473.083 1.70034 519.071 108.507 608.188 114.236C643.182 114.773 674.517 94.2349 705.478 77.9216C797.219 29.5826 942.791 60.4085 950.147 177.309C952.046 240.439 903.655 312.384 975.645 345.588C1033.02 372.051 1067.52 411.422 1077.86 506.072C1091.39 629.957 1019.85 697.95 926.616 729.832L107.207 721.969Z" fill="#E3EAFF"/>
<path d="M1014.38 562.949C1014.38 562.949 1017.17 579.258 996.69 599.417C975.816 619.954 972.045 638.049 972.045 638.049L957.56 643.648C957.56 643.648 964.608 616.588 982.166 600.882C1004.17 581.251 1014.38 562.949 1014.38 562.949Z" fill="#A9B9EB"/>
<path d="M1044.77 582.126C1044.77 582.126 1042.85 594.171 1023.79 605.222C1004.34 616.455 997.461 628.752 997.461 628.752L985.563 632.935C985.563 632.935 997.314 612.278 1013.31 603.936C1033.3 593.488 1044.77 582.126 1044.77 582.126Z" fill="#A9B9EB"/>
<path d="M981.058 580.438C981.058 580.438 968.441 583.934 951.977 610.219C938.558 631.636 939.603 645.675 931.292 658.77L951.085 648.308C955.504 638.501 951.342 629.555 962.571 609.544C973.076 590.806 981.058 580.438 981.058 580.438Z" fill="#A9B9EB"/>
<path d="M859.816 634.76C859.816 634.76 851.274 644.731 852.273 675.701C853.074 700.967 863.643 707.999 864.08 713.915L873.017 704.438C869.893 693.532 862.523 692.123 860.685 669.251C858.98 647.794 859.816 634.76 859.816 634.76Z" fill="#A9B9EB"/>
<path d="M951.149 589.958C951.149 589.958 937.099 607.661 930.991 619.952C922.275 637.408 926.055 649.72 918.433 668.19L904.045 676.884C904.045 676.884 902.098 654.01 913.714 632.902C933.203 597.479 951.149 589.958 951.149 589.958Z" fill="#A9B9EB"/>
<path d="M912.916 587.112C910.776 599.611 906.819 611.73 901.171 623.083C883.81 657.365 893.194 691.28 893.194 691.28L883.153 695.815C883.153 695.815 866.61 668.659 882 640.278C898.296 610.303 912.916 587.112 912.916 587.112Z" fill="#A9B9EB"/>
<path d="M949.414 650.586C949.414 650.586 958.957 650.583 992.594 667.562C1014.15 678.451 1010.58 667.555 1029.6 681.562C1012.88 677.242 1003.15 687.122 982.52 678.16C966.022 670.981 948.986 665.105 931.571 660.588L949.414 650.586Z" fill="#A9B9EB"/>
<path d="M1009.61 697.72C1009.61 697.72 989.604 710.228 959.145 696.911C940.38 688.763 920.403 683.756 900.013 682.09L915.025 669.689C915.025 669.689 931.305 664.882 961.645 681.77C982.494 693.368 1009.61 697.72 1009.61 697.72Z" fill="#A9B9EB"/>
<path d="M980.45 720.813C980.45 720.813 960.44 733.322 929.981 720.005C911.216 711.857 891.238 706.849 870.849 705.184L885.86 692.783C885.86 692.783 902.141 687.975 932.481 704.864C953.329 716.461 980.45 720.813 980.45 720.813Z" fill="#A9B9EB"/>
<path d="M1051.98 648.34C1051.98 648.34 1038.81 653.837 1019.87 644.698C1000.68 635.421 984.47 634.513 984.47 634.513L992.176 630.625C992.176 630.625 1002.47 627.586 1021.65 638.254C1034.84 645.584 1051.98 648.34 1051.98 648.34Z" fill="#A9B9EB"/>
<path d="M972.578 641.14C972.578 641.14 988.515 645.037 1010.42 655.044C1024.26 661.316 1046.28 659.455 1046.28 659.455C1046.28 659.455 1024.4 674.706 1004.18 663.992C981.004 651.7 955.668 646.43 955.668 646.43L972.578 641.14Z" fill="#A9B9EB"/>
<path d="M989.845 632.456C989.845 632.456 1009.73 616.942 1032.59 620.575C1046.16 622.614 1059.97 622.371 1073.46 619.857C1073.46 619.857 1054.26 636.337 1033.63 630.742C1014.58 625.627 997.377 633.298 997.377 633.298L989.845 632.456Z" fill="#A9B9EB"/>
<path d="M865.684 714.894L862.939 712.407C878.283 695.48 938.569 644.189 997.034 628.687L997.983 632.269C940.329 647.561 880.838 698.188 865.684 714.894Z" fill="#A9B9EB"/>
<path d="M895.19 612.131C884.722 598.004 883.315 579.826 890.97 557.598C901.926 578.411 903.332 596.589 895.19 612.131Z" fill="#A9B9EB"/>
<path d="M909.673 581.389C902.191 567.214 903.432 550.646 913.398 531.684C920.41 551.951 919.168 568.52 909.673 581.389Z" fill="#A9B9EB"/>
<path d="M925.586 550.978C920.536 536.613 924.017 521.217 936.029 504.79C939.821 524.811 936.34 540.208 925.586 550.978Z" fill="#A9B9EB"/>
<path d="M961.453 487.785C961.046 505.009 955.446 517.141 944.652 524.18C943.025 511.365 948.625 499.233 961.453 487.785Z" fill="#A9B9EB"/>
<path d="M984.061 481.778C981.168 495.907 974.765 505.067 964.851 509.258C965.393 498.488 971.797 489.328 984.061 481.778Z" fill="#A9B9EB"/>
<path d="M976.088 510.288C980.443 500.427 989.703 494.162 1003.87 491.494C996.101 503.655 986.841 509.92 976.088 510.288Z" fill="#A9B9EB"/>
<path d="M949.585 591.588C934.16 609.614 917.626 617.675 899.982 615.77C909.338 600.742 925.872 592.682 949.585 591.588Z" fill="#A9B9EB"/>
<path d="M927.53 562.373C938.928 553.403 953.9 551.818 972.446 557.619C955.544 567.145 940.572 568.73 927.53 562.373Z" fill="#A9B9EB"/>
<path d="M980.883 538.644C966.179 546.948 953.153 548.327 941.803 542.782C951.714 534.968 964.74 533.589 980.883 538.644Z" fill="#A9B9EB"/>
<path d="M959.922 525.925C969.841 518.14 982.867 516.76 999.001 521.787C984.289 530.091 971.262 531.47 959.922 525.925Z" fill="#A9B9EB"/>
<path d="M888.346 646.812C899.224 606.181 900.208 609.523 910.808 586.071C913.665 579.733 916.687 573.734 919.875 568.073C926.55 556.557 934.456 545.8 943.452 535.988C953.761 524.276 962.624 516.641 970.036 513.085L970.755 512.302C970.872 512.006 971.185 511.836 971.497 511.901C971.786 511.779 972.112 511.784 972.398 511.911C972.641 512.131 972.83 512.404 972.949 512.709C973.07 512.998 973.066 513.324 972.939 513.61L972.658 514.221C972.433 514.461 972.161 514.653 971.86 514.785L971.858 514.936L971.186 515.187C964.018 518.818 955.423 526.287 945.399 537.594C936.563 547.362 928.823 558.068 922.316 569.521C918.989 575.242 915.959 581.13 913.239 587.164L912.538 588.739C922.88 576.581 938.697 571.593 959.987 573.776C943.835 587.789 928.019 592.776 912.538 588.739C902.261 611.84 901.582 607.814 890.988 647.429L888.346 646.812Z" fill="#A9B9EB"/>
<path d="M465.32 687.007C448.657 692.621 430.928 688.367 412.132 674.245C435.306 670.224 453.036 674.477 465.32 687.007Z" fill="#A9B9EB"/>
<path d="M440.524 663.769C424.735 666.527 409.352 660.249 394.375 644.933C415.817 644.496 431.2 650.775 440.524 663.769Z" fill="#A9B9EB"/>
<path d="M416.483 639.272C401.261 639.657 387.682 631.61 375.748 615.127C395.964 617.677 409.542 625.726 416.483 639.272Z" fill="#A9B9EB"/>
<path d="M367.389 585.704C383.652 591.39 393.473 600.451 396.85 612.887C384.155 610.493 374.335 601.432 367.389 585.704Z" fill="#A9B9EB"/>
<path d="M368.628 562.344C381.182 569.443 387.928 578.354 388.865 589.076C378.785 585.247 372.039 576.336 368.628 562.344Z" fill="#A9B9EB"/>
<path d="M393.303 578.7C385.259 571.523 382.147 560.786 383.967 546.486C393.149 557.618 396.261 568.356 393.303 578.7Z" fill="#A9B9EB"/>
<path d="M462.507 628.93C474.914 649.152 477.496 667.364 470.256 683.567C458.835 670.041 456.252 651.829 462.507 628.93Z" fill="#A9B9EB"/>
<path d="M427.923 640.927C422.894 627.323 425.992 612.589 437.218 596.728C441.082 615.74 437.984 630.474 427.923 640.927Z" fill="#A9B9EB"/>
<path d="M421.759 582.863C425.137 599.407 422.442 612.227 413.674 621.32C409.288 609.487 411.983 596.667 421.759 582.863Z" fill="#A9B9EB"/>
<path d="M403.208 598.893C398.851 587.06 401.546 574.241 411.293 560.437C414.668 576.99 411.974 589.809 403.208 598.893Z" fill="#A9B9EB"/>
<path d="M496.212 704.188C460.898 681.337 464.381 681.43 445.328 664.13C440.176 659.461 435.398 654.739 430.992 649.966C422.088 640.07 414.284 629.239 407.716 617.661C399.743 604.247 395.205 593.467 394.102 585.32L393.578 584.395C393.332 584.193 393.268 583.843 393.425 583.566C393.398 583.254 393.502 582.944 393.712 582.712C393.995 582.548 394.313 582.453 394.64 582.433C394.953 582.407 395.262 582.511 395.494 582.721L395.99 583.175C396.148 583.463 396.247 583.781 396.281 584.108L396.423 584.156L396.456 584.872C397.705 592.809 402.168 603.286 409.843 616.302C416.419 627.715 424.224 638.374 433.119 648.088C437.54 653.014 442.211 657.708 447.115 662.153L448.398 663.304C440.011 649.723 440.131 633.139 448.758 613.553C457.122 633.233 457.002 649.817 448.398 663.304C467.216 680.189 463.177 679.597 497.611 701.865L496.212 704.188Z" fill="#A9B9EB"/>
<path d="M648.101 556.702C648.101 556.702 651.35 570.342 635.128 588.501C618.594 607.001 616.389 622.508 616.389 622.508L604.445 628.029C604.445 628.029 608.933 604.764 622.927 590.529C640.464 572.733 648.101 556.702 648.101 556.702Z" fill="#A9B9EB"/>
<path d="M674.847 571.266C674.847 571.266 673.875 581.555 658.361 591.936C642.524 602.492 637.375 613.263 637.375 613.263L627.542 617.448C627.542 617.448 636.356 599.342 649.428 591.418C665.764 581.496 674.847 571.266 674.847 571.266Z" fill="#A9B9EB"/>
<path d="M620.878 573.303C620.878 573.303 610.399 576.945 597.907 600.066C587.724 618.905 589.371 630.72 583.055 642.244L599.223 632.322C602.427 623.79 598.421 616.451 606.828 598.92C614.692 582.504 620.878 573.303 620.878 573.303Z" fill="#A9B9EB"/>
<path d="M521.311 625.828C521.311 625.828 514.63 634.724 517.158 660.857C519.21 682.178 528.529 687.549 529.22 692.528L536.262 684.029C533.027 674.976 526.719 674.186 523.921 654.946C521.313 636.894 521.311 625.828 521.311 625.828Z" fill="#A9B9EB"/>
<path d="M596.105 582.978C596.105 582.978 585.187 598.713 580.69 609.437C574.269 624.671 578.134 634.877 572.694 650.909L561 659.043C561 659.043 558.111 639.807 566.785 621.327C581.339 590.313 596.105 582.978 596.105 582.978Z" fill="#A9B9EB"/>
<path d="M563.621 582.65C562.491 593.336 559.804 603.799 555.645 613.706C542.828 643.638 552.608 671.806 552.608 671.806L544.364 676.186C544.364 676.186 528.899 654.123 540.369 629.288C552.519 603.055 563.621 582.65 563.621 582.65Z" fill="#A9B9EB"/>
<path d="M597.934 634.339C597.934 634.339 606.004 633.818 635.369 646.346C654.185 654.381 650.574 645.363 667.419 656.173C653.046 653.429 645.362 662.312 627.427 655.855C613.086 650.681 598.363 646.64 583.391 643.767L597.934 634.339Z" fill="#A9B9EB"/>
<path d="M651.401 670.922C651.401 670.922 635.161 682.586 608.681 672.981C592.371 667.112 575.206 663.964 557.874 663.664L569.894 652.362C569.894 652.362 583.398 647.412 609.972 660.043C628.231 668.716 651.401 670.922 651.401 670.922Z" fill="#A9B9EB"/>
<path d="M627.996 692.034C627.996 692.034 611.755 703.698 585.275 694.094C568.965 688.224 551.8 685.076 534.468 684.776L546.488 673.474C546.488 673.474 559.993 668.524 586.567 681.155C604.826 689.829 627.996 692.034 627.996 692.034Z" fill="#A9B9EB"/>
<path d="M684.543 626.864C684.543 626.864 673.701 632.228 657.195 625.529C640.46 618.728 626.704 618.842 626.704 618.842L633.008 615.135C633.008 615.135 641.544 612.006 658.343 619.984C669.897 625.465 684.543 626.864 684.543 626.864Z" fill="#A9B9EB"/>
<path d="M617.008 625.092C617.008 625.092 630.696 627.521 649.762 634.792C661.806 639.343 680.323 636.573 680.323 636.573C680.323 636.573 662.652 650.657 644.975 642.698C624.707 633.564 602.997 630.484 602.997 630.484L617.008 625.092Z" fill="#A9B9EB"/>
<path d="M631.136 616.81C631.136 616.81 647.104 602.611 666.636 604.44C678.22 605.426 689.888 604.469 701.157 601.611C701.157 601.611 685.815 616.591 668.07 612.98C651.68 609.691 637.55 617.113 637.55 617.113L631.136 616.81Z" fill="#A9B9EB"/>
<path d="M530.629 693.268L528.173 691.314C540.227 676.167 588.415 629.519 637.01 613.232L638.007 616.21C590.087 632.274 542.535 678.318 530.629 693.268Z" fill="#A9B9EB"/>
<path d="M59.6487 559.151C59.6487 559.151 55.1339 573.313 70.8467 593.796C86.8624 614.663 87.9663 631.233 87.9663 631.233L100.157 638.015C100.157 638.015 97.2536 613.064 83.5855 596.906C66.4532 576.704 59.6487 559.151 59.6487 559.151Z" fill="#A9B9EB"/>
<path d="M30.2192 572.431C30.2192 572.431 30.4324 583.386 46.0124 595.588C61.9194 608.002 66.5113 619.798 66.5113 619.798L76.5763 625C76.5763 625 68.6908 605.16 55.4977 595.749C39.0119 583.966 30.2192 572.431 30.2192 572.431Z" fill="#A9B9EB"/>
<path d="M87.1152 578.857C87.1152 578.857 97.9054 583.537 109.282 608.97C118.557 629.694 115.881 642.054 121.645 654.737L105.338 642.967C102.626 633.693 107.442 626.251 99.9422 607.051C92.9262 589.073 87.1152 578.857 87.1152 578.857Z" fill="#A9B9EB"/>
<path d="M188.223 642.269C188.223 642.269 194.582 652.202 189.84 679.631C185.983 702.009 175.706 706.951 174.581 712.159L167.809 702.616C171.946 693.302 178.678 692.966 183.159 672.846C187.344 653.968 188.223 642.269 188.223 642.269Z" fill="#A9B9EB"/>
<path d="M112.54 591.045C112.54 591.045 122.837 608.545 126.742 620.239C132.324 636.853 127.431 647.338 131.913 664.717L143.632 674.242C143.632 674.242 148.21 654.134 140.502 633.91C127.57 599.97 112.54 591.045 112.54 591.045Z" fill="#A9B9EB"/>
<path d="M146.909 593.271C147.258 604.658 149.27 615.931 152.882 626.735C164.063 659.395 151.495 688.401 151.495 688.401L159.864 693.685C159.864 693.685 177.96 671.583 167.799 644.418C157.031 615.722 146.909 593.271 146.909 593.271Z" fill="#A9B9EB"/>
<path d="M106.54 645.202C106.54 645.202 98.0504 644.012 66.0128 654.933C45.484 661.939 50.0156 652.689 31.3506 662.785C46.7637 661.022 54.1848 671.021 73.6569 665.614C89.2278 661.28 105.114 658.172 121.171 656.32L106.54 645.202Z" fill="#A9B9EB"/>
<path d="M47.1177 679.646C47.1177 679.646 63.3646 693.263 92.1195 685.205C109.828 680.291 128.224 678.322 146.572 679.376L134.759 666.475C134.759 666.475 120.873 660.173 91.7785 671.423C71.7879 679.148 47.1177 679.646 47.1177 679.646Z" fill="#A9B9EB"/>
<path d="M70.1909 703.819C70.1909 703.819 86.4378 717.437 115.193 709.379C132.902 704.464 151.298 702.495 169.645 703.55L157.832 690.649C157.832 690.649 143.947 684.347 114.852 695.597C94.8615 703.321 70.1909 703.819 70.1909 703.819Z" fill="#A9B9EB"/>
<path d="M15.5674 630.443C15.5674 630.443 26.6059 636.972 44.5863 631.197C62.8172 625.331 77.3519 626.541 77.3519 626.541L70.9798 622.123C70.9798 622.123 62.2036 618.139 43.8112 625.244C31.1621 630.123 15.5674 630.443 15.5674 630.443Z" fill="#A9B9EB"/>
<path d="M87.1074 633.916C87.1074 633.916 72.4436 635.4 51.7106 641.578C38.6184 645.436 19.2603 641.041 19.2603 641.041C19.2603 641.041 36.8279 657.331 56.1467 650.315C78.2975 642.263 101.494 640.726 101.494 640.726L87.1074 633.916Z" fill="#A9B9EB"/>
<path d="M72.8259 624.041C72.8259 624.041 57.0677 607.765 36.2736 608.152C23.9479 608.278 11.6883 606.343 0 602.429C0 602.429 15.034 619.481 34.081 617.068C51.6699 614.888 66.0197 623.853 66.0197 623.853L72.8259 624.041Z" fill="#A9B9EB"/>
<path d="M173.032 712.831L175.784 710.959C164.239 693.991 116.985 640.859 66.8989 619.793L65.6089 622.862C115 643.64 161.629 696.083 173.032 712.831Z" fill="#A9B9EB"/>
<path d="M334.118 100.197C337.786 97.4253 342.189 96.0386 347.325 96.0386C358.413 96.0386 364.283 102.072 364.283 110.551C364.283 115.443 361.919 120.416 357.109 125.389C350.994 131.83 346.592 135.009 343.82 135.009C341.13 135.009 339.173 132.89 339.173 130.362C339.173 128.079 341.292 125.797 344.961 122.454C345.206 122.209 345.45 121.965 345.613 121.883C349.771 118.051 351.076 115.932 351.076 113.323C351.076 110.061 348.874 108.268 345.695 108.268C344.227 108.268 342.515 108.594 340.477 109.246C338.439 109.898 336.971 110.224 336.075 110.224C333.792 110.224 331.183 108.268 331.183 105.007C331.182 103.295 332.161 101.665 334.118 100.197ZM345.287 154.577C340.314 154.577 336.971 150.827 336.971 146.261C336.971 142.348 340.314 138.597 345.287 138.597C349.608 138.597 352.951 142.347 352.951 146.261C352.951 150.745 349.771 154.577 345.287 154.577Z" fill="white"/>
<path d="M891.339 316.884C894.214 314.711 897.665 313.625 901.691 313.625C910.381 313.625 914.982 318.354 914.982 324.999C914.982 328.834 913.129 332.732 909.359 336.63C904.566 341.678 901.116 344.17 898.943 344.17C896.834 344.17 895.3 342.508 895.3 340.527C895.3 338.738 896.962 336.949 899.837 334.329C900.029 334.137 900.221 333.945 900.349 333.882C903.607 330.878 904.629 329.217 904.629 327.172C904.629 324.616 902.904 323.21 900.412 323.21C899.262 323.21 897.92 323.466 896.322 323.977C894.725 324.488 893.575 324.744 892.872 324.744C891.083 324.744 889.038 323.21 889.038 320.654C889.038 319.313 889.805 318.035 891.339 316.884ZM900.093 359.506C896.195 359.506 893.575 356.567 893.575 352.988C893.575 349.921 896.195 346.982 900.093 346.982C903.48 346.982 906.099 349.921 906.099 352.988C906.099 356.503 903.607 359.506 900.093 359.506Z" fill="white"/>
<path d="M752.397 364.564H619.205C616.85 364.564 614.942 362.654 614.942 360.3V245.65C614.942 243.295 616.85 241.386 619.205 241.386C621.56 241.386 623.469 243.295 623.469 245.65V356.036H752.396C754.751 356.036 756.66 357.945 756.66 360.299C756.66 362.654 754.752 364.564 752.397 364.564Z" fill="#CDD8FA"/>
<path d="M629.288 336.538C628.221 336.538 627.153 336.14 626.325 335.34C624.632 333.703 624.586 331.004 626.222 329.311L669.27 284.782C670.688 283.315 672.945 283.058 674.656 284.168L695.013 297.372L716.478 272.43C718.014 270.645 720.707 270.444 722.491 271.98C724.276 273.516 724.478 276.208 722.942 277.992L699.048 305.756C697.656 307.372 695.285 307.713 693.496 306.552L672.961 293.232L632.354 335.238C631.517 336.103 630.403 336.538 629.288 336.538Z" fill="#F5A3B7"/>
<path d="M723.034 290.712L716.96 278.405L703.886 274.233L732.992 259.776L723.034 290.712Z" fill="#F5A3B7"/>
<path d="M242.911 160.896C229.953 160.896 219.41 150.352 219.41 137.394C219.41 124.436 229.953 113.893 242.911 113.893C255.87 113.893 266.413 124.436 266.413 137.394C266.413 150.352 255.87 160.896 242.911 160.896ZM242.911 120.366C233.522 120.366 225.883 128.004 225.883 137.394C225.883 146.784 233.522 154.423 242.911 154.423C252.301 154.423 259.94 146.784 259.94 137.394C259.94 128.004 252.301 120.366 242.911 120.366Z" fill="white"/>
<path d="M1011.33 444.72C1000.12 444.72 991.003 435.602 991.003 424.394C991.003 413.187 1000.12 404.069 1011.33 404.069C1022.54 404.069 1031.65 413.187 1031.65 424.394C1031.65 435.602 1022.54 444.72 1011.33 444.72ZM1011.33 409.667C1003.21 409.667 996.601 416.274 996.601 424.394C996.601 432.515 1003.21 439.122 1011.33 439.122C1019.45 439.122 1026.06 432.515 1026.06 424.394C1026.06 416.274 1019.45 409.667 1011.33 409.667Z" fill="white"/>
<path d="M56.1979 442.312C47.6754 442.312 40.7417 435.378 40.7417 426.856C40.7417 418.333 47.6754 411.399 56.1979 411.399C64.7204 411.399 71.654 418.333 71.654 426.856C71.654 435.378 64.7208 442.312 56.1979 442.312ZM56.1979 415.656C50.0229 415.656 44.9986 420.68 44.9986 426.855C44.9986 433.03 50.0225 438.054 56.1979 438.054C62.3732 438.054 67.3971 433.03 67.3971 426.855C67.3975 420.68 62.3732 415.656 56.1979 415.656Z" fill="white"/>
<path d="M973.518 322.555C967.609 322.555 962.801 317.747 962.801 311.838C962.801 305.929 967.609 301.121 973.518 301.121C979.428 301.121 984.236 305.928 984.236 311.838C984.236 317.747 979.428 322.555 973.518 322.555ZM973.518 304.072C969.236 304.072 965.753 307.556 965.753 311.838C965.753 316.119 969.236 319.603 973.518 319.603C977.8 319.603 981.283 316.119 981.283 311.838C981.284 307.556 977.8 304.072 973.518 304.072Z" fill="#E3EAFF"/>
<path d="M137.482 263.313C145.918 259.819 149.925 250.146 146.43 241.71C142.935 233.273 133.263 229.267 124.826 232.761C116.39 236.256 112.383 245.928 115.878 254.365C119.373 262.802 129.045 266.808 137.482 263.313Z" fill="#E3EAFF"/>
<path d="M660.928 79.4166C660.928 88.5482 653.525 95.9512 644.394 95.9512C635.263 95.9512 627.86 88.5482 627.86 79.4166C627.86 70.2854 635.263 62.8823 644.394 62.8823C653.525 62.8823 660.928 70.2854 660.928 79.4166Z" fill="#E3EAFF"/>
<path d="M796.16 252.053C796.16 257.943 791.386 262.718 785.496 262.718C779.605 262.718 774.83 257.943 774.83 252.053C774.83 246.163 779.605 241.387 785.496 241.387C791.386 241.387 796.16 246.162 796.16 252.053Z" fill="white"/>
<path d="M1045.75 472.19C1045.75 478.08 1040.98 482.855 1035.09 482.855C1029.2 482.855 1024.42 478.08 1024.42 472.19C1024.42 466.3 1029.2 461.524 1035.09 461.524C1040.98 461.524 1045.75 466.3 1045.75 472.19Z" fill="white"/>
<path d="M976.764 279.144C976.764 288.276 969.362 295.678 960.23 295.678C951.099 295.678 943.696 288.276 943.696 279.144C943.696 270.012 951.099 262.61 960.23 262.61C969.362 262.61 976.764 270.012 976.764 279.144Z" fill="#E3EAFF"/>
<path d="M295.598 99.9939C295.598 107.404 289.591 113.412 282.181 113.412C274.771 113.412 268.764 107.404 268.764 99.9939C268.764 92.5843 274.771 86.5767 282.181 86.5767C289.591 86.5767 295.598 92.5843 295.598 99.9939Z" fill="white"/>
<path d="M412.979 391.78C412.979 399.19 406.971 405.198 399.561 405.198C392.151 405.198 386.144 399.191 386.144 391.78C386.144 384.37 392.151 378.363 399.561 378.363C406.971 378.363 412.979 384.37 412.979 391.78Z" fill="white"/>
<path d="M547.136 757.81C796.403 757.81 998.474 741.215 998.474 720.744C998.474 700.272 796.403 683.677 547.136 683.677C297.869 683.677 95.7983 700.272 95.7983 720.744C95.7983 741.215 297.869 757.81 547.136 757.81Z" fill="#F3F5FE"/>
<path d="M312.463 724.131L296.779 724.049L338.03 538.824L353.03 541.98L312.463 724.131Z" fill="#617AC9"/>
<path d="M692.786 724.131L708.47 724.049L667.218 538.824L652.219 541.98L692.786 724.131Z" fill="#617AC9"/>
<path d="M597.222 694.107C594.174 694.107 591.702 691.636 591.702 688.587V589.523H602.743V688.587C602.743 691.636 600.271 694.107 597.222 694.107Z" fill="#0E6A41"/>
<path d="M464.205 694.107C461.156 694.107 458.685 691.636 458.685 688.587V589.523H469.726V688.587C469.726 691.636 467.254 694.107 464.205 694.107Z" fill="#0E6A41"/>
<path d="M603.451 589.722H455.676C450.758 589.722 446.772 585.735 446.772 580.818V579.14C446.772 574.223 450.758 570.236 455.676 570.236H603.451C608.368 570.236 612.355 574.223 612.355 579.14V580.818C612.355 585.735 608.368 589.722 603.451 589.722Z" fill="#3F964F"/>
<path d="M579.489 407.065C589.585 410.013 628.452 451.7 637.759 482.545C632.718 510.281 588.685 524.683 588.685 524.683L587.95 503.19C587.95 503.19 602.408 493.563 609.022 482.545C598.489 474.95 577.731 449.398 577.731 449.398L579.489 407.065Z" fill="#201D40"/>
<path d="M482.519 407.065C472.423 410.013 447.39 450.082 437.128 486.307C410.275 503.784 389.223 522.965 389.223 522.965L414.16 524.609C414.16 524.609 446.879 516.545 464.205 497.743C471.425 483.028 484.277 449.398 484.277 449.398L482.519 407.065Z" fill="#201D40"/>
<path d="M547.42 399.356L513.449 400.864L510.023 434.103L513.726 528.952L549.55 528.505L558.914 422.326L547.42 399.356Z" fill="#F3F5FE"/>
<path d="M507.022 349.135C511.753 343.698 515.484 348.973 522.229 342.242C528.973 335.51 534.387 330.666 540.162 337.768C545.936 344.871 548.909 345.868 553.111 345.461C557.312 345.055 557.288 362.338 557.288 362.338C557.288 362.338 567.565 359.628 568.383 348.117C569.348 334.547 563.062 336.584 559.658 325.745C556.253 314.905 543.11 308.789 537.094 311.392C530.753 314.136 527.425 317.154 518.19 314.911C508.954 312.668 500.999 315.385 501.015 327.359C501.03 339.333 486.949 335.76 491.457 350.712C493.205 356.512 498.106 361.85 500.382 361.385C503.43 360.762 503.972 352.64 507.022 349.135Z" fill="#2C2858"/>
<path d="M554.684 360.697C552.42 365.065 553.065 370.468 556.127 372.764C559.187 375.06 563.505 373.381 565.77 369.013C568.035 364.645 567.389 359.242 564.328 356.946C561.267 354.65 556.949 356.329 554.684 360.697Z" fill="#F37A50"/>
<path d="M558.774 370.608C558.855 370.616 558.94 370.608 559.025 370.584C559.49 370.454 559.792 369.892 559.702 369.328C559.25 366.498 559.488 364.408 560.392 363.285C561.61 361.771 563.774 362.224 563.796 362.229C564.258 362.329 564.712 361.952 564.813 361.385C564.912 360.817 564.622 360.274 564.162 360.169C564.037 360.141 561.089 359.502 559.203 361.831C557.843 363.51 557.446 366.19 558.022 369.798C558.096 370.259 558.409 370.578 558.774 370.608Z" fill="#DE623C"/>
<path d="M519.011 407.721L530.83 417.071L542.826 407.721L544.415 384.876H517.422L519.011 407.721Z" fill="#DE623C"/>
<path d="M482.145 407.065L482.76 528.952C494.326 538.446 516.995 541.04 516.995 541.04L512.874 403.081L482.145 407.065Z" fill="#2C2858"/>
<path d="M580.534 407.065L579.918 528.952C568.352 538.446 546.723 541.299 546.723 541.299L549.804 403.081L580.534 407.065Z" fill="#2C2858"/>
<path d="M496.27 422.619L515.795 506.862L512.831 401.593L496.27 422.619Z" fill="#494C7F"/>
<path d="M567.437 416.785L547.42 507.826L549.805 403.081L567.437 416.785Z" fill="#494C7F"/>
<path d="M530.431 326.252C495.595 325.432 503.548 372.356 506.09 379.73C507.477 383.75 516.314 399.17 530.526 399.388C544.739 399.17 553.386 383.75 554.772 379.73C557.315 372.356 566.473 326.801 530.431 326.252Z" fill="#F37A50"/>
<path d="M524.329 359.697C524.682 359.509 524.964 359.19 525.099 358.782C525.377 357.937 524.918 357.028 524.074 356.75C523.819 356.666 517.786 354.747 512.299 358.686C511.577 359.205 511.412 360.21 511.93 360.932C512.449 361.654 513.454 361.82 514.176 361.301C518.349 358.305 523.021 359.792 523.068 359.807C523.503 359.95 523.955 359.898 524.329 359.697Z" fill="#2C2858"/>
<path d="M539.758 359.697C539.406 359.509 539.123 359.19 538.988 358.782C538.71 357.937 539.169 357.028 540.013 356.75C540.268 356.666 546.3 354.747 551.787 358.686C552.51 359.205 552.675 360.21 552.156 360.932C551.638 361.654 550.633 361.82 549.91 361.301C545.737 358.305 541.066 359.792 541.019 359.807C540.585 359.95 540.132 359.898 539.758 359.697Z" fill="#2C2858"/>
<path d="M546.227 364.855C546.227 366.424 544.956 367.696 543.386 367.696C541.817 367.696 540.545 366.424 540.545 364.855C540.545 363.286 541.817 362.015 543.386 362.015C544.955 362.014 546.227 363.286 546.227 364.855Z" fill="black"/>
<path d="M522.477 364.444C522.477 366.013 521.205 367.284 519.637 367.284C518.067 367.284 516.795 366.013 516.795 364.444C516.795 362.875 518.067 361.603 519.637 361.603C521.206 361.603 522.477 362.875 522.477 364.444Z" fill="black"/>
<path d="M532.241 366.626C533.989 370.541 536.229 375.333 536.229 375.333C536.229 375.333 534.381 378.947 529.364 378.301C531.607 377.72 533.903 376.586 533.433 373.638C532.962 370.69 532.241 366.626 532.241 366.626Z" fill="#DE623C"/>
<path d="M533.932 425.808L539.889 505.816L530.954 516.363L522.02 505.816L528.113 426.014L533.932 425.808Z" fill="#201D40"/>
<path d="M537.198 417.211L531.256 415.65L525.18 417.477L528.107 426.163L533.95 426.061L537.198 417.211Z" fill="#201D40"/>
<path d="M530.954 415.666C530.954 415.666 527.019 421.429 520.033 424.693L508.319 406.914L513.449 400.864L530.954 415.666Z" fill="white"/>
<path d="M530.954 415.666C530.954 415.666 536.65 422.311 542.184 424.304L552.793 405.111L547.797 399.356L530.954 415.666Z" fill="white"/>
<path d="M502.879 357.587C506.813 358.898 508.089 337.34 523.393 347.543C534.167 354.726 554.238 353.589 550.223 343.848C553.442 346.233 558.124 350.978 558.124 350.978L551.044 327.543C551.044 327.543 521.835 318.363 511.462 327.663C501.09 336.962 502.879 357.587 502.879 357.587Z" fill="#2C2858"/>
<path d="M508.949 361.548C511.265 366.092 509.915 371.42 505.934 373.449C501.953 375.479 496.848 373.441 494.532 368.896C492.217 364.353 493.566 359.024 497.547 356.995C501.528 354.966 506.632 357.004 508.949 361.548Z" fill="#F37A50"/>
<path d="M502.921 371.078C502.819 371.078 502.717 371.063 502.615 371.032C502.061 370.864 501.749 370.278 501.918 369.724C502.764 366.942 502.689 364.84 501.701 363.645C500.368 362.033 497.675 362.301 497.648 362.304C497.074 362.366 496.556 361.951 496.493 361.377C496.429 360.803 496.84 360.287 497.414 360.221C497.569 360.204 501.24 359.817 503.305 362.296C504.794 364.084 505.001 366.789 503.922 370.335C503.786 370.786 503.37 371.078 502.921 371.078Z" fill="#DE623C"/>
<path d="M532.026 387.561C527.059 387.561 522.795 384.858 522.486 384.556C521.974 384.055 521.965 383.233 522.467 382.722C522.934 382.244 523.678 382.206 524.191 382.607C524.566 382.847 533.24 388.171 538.928 381.912C539.41 381.382 540.23 381.343 540.761 381.824C541.291 382.306 541.33 383.127 540.848 383.657C538.584 386.148 535.747 387.46 532.417 387.556C532.286 387.559 532.156 387.561 532.026 387.561Z" fill="#DE623C"/>
<path d="M597.223 549.298L573.043 527.015H493.168L464.197 549.154L496.915 572.852H569.357L597.223 549.298Z" fill="#201D40"/>
<path d="M485.048 678.371C477.646 694.405 450.815 691.72 455.546 709.533C460.277 727.345 509.3 698.934 509.3 698.934C508.391 694.586 505.6 684.389 503.926 680.512L485.048 678.371Z" fill="black"/>
<path d="M577.504 677.563C585.23 694.297 613.23 691.494 608.293 710.084C603.356 728.673 552.194 699.023 552.194 699.023C553.144 694.485 556.056 683.844 557.803 679.797L577.504 677.563Z" fill="black"/>
<path d="M507.6 581.237C507.42 555.627 485.801 527.177 464.206 546.26C441.559 566.273 478.144 679.95 478.144 679.95C491.611 687.994 498.049 687.729 511.972 679.95C511.972 679.95 507.774 605.953 507.6 581.237Z" fill="#2C2858"/>
<path d="M558.653 581.236C558.833 555.627 580.165 537.924 597.222 549.298C615.689 561.612 585.468 682.561 585.468 682.561C580.246 685.073 565.017 686.699 554.406 683.678C554.406 683.678 558.479 605.953 558.653 581.236Z" fill="#2C2858"/>
<path d="M751.369 724.13C748.32 724.13 745.849 721.659 745.849 718.61V620.803H756.889V718.61C756.889 721.659 754.417 724.13 751.369 724.13Z" fill="#0E6A41"/>
<path d="M790.104 724.13C787.056 724.13 784.584 721.659 784.584 718.61V620.803H795.625V718.61C795.625 721.659 793.153 724.13 790.104 724.13Z" fill="#0E6A41"/>
<path d="M840.931 724.13C837.883 724.13 835.411 721.659 835.411 718.61V620.803H846.452V718.61C846.452 721.659 843.98 724.13 840.931 724.13Z" fill="#0E6A41"/>
<path d="M879.667 724.13C876.618 724.13 874.146 721.659 874.146 718.61V620.803H885.187V718.61C885.187 721.659 882.716 724.13 879.667 724.13Z" fill="#0E6A41"/>
<path d="M818.588 475.65V592.04C818.588 593.365 817.514 594.438 816.19 594.438H744.026C736.746 594.438 730.843 600.341 730.843 607.621C730.843 614.902 736.746 620.804 744.026 620.804H818.588H831.772C839.052 620.804 844.954 614.902 844.954 607.621V594.438V475.65C844.954 468.369 839.052 462.467 831.772 462.467C824.491 462.467 818.588 468.369 818.588 475.65Z" fill="#3F964F"/>
<path d="M888.827 462.467H831.771V596.576H888.827V462.467Z" fill="#3F964F"/>
<path d="M875.644 475.65V592.04C875.644 593.365 874.571 594.438 873.246 594.438H801.082C793.801 594.438 787.899 600.341 787.899 607.621C787.899 614.902 793.801 620.804 801.082 620.804H875.644H888.827C896.108 620.804 902.01 614.902 902.01 607.621V594.438V475.65C902.01 468.369 896.108 462.467 888.827 462.467C881.547 462.467 875.644 468.369 875.644 475.65Z" fill="#0E6A41"/>
<path d="M761.247 501.792C766.728 504.843 766.787 523.835 764.898 524.951C701.695 529.346 685.752 527.039 685.752 527.039L686.548 516.282C686.548 516.282 723.005 504.791 761.247 501.792Z" fill="#F37A50"/>
<path d="M820.77 467.055C811.062 482.579 770.707 524.583 764.112 525.178L756.66 502.279C756.66 502.279 794.504 452.202 801.223 444.484C812.828 431.091 836.667 441.74 820.77 467.055Z" fill="#F37A50"/>
<path d="M674.938 514.756C678.457 514.85 682.191 515.139 687.207 516.004L690.869 517.916L690.481 524.136C685.213 531.364 669.446 532.535 668.002 532.535C664.252 532.536 662.49 532.767 662.243 532.244C661.996 531.721 661.375 528.327 666.832 528.154C673.68 527.935 669.658 522.122 655.456 526.072C651.9 527.061 645.568 524.816 648.133 522.507C650.958 519.96 658.928 514.329 674.938 514.756Z" fill="#F37A50"/>
<path d="M797.549 384.107C796.381 368.213 800.976 354.172 813.649 347.021C826.494 339.773 842.586 346.881 842.586 346.881C842.587 346.881 856.207 342.036 868.549 355.632C880.893 369.23 871.557 381.195 876.606 391.111C879.597 396.984 894.802 398.195 890.874 417.323C889.741 422.839 883.107 426.552 877.488 426.922C867.614 427.57 858.419 423.753 854.417 427.57C841.228 440.148 812.001 435.599 807.911 424.094C806.642 420.527 780.351 427.43 782.974 403.132C784.303 390.82 798.592 398.309 797.549 384.107Z" fill="#0D0C1A"/>
<path d="M821.641 435.485L842.514 431.632L850.341 442.046L833.706 476.152L809.239 455.384L821.641 435.485Z" fill="#F37A50"/>
<path d="M794.583 517.717C794.94 511.228 784.453 484.58 789.973 471.166C793.994 460.377 800.71 442.264 808.936 439.242C812.817 437.816 816.805 436.822 821.641 435.485C821.641 435.485 818.913 449.082 824.597 449.537C835.539 450.416 842.514 431.632 842.514 431.632C848.414 431.068 875.475 439.959 875.462 442.182C875.398 459.586 861.258 484.981 856.633 503.798C854.814 524.122 861.904 548.443 861.93 550.755C861.93 550.755 818.397 562.993 792.591 548.786C792.051 546.809 794.091 526.678 794.583 517.717Z" fill="#E73E41"/>
<path d="M855.381 529.874C855.381 529.874 864.992 554.12 867.336 569.384C869.679 584.646 856.453 594.44 856.453 594.44H746.461C746.461 594.44 734.686 575.344 738.078 562.157C741.47 548.971 749.271 546.874 749.271 546.874L855.381 529.874Z" fill="#E73E41"/>
<path d="M744.988 546.198C759.031 544.217 799.787 560.047 817.165 594.44H768.548L744.988 546.198Z" fill="#DE623C"/>
<path d="M760.388 558.857C758.573 556.87 756.926 554.422 755.475 551.866C751.377 544.645 741.498 543.425 735.92 549.575C715.649 571.925 672.434 622.875 662.8 629.215C660.078 631.006 644.195 640.151 629.096 638.343C629.096 638.343 621.643 641.181 626.609 647.099C629.164 650.145 667.535 653.292 667.535 653.292L670.526 642.025C692.862 625.494 720.667 626.683 744.244 596.461C757.226 579.818 760.388 558.857 760.388 558.857Z" fill="#DE623C"/>
<path d="M659.763 659.792L644.322 669.814L642.2 667.284L654.724 655.604C647.61 649.991 631.131 654.675 631.131 654.675C625.734 651.189 615.212 639.881 614.127 633.823C617.583 629.515 629.093 638.375 629.093 638.375C628.67 640.294 632.307 646.94 635.199 648.076C647.771 650.789 660.301 647.217 670.525 642.025C670.525 642.025 679.069 654.972 659.763 659.792Z" fill="#201D40"/>
<path d="M760.613 561.892C763.425 562.649 765.523 565.005 765.93 567.888C767.029 575.688 772.709 591.486 765.025 608.029C746.162 648.642 735.025 675.402 733.046 685.884C737.974 695.111 718.326 720.319 718.034 721.969L703.893 717.543C703.893 717.543 712.007 705.473 714.928 700.747C721.885 689.492 723.023 675.682 724.154 664.976C728.981 619.273 720.681 590.417 753.75 563.608C755.705 562.023 758.181 561.238 760.613 561.892Z" fill="#F37A50"/>
<path d="M740.091 705.215L738.697 723.57L735.398 723.724L733.705 706.682C724.928 708.936 718.66 724.879 718.66 724.879C712.615 727.057 697.244 728.566 691.768 725.756C690.439 720.396 704.463 716.615 704.463 716.615C705.733 718.115 713.223 719.254 715.88 717.642C725.66 709.29 730.975 697.16 733.046 685.884C733.046 685.884 747.965 686.94 740.091 705.215Z" fill="#201D40"/>
<path d="M826.915 418.438L843.865 415.899L842.514 431.632C842.514 431.632 839.27 438.76 835.507 439.242L821.641 435.485L826.915 418.438Z" fill="#F37A50"/>
<path d="M859.546 395.691C855.17 413.965 839.989 425.993 825.636 422.557C811.284 419.119 803.196 401.52 807.572 383.246C811.948 364.972 827.129 352.944 841.482 356.381C855.834 359.817 863.922 377.417 859.546 395.691Z" fill="#F37A50"/>
<path d="M814.298 388.046C813.666 389.315 812.125 389.831 810.857 389.199C809.587 388.568 809.071 387.026 809.703 385.758C810.336 384.489 811.876 383.973 813.145 384.605C814.414 385.236 814.93 386.777 814.298 388.046Z" fill="black"/>
<path d="M834.457 393.019C833.773 394.393 832.105 394.951 830.731 394.267C829.358 393.583 828.799 391.916 829.483 390.541C830.167 389.168 831.835 388.61 833.208 389.293C834.582 389.978 835.141 391.646 834.457 393.019Z" fill="black"/>
<path d="M837.528 390.718C837.339 390.624 837.179 390.467 837.083 390.259C835.691 387.256 831.929 386.67 831.891 386.664C831.364 386.587 830.997 386.098 831.074 385.571C831.15 385.044 831.636 384.677 832.164 384.752C832.36 384.78 836.996 385.477 838.836 389.447C839.06 389.931 838.85 390.506 838.365 390.73C838.088 390.858 837.782 390.844 837.528 390.718Z" fill="#0D0C1A"/>
<path d="M808.701 384.327C808.608 384.28 808.521 384.218 808.444 384.14C808.069 383.761 808.073 383.149 808.453 382.774C811.4 379.862 815.032 381.07 815.185 381.123C815.689 381.296 815.958 381.847 815.784 382.351C815.61 382.855 815.063 383.122 814.56 382.951C814.441 382.911 811.884 382.101 809.811 384.149C809.509 384.446 809.06 384.505 808.701 384.327Z" fill="#0D0C1A"/>
<path d="M815.949 393.628C814.54 395.076 813.305 396.568 811.961 397.416C811.508 397.701 811.363 398.304 811.626 398.771C812.712 400.697 815.883 402.283 817.827 403.109C818.111 403.229 818.344 402.858 818.112 402.655C816.15 400.934 815.307 399.666 814.952 398.97C814.777 398.625 814.781 398.218 814.956 397.871C815.359 397.077 816.16 395.456 816.702 394.113C816.889 393.649 816.297 393.269 815.949 393.628Z" fill="#DE623C"/>
<path d="M852.64 395.807C849.153 398.52 848.125 403.034 850.346 405.888C852.566 408.742 857.194 408.856 860.681 406.142C864.169 403.429 865.196 398.916 862.975 396.062C860.755 393.208 856.127 393.094 852.64 395.807Z" fill="#F37A50"/>
<path d="M854.626 405.06C854.495 404.995 854.378 404.899 854.285 404.775C852.946 402.994 852.82 400.992 853.948 399.421C855.103 397.812 857.249 397.075 859.049 397.67C859.555 397.838 859.83 398.384 859.663 398.891C859.495 399.397 858.949 399.672 858.442 399.505C857.456 399.179 856.171 399.637 855.517 400.548C854.89 401.423 855 402.512 855.829 403.615C856.15 404.041 856.064 404.647 855.637 404.967C855.335 405.195 854.943 405.217 854.626 405.06Z" fill="#DE623C"/>
<path d="M831.814 408.199C832.219 407.653 831.782 406.891 831.107 406.971C829.393 407.175 826.559 407.455 823.855 407.455C821.149 407.455 818.316 407.175 816.602 406.971C815.928 406.891 815.491 407.653 815.895 408.199C817.138 409.876 819.709 412.422 823.855 412.422C828.001 412.422 830.571 409.876 831.814 408.199Z" fill="white"/>
<path d="M859.901 394.075C842.77 391.78 818.8 374.328 816.834 365.371C820.148 354.611 837.802 349.204 847.771 354.188C857.74 359.172 867.157 380.535 859.901 394.075Z" fill="#0D0C1A"/>
<path d="M945.503 410.459C936.193 405.982 938.169 397.296 938.169 397.296C934.122 397.826 924.965 434.925 923.198 457.061C902.934 447.326 869.427 436.362 861.898 437.705C861.898 437.705 851.391 438.535 852.066 451.355C852.668 462.797 867.27 465.867 867.27 465.867C867.27 465.867 931.461 483.858 937.905 477.941C947.933 468.733 943.297 421.815 945.503 410.459Z" fill="#F37A50"/>
<path d="M955.912 405.797C951.817 407.54 945.902 407.311 945.624 411.638L935.928 410.546L933.656 405.74C936.714 391.838 952.876 382.457 954.536 381.698C958.849 379.725 960.754 378.53 961.313 379.002C961.872 379.474 964.372 383.051 958.187 386.122C950.425 389.978 958.112 394.546 972.368 382.53C975.937 379.522 984.401 378.772 982.667 382.778C980.756 387.194 974.552 397.864 955.912 405.797Z" fill="#F37A50"/>
<path d="M286.568 725.389H287.01C290.581 725.389 293.477 722.493 293.477 718.921V608.331H280.102V718.921C280.102 722.493 282.997 725.389 286.568 725.389Z" fill="#0E6A41"/>
<path d="M239.641 725.389H240.082C243.654 725.389 246.549 722.493 246.549 718.921V608.331H233.173V718.921C233.174 722.493 236.069 725.389 239.641 725.389Z" fill="#0E6A41"/>
<path d="M171.597 719.135C171.597 722.589 174.592 725.389 178.285 725.389C181.979 725.389 184.973 722.589 184.973 719.135V608.331H171.597V719.135Z" fill="#0E6A41"/>
<path d="M131.137 725.389H131.578C135.149 725.389 138.045 722.493 138.045 718.921V608.331H124.669V718.921C124.669 722.493 127.565 725.389 131.137 725.389Z" fill="#0E6A41"/>
<path d="M205.353 432.477V573.483C205.353 575.088 206.654 576.388 208.258 576.388H295.685C304.505 576.388 311.656 583.539 311.656 592.359C311.656 601.181 304.505 608.33 295.685 608.33H205.353H189.382C180.561 608.33 173.411 601.181 173.411 592.359V576.388V432.477C173.411 423.656 180.561 416.506 189.382 416.506H189.382C198.203 416.506 205.353 423.656 205.353 432.477Z" fill="#3F964F"/>
<path d="M120.26 578.979H189.382L189.382 416.507H120.26L120.26 578.979Z" fill="#3F964F"/>
<path d="M136.231 432.477V573.483C136.231 575.088 137.531 576.388 139.136 576.388H226.563C235.383 576.388 242.534 583.539 242.534 592.359C242.534 601.181 235.383 608.33 226.563 608.33H136.231H120.26C111.439 608.33 104.289 601.181 104.289 592.359V576.388V432.477C104.289 423.656 111.439 416.506 120.26 416.506H120.26C129.081 416.506 136.231 423.656 136.231 432.477Z" fill="#0E6A41"/>
<path d="M324.734 433.36C320.386 428.83 315.361 426.906 315.294 418.68C315.271 415.691 315.523 412.57 315.688 408.942C315.944 403.344 317.051 398.64 318.222 398.407C320.872 397.877 321.739 399.336 322.164 402.644C322.493 405.202 321.029 408.605 322.842 410.062C324.454 411.358 326.749 412.192 332.323 405.705C339.441 397.422 340.52 393.274 343.485 395.295C345.432 396.621 342.218 401.029 335.668 408.992C340.582 406.238 346.544 393.563 350.167 396.877C352.799 399.284 341.229 411.082 337.746 413.437C345.064 410.568 350.221 399.86 352.257 400.952C356.408 403.454 347.571 413.75 341.179 416.718C348.066 415.522 350.366 409.097 352.156 410.423C355.494 412.898 345.396 423.505 337.801 427.119C335.554 428.189 324.734 433.36 324.734 433.36Z" fill="#F37A50"/>
<path d="M326.831 413.432C327.469 415.477 328.157 418.193 326.45 420.964C324.816 423.616 321.094 424.046 321.094 424.046C323.512 424.652 326.127 424.107 327.666 421.83C329.515 419.091 328.719 415.217 326.831 413.432Z" fill="#DE623C"/>
<path d="M276.328 458.254C291.205 446.943 312.752 421.804 312.752 421.804C321.289 425.541 325.797 434.984 325.797 434.984C315.502 472.087 283.562 502.84 269.031 505.062C255.766 507.089 222.178 443.092 238.474 412.054L245.285 410.55C263.819 419.656 276.328 458.254 276.328 458.254Z" fill="#C4204A"/>
<path d="M348.338 706.265L364.205 710.285L370.686 696.152C370.012 695.653 368.972 686.258 368.335 679.107L342.724 682.64C343.98 689.855 346.096 699.292 348.338 706.265Z" fill="#F37A50"/>
<path d="M376.339 714.597C376.339 714.597 381.826 705.372 388.779 704.791C388.779 704.791 401.899 705.543 406.501 711.061C407.946 712.793 407.391 716.491 406.819 718.859C406.462 720.337 405.209 721.941 401.331 723.161C395.603 724.963 387.879 726.067 373.648 722.378C356.576 717.953 353.851 719.775 347.541 717.742C341.002 715.635 343.104 707.642 344.888 699.857C344.888 699.857 349.646 709.384 376.339 714.597Z" fill="#201D40"/>
<path d="M371.116 694.769C371.116 694.769 378.735 699.384 388.699 701.672C394.273 702.951 409.131 705.833 406.739 715.739C406.382 717.217 405.128 718.822 401.251 720.042C395.523 721.843 387.799 722.947 373.568 719.259C356.496 714.833 353.77 716.655 347.461 714.622C340.922 712.516 343.94 703.443 345.723 695.658C345.885 697.634 346.799 702.819 358.66 707.464C362.202 708.85 359.309 693.235 371.116 694.769Z" fill="#2C2858"/>
<path d="M368.898 706.704C369.467 706.666 369.971 706.268 370.116 705.685C371.321 700.84 376.328 700.498 376.541 700.484C377.281 700.441 377.851 699.807 377.812 699.066C377.772 698.325 377.144 697.756 376.403 697.792C373.914 697.91 368.856 699.585 367.501 705.035C367.321 705.758 367.761 706.488 368.483 706.668C368.623 706.702 368.762 706.714 368.898 706.704Z" fill="#494C7F"/>
<path d="M375.155 709.212C375.724 709.175 376.227 708.775 376.373 708.192C377.578 703.348 382.585 703.005 382.797 702.991C383.537 702.948 384.108 702.315 384.068 701.573C384.029 700.832 383.401 700.263 382.659 700.299C380.171 700.417 375.113 702.093 373.757 707.543C373.577 708.265 374.017 708.996 374.739 709.176C374.879 709.21 375.019 709.221 375.155 709.212Z" fill="#494C7F"/>
<path d="M286.355 712.241L301.899 717.368L309.358 703.725C308.721 703.181 306.488 693.257 306.355 686.079L282.417 688.28C283.162 695.566 284.608 705.127 286.355 712.241Z" fill="#F37A50"/>
<path d="M260.554 535.283C295.996 541.756 346.333 564.714 351.297 569.937C361.553 580.724 366.576 617.827 371.413 683.911L340.395 685.981C328.946 634.357 318.174 611.849 316.416 590.883C316.416 590.883 289.235 592.763 248.335 576.98C228.173 569.2 207.162 560.122 213.209 541.907C218.027 527.395 226.76 529.11 260.554 535.283Z" fill="#201D40"/>
<path d="M220.913 538.369C250.359 541.412 289.635 575.105 294.6 580.328C304.856 591.115 306.148 627.956 310.985 694.039L280.116 696.885C275.117 662.65 260.509 623.424 260.552 598.286C260.552 598.286 232.92 592.296 190.149 582.677C166.752 577.414 159.731 573.79 155.256 558.511C153.733 553.313 151.67 541.27 154.004 538.582C164.336 526.693 193.04 535.49 220.913 538.369Z" fill="#2C2858"/>
<path d="M313.7 722.523C313.7 722.523 319.822 713.706 326.799 713.616C326.799 713.616 339.833 715.289 344.035 721.117C345.355 722.947 344.541 726.596 343.804 728.918C343.344 730.368 341.981 731.88 338.027 732.824C332.187 734.218 324.404 734.776 310.468 730.095C293.75 724.479 290.903 726.105 284.753 723.634C278.378 721.072 281.036 713.246 283.363 705.606C283.363 705.606 287.44 715.445 313.7 722.523Z" fill="#201D40"/>
<path d="M309.885 702.376C309.885 702.376 317.161 707.516 326.939 710.498C332.409 712.168 347.028 716.088 343.944 725.801C343.484 727.25 342.121 728.763 338.167 729.706C332.327 731.101 324.544 731.658 310.608 726.978C293.889 721.362 291.043 722.988 284.892 720.516C278.517 717.954 282.166 709.117 284.494 701.477C284.515 703.459 285.063 708.696 296.568 714.163C300.003 715.795 298.215 700.015 309.885 702.376Z" fill="#2C2858"/>
<path d="M304.226 714.643C304.795 714.605 305.299 714.206 305.444 713.623C306.649 708.778 311.657 708.437 311.869 708.422C312.609 708.379 313.179 707.746 313.14 707.004C313.1 706.263 312.472 705.694 311.731 705.731C309.243 705.848 304.184 707.523 302.829 712.973C302.649 713.695 303.089 714.427 303.811 714.606C303.951 714.64 304.09 714.652 304.226 714.643Z" fill="#494C7F"/>
<path d="M310.483 717.151C311.052 717.113 311.556 716.714 311.701 716.131C312.906 711.286 317.914 710.944 318.125 710.93C318.866 710.887 319.436 710.254 319.397 709.512C319.357 708.771 318.729 708.202 317.988 708.238C315.5 708.356 310.441 710.031 309.086 715.481C308.906 716.204 309.346 716.935 310.068 717.114C310.208 717.148 310.347 717.16 310.483 717.151Z" fill="#494C7F"/>
<path d="M201.469 380.869H201.483L213.232 380.912L215.893 408.661L202.178 415.903L187.553 408.743L189.917 380.912L201.469 380.869Z" fill="#DE623C"/>
<path d="M199.932 377.621C189.803 381.19 181.385 369.12 181.385 369.12C174.775 369.496 174.427 362.907 174.427 362.907C171.195 362.658 166.439 360.314 166.443 354.253C166.446 349.122 171.289 348.278 170.624 342.418C170.09 337.715 164.273 327.201 178.733 323.047C178.733 323.047 177.181 314.432 185.527 310.421C195.759 305.502 199.881 311.39 204.872 311.495C210.447 311.612 220.72 304.208 224.941 316.107C224.941 316.107 232.524 314.594 237.221 319.308C241.598 323.699 241.168 330.66 239.534 333.55C239.534 333.55 246.044 334.256 248.718 339.675C250.51 343.309 250.125 348.609 246.838 351.876C244.746 353.955 242.466 354.615 242.466 354.615C240.085 355.571 241.412 362.221 239.522 363.987C236.488 366.822 233.017 369.12 229.414 371.13L199.932 377.621Z" fill="#2C2858"/>
<path d="M179.649 362.529C181.586 381.895 197.881 397.635 213.091 396.115C228.3 394.593 236.664 376.386 234.728 357.021C232.791 337.655 218.891 323.19 203.682 324.71C188.472 326.232 177.712 343.164 179.649 362.529Z" fill="#F37A50"/>
<path d="M226.844 364.052C227.315 365.443 228.825 366.188 230.215 365.717C231.606 365.245 232.351 363.737 231.88 362.346C231.409 360.955 229.899 360.21 228.509 360.681C227.118 361.153 226.372 362.662 226.844 364.052Z" fill="black"/>
<path d="M206.331 364.458C206.841 365.964 208.475 366.77 209.98 366.26C211.485 365.75 212.292 364.117 211.782 362.611C211.272 361.106 209.638 360.299 208.133 360.809C206.628 361.319 205.821 362.953 206.331 364.458Z" fill="black"/>
<path d="M218.481 364.583C221.148 368.302 224.518 372.832 224.518 372.832C224.518 372.832 223.361 377.007 217.975 377.408C220.196 376.32 222.354 374.641 221.23 371.659C220.107 368.678 218.481 364.583 218.481 364.583Z" fill="#DE623C"/>
<path d="M202.753 361.103C202.655 361.075 202.558 361.035 202.466 360.983C201.828 360.622 201.605 359.812 201.965 359.175C202.951 357.434 205.843 354.434 209.735 355.537C210.442 355.749 210.849 356.47 210.649 357.175C210.45 357.88 209.716 358.29 209.011 358.089C206.13 357.273 204.292 360.449 204.274 360.482C203.965 361.027 203.33 361.27 202.753 361.103Z" fill="#2C2858"/>
<path d="M226.653 358.735C226.47 358.682 226.299 358.582 226.158 358.434C225.738 357.991 225.756 357.292 226.199 356.871C226.268 356.805 227.924 355.259 230.146 355.477C231.663 355.626 233.016 356.528 234.167 358.157C234.519 358.656 234.401 359.346 233.902 359.698C233.403 360.05 232.713 359.931 232.361 359.433C231.598 358.352 230.78 357.761 229.929 357.677C228.722 357.559 227.731 358.465 227.721 358.474C227.426 358.754 227.017 358.84 226.653 358.735Z" fill="#2C2858"/>
<path d="M238.269 337.346L204.266 318.072L172.059 344.435L182.225 369.591C180.517 357.318 188.762 359.601 191.814 355.24C194.909 350.819 195.378 344.864 205.566 347.818C205.566 347.818 211.854 341.116 217.211 347.466C221.353 352.376 225.108 350.444 229.142 349.87C233.9 349.194 233.776 353.987 236.606 353.217L238.269 337.346Z" fill="#2C2858"/>
<path d="M183.842 360.723C187.054 363.983 187.495 368.757 184.827 371.385C182.16 374.014 177.393 373.502 174.181 370.243C170.969 366.983 170.527 362.209 173.194 359.58C175.863 356.951 180.63 357.463 183.842 360.723Z" fill="#F37A50"/>
<path d="M180.546 369.953C180.689 369.904 180.822 369.822 180.935 369.707C182.552 368.06 182.953 366.022 182.008 364.255C181.04 362.446 178.938 361.398 177.009 361.764C176.466 361.867 176.11 362.391 176.213 362.934C176.315 363.477 176.839 363.834 177.382 363.73C178.439 363.53 179.696 364.175 180.243 365.199C180.769 366.183 180.508 367.286 179.507 368.305C179.12 368.7 179.125 369.333 179.52 369.72C179.799 369.995 180.199 370.072 180.546 369.953Z" fill="#DE623C"/>
<path d="M224.743 383.527C225.234 382.927 224.778 382.033 224.003 382.088C222.035 382.227 218.784 382.389 215.695 382.241C212.607 382.092 209.387 381.618 207.441 381.291C206.676 381.161 206.135 382.008 206.567 382.652C207.894 384.636 210.689 387.684 215.422 387.912C220.156 388.14 223.231 385.375 224.743 383.527Z" fill="white"/>
<path d="M154.01 539.118C154.01 539.118 178.597 541.655 201.636 541.808C224.676 541.638 249.263 537.168 249.263 537.168C249.263 537.168 246.166 494.857 246.482 478.608C246.93 459.95 245.286 435.209 245.286 410.551C245.286 410.551 228.944 407.92 219.725 406.784C218.226 406.598 216.917 406.455 215.894 406.365C215.894 406.365 210.641 417.385 187.754 406.365C186.551 406.245 185.063 406.252 183.399 406.349C173.784 406.923 158.3 410.551 158.3 410.551C158.3 435.143 157.306 459.243 157.638 477.903C156.615 494.547 154.01 539.118 154.01 539.118Z" fill="#E73E41"/>
<path d="M217.837 477.879C215.982 472.205 212.471 468.484 215.807 461.41C217.021 458.839 218.524 456.271 220.163 453.231C222.691 448.541 225.581 444.97 226.68 445.252C229.169 445.892 229.31 447.5 228.309 450.508C227.535 452.835 224.877 455.144 225.829 457.142C226.675 458.917 228.296 460.579 235.748 457.321C245.262 453.162 247.898 450.055 249.604 453.009C250.724 454.948 246.152 457.399 237.256 461.517C242.602 461.185 252.938 452.789 254.675 457.122C255.936 460.27 241.157 465.602 237.203 466.182C244.655 466.743 253.49 459.699 254.784 461.475C257.307 465.331 245.49 470.503 238.79 470.408C245.183 472.225 249.804 467.671 250.79 469.546C252.628 473.043 239.602 477.962 231.605 477.924C229.238 477.915 217.837 477.879 217.837 477.879Z" fill="#F37A50"/>
<path d="M163.009 472.307C181.653 471.004 213.457 461.796 213.457 461.796C218.546 469.602 217.138 479.97 217.138 479.97C188.186 505.354 144.612 513.56 131.243 507.45C119.037 501.872 127.654 427.571 158.299 410.551L159.362 410.65C169.868 428.428 163.009 472.307 163.009 472.307Z" fill="#C4204A"/>
<path d="M183.398 406.348V406.351C184.99 409.009 187.243 411.02 190.419 412.618C195.449 415.156 202.286 416.232 206.495 415.903C209.827 415.641 213.523 414.282 215.892 412.404C218.407 410.407 219.501 407.863 219.724 406.783C218.225 406.597 216.687 406.365 215.664 406.276C215.664 406.276 210.641 417.385 187.754 406.365C186.551 406.245 185.063 406.252 183.398 406.348Z" fill="#C4204A"/>
<path d="M247.063 524.846H353.582L374.607 457.994C375.579 454.906 373.273 451.764 370.036 451.764H273.565C271.472 451.764 269.621 453.122 268.994 455.118L247.063 524.846Z" fill="#7F95DB"/>
<path d="M255.143 524.846H361.661L382.687 457.994C383.659 454.906 381.352 451.764 378.116 451.764H281.645C279.552 451.764 277.701 453.122 277.073 455.118L255.143 524.846Z" fill="#F3F5FE"/>
<path d="M317.853 489.622C316.68 493.751 318.769 497.963 322.518 499.028C326.268 500.094 330.259 497.609 331.433 493.48C332.606 489.35 330.517 485.139 326.767 484.074C323.017 483.009 319.026 485.492 317.853 489.622Z" fill="#B4C2F0"/>
<path d="M186.549 517.866H255.143V524.679H179.736C179.735 520.916 182.786 517.866 186.549 517.866Z" fill="#7F95DB"/>
<path d="M750.368 524.846H646.721L626.263 459.796C625.317 456.791 627.562 453.734 630.711 453.734H724.581C726.618 453.734 728.419 455.056 729.03 456.998L750.368 524.846Z" fill="#7F95DB"/>
<path d="M742.507 524.846H638.86L618.401 459.796C617.456 456.791 619.699 453.734 622.849 453.734H716.72C718.756 453.734 720.556 455.056 721.168 456.998L742.507 524.846Z" fill="#F3F5FE"/>
<path d="M681.487 490.572C682.628 494.59 680.596 498.688 676.947 499.724C673.298 500.761 669.415 498.344 668.273 494.326C667.132 490.307 669.164 486.21 672.813 485.173C676.462 484.137 680.345 486.553 681.487 490.572Z" fill="#B4C2F0"/>
<path d="M809.252 518.054H742.507V524.683H815.881C815.881 521.022 812.913 518.054 809.252 518.054Z" fill="#7F95DB"/>
<path d="M850.357 542.721H146.307C138.84 542.721 132.786 538.648 132.786 533.622C132.786 528.598 138.84 524.524 146.307 524.524H850.357C857.824 524.524 863.878 528.598 863.878 533.622C863.878 538.647 857.824 542.721 850.357 542.721Z" fill="#617AC9"/>
<path d="M586.865 520.761H468.637L464.222 452.69C463.928 448.162 467.522 444.328 472.059 444.328H583.445C587.982 444.328 591.576 448.162 591.283 452.691L586.865 520.761Z" fill="#B4C2F0"/>
<path d="M586.865 524.524H468.637L464.222 456.453C463.928 451.925 467.522 448.091 472.059 448.091H583.445C587.982 448.091 591.576 451.925 591.283 456.453L586.865 524.524Z" fill="#F3F5FE"/>
<path d="M532.887 489.59C532.887 493.483 529.732 496.637 525.84 496.637C521.948 496.637 518.793 493.483 518.793 489.59C518.793 485.699 521.948 482.544 525.84 482.544C529.732 482.544 532.887 485.699 532.887 489.59Z" fill="#B4C2F0"/>
<path d="M583.107 520.138C583.314 519.853 583.57 519.624 583.846 519.422C583.797 519.388 583.747 519.358 583.698 519.323C580.822 517.243 579.702 513.884 581.195 511.823C581.44 511.484 581.745 511.207 582.088 510.981C580.802 509.124 580.53 506.992 581.597 505.52C582.02 504.936 582.612 504.524 583.302 504.273C581.897 502.502 581.618 500.193 582.812 498.545C584.306 496.483 587.506 496.25 589.96 498.026C592.415 499.802 593.194 502.913 591.7 504.975C591.323 505.497 590.835 505.901 590.277 506.186C592.567 508.267 593.36 511.188 592.01 513.053C591.764 513.391 591.46 513.668 591.116 513.895C592.403 515.752 592.675 517.883 591.608 519.356C591.215 519.899 590.677 520.293 590.05 520.549C591.368 522.064 591.664 524.12 590.614 525.569C589.352 527.311 586.65 527.507 584.577 526.007C582.504 524.508 581.846 521.88 583.107 520.138Z" fill="#F37A50"/>
<path d="M406.026 528.511C405.751 528.29 405.537 528.022 405.349 527.737C405.312 527.784 405.28 527.833 405.242 527.88C403.018 530.646 399.608 531.595 397.624 529.999C397.299 529.737 397.037 529.418 396.829 529.064C394.909 530.254 392.767 530.418 391.35 529.278C390.788 528.826 390.407 528.214 390.191 527.512C388.351 528.826 386.031 528.987 384.445 527.71C382.462 526.114 382.393 522.906 384.29 520.545C386.188 518.184 389.336 517.563 391.319 519.16C391.821 519.563 392.2 520.071 392.455 520.642C394.651 518.461 397.608 517.818 399.402 519.261C399.728 519.523 399.989 519.841 400.198 520.196C402.118 519.005 404.26 518.842 405.677 519.981C406.199 520.401 406.566 520.958 406.789 521.598C408.37 520.358 410.438 520.167 411.832 521.289C413.507 522.637 413.566 525.346 411.962 527.34C410.36 529.335 407.702 529.859 406.026 528.511Z" fill="#F37A50"/>
<path d="M163.411 724.131L147.727 724.049L188.978 538.824L203.978 541.98L163.411 724.131Z" fill="#617AC9"/>
<path d="M814.278 724.131L829.962 724.049L788.71 538.824L773.711 541.98L814.278 724.131Z" fill="#617AC9"/>
<path d="M760.632 118.996L769.896 179.552C770.249 181.86 768.668 184.013 766.363 184.366L661.12 200.468C658.816 200.82 656.663 199.239 656.31 196.93L647.045 136.375C646.692 134.066 648.273 131.913 650.578 131.561L755.821 115.459C758.125 115.106 760.278 116.688 760.632 118.996Z" fill="#F3BC3D"/>
<path d="M760.631 118.996L761.144 122.344L718.461 164.119C714.338 168.315 707.968 169.345 702.733 166.663L647.337 138.286L647.044 136.374C646.691 134.068 648.275 131.912 650.581 131.559L755.816 115.459C758.123 115.107 760.278 116.69 760.631 118.996Z" fill="#F3CD75"/>
<path d="M232.421 282.615H341.158C349.735 282.615 356.689 275.662 356.689 267.084V220.683C356.689 212.106 349.735 205.153 341.158 205.153H232.421C223.844 205.153 216.891 212.106 216.891 220.683V267.084C216.891 275.662 223.844 282.615 232.421 282.615Z" fill="white"/>
<path d="M236.688 279.144V307.981C236.688 310.296 239.802 311.042 240.851 308.978L256.007 279.144H236.688Z" fill="white"/>
<path d="M235.12 229.362H337.15C341.074 229.362 344.255 226.181 344.255 222.257C344.255 218.333 341.074 215.152 337.15 215.152H235.12C231.196 215.152 228.015 218.333 228.015 222.257C228.015 226.181 231.196 229.362 235.12 229.362Z" fill="#E3EAFF"/>
<path d="M235.12 251.899H337.15C341.074 251.899 344.255 248.719 344.255 244.795C344.255 240.871 341.074 237.69 337.15 237.69H235.12C231.196 237.69 228.015 240.871 228.015 244.795C228.015 248.719 231.196 251.899 235.12 251.899Z" fill="#E3EAFF"/>
<path d="M234.076 274.437H299.553C302.901 274.437 305.614 271.723 305.614 268.375V266.289C305.614 262.942 302.901 260.228 299.553 260.228H234.076C230.729 260.228 228.015 262.942 228.015 266.289V268.375C228.015 271.723 230.729 274.437 234.076 274.437Z" fill="#E3EAFF"/>
<path d="M482.187 324.506H364.537C355.256 324.506 347.733 316.983 347.733 307.702V242.901C347.733 233.621 355.256 226.097 364.537 226.097H482.187C491.467 226.097 498.991 233.621 498.991 242.901V307.702C498.99 316.983 491.467 324.506 482.187 324.506Z" fill="#CDD8FA"/>
<path d="M477.57 320.751V351.952C477.57 354.457 474.2 355.264 473.066 353.031L456.667 320.751H477.57V320.751Z" fill="#CDD8FA"/>
<path d="M877.201 246.656L747.749 196.075C739.526 192.863 735.465 183.592 738.677 175.369L797.892 23.8232C801.105 15.6003 810.375 11.5389 818.598 14.7518L948.05 65.3334C956.273 68.5459 960.334 77.8165 957.121 86.0389L897.907 237.585C894.694 245.808 885.424 249.869 877.201 246.656Z" fill="#CDD8FA"/>
<path d="M842.422 74.0983L829.676 69.1182L785.477 182.245L798.224 187.225L842.422 74.0983Z" fill="white"/>
<path d="M861.46 81.54L848.713 76.5601L804.515 189.686L817.261 194.666L861.46 81.54Z" fill="white"/>
<path d="M880.501 89.0454L867.755 84.064L823.544 197.19L836.291 202.171L880.501 89.0454Z" fill="white"/>
<path d="M899.535 96.4236L886.788 91.4434L842.589 204.569L855.336 209.55L899.535 96.4236Z" fill="white"/>
<path d="M918.579 103.854L905.833 98.8735L861.634 212L874.381 216.98L918.579 103.854Z" fill="white"/>
<path d="M846.36 64.0159L833.613 59.0356L831.278 65.0107L844.025 69.9909L846.36 64.0159Z" fill="white"/>
<path d="M823.59 66.741L810.843 61.7607L808.509 67.7362L821.256 72.7164L823.59 66.741Z" fill="white"/>
<path d="M816.224 85.596L803.477 80.6157L801.143 86.5908L813.89 91.571L816.224 85.596Z" fill="white"/>
<path d="M808.857 104.45L796.11 99.4702L793.776 105.445L806.523 110.426L808.857 104.45Z" fill="white"/>
<path d="M801.49 123.307L788.743 118.327L786.408 124.302L799.155 129.282L801.49 123.307Z" fill="white"/>
<path d="M801.49 123.307L788.743 118.327L786.408 124.302L799.155 129.282L801.49 123.307Z" fill="white"/>
<path d="M794.118 142.169L781.372 137.189L779.037 143.164L791.784 148.144L794.118 142.169Z" fill="white"/>
<path d="M786.751 161.024L774.004 156.043L771.67 162.019L784.416 166.999L786.751 161.024Z" fill="white"/>
<path d="M865.404 71.4459L852.657 66.4658L850.323 72.4413L863.069 77.4214L865.404 71.4459Z" fill="white"/>
<path d="M884.442 78.9556L871.696 73.9741L869.361 79.9492L882.107 84.9307L884.442 78.9556Z" fill="white"/>
<path d="M903.486 86.3867L890.74 81.4053L888.405 87.3803L901.151 92.3618L903.486 86.3867Z" fill="white"/>
<path d="M922.522 93.761L909.775 88.7808L907.441 94.7558L920.188 99.7361L922.522 93.761Z" fill="white"/>
<path d="M927.042 83.0006L827.843 44.2396C823.99 42.7344 822.087 38.3914 823.593 34.539C825.098 30.6871 829.441 28.7843 833.293 30.2895L932.493 69.05C936.345 70.5556 938.248 74.8986 936.742 78.7506C935.238 82.603 930.895 84.5054 927.042 83.0006Z" fill="white"/>
<path d="M447.134 299.92C447.134 301.227 446.911 302.493 446.49 303.694C444.389 309.728 437.372 314.161 429.038 314.161C420.704 314.161 413.688 309.728 411.586 303.694C411.166 302.493 410.942 301.227 410.942 299.92H447.134Z" fill="#F3F5FE"/>
<path d="M447.134 299.92C447.134 301.227 446.911 302.493 446.49 303.694H411.586C411.166 302.493 410.942 301.227 410.942 299.92H447.134Z" fill="#7F95DB"/>
<path d="M466.934 238.873C466.934 217.961 449.997 201.006 429.092 200.977C408.474 200.947 391.518 217.562 391.148 238.177C390.986 247.193 393.975 255.506 399.086 262.088C405.552 270.418 409.141 280.619 409.141 291.165V291.351H448.934V291.165C448.934 280.605 452.55 270.403 459.016 262.054C463.98 255.647 466.934 247.605 466.934 238.873Z" fill="#F3BC3D"/>
<path d="M434.771 287.062C434.665 287.062 434.558 287.045 434.452 287.008C433.947 286.832 433.68 286.28 433.856 285.775C433.901 285.646 438.369 272.771 441.616 259.661C447.372 236.423 444.41 232.645 442.87 232.1C438.34 230.496 434.734 232.869 432.506 235.141C431.851 235.809 431.223 236.562 430.633 237.384C431.599 239.057 432.472 240.906 433.203 242.859C435.21 248.22 435.743 253.228 434.63 256.254C433.77 258.589 431.945 259.773 429.489 259.588C427.171 259.414 425.475 258.072 424.586 255.708C423.565 252.997 423.697 249.011 424.947 244.771C425.737 242.094 426.919 239.518 428.349 237.299C427.013 235.185 425.466 233.366 423.787 232.141C421.293 230.323 418.951 230.244 416.825 231.906C412.437 235.337 412.269 245.655 416.34 261.744C419.478 274.148 424.083 285.617 424.129 285.731C424.329 286.227 424.09 286.792 423.594 286.992C423.098 287.192 422.533 286.952 422.333 286.456C422.286 286.341 417.638 274.766 414.466 262.237C410.127 245.095 410.519 234.377 415.632 230.379C418.441 228.184 421.743 228.253 424.929 230.576C426.526 231.74 428.103 233.484 429.534 235.618C430.042 234.959 430.574 234.344 431.122 233.785C434.829 230.003 439.231 228.756 443.516 230.273C446.184 231.218 447.279 234.809 446.862 241.251C446.555 246.003 445.422 252.357 443.494 260.138C440.225 273.334 435.731 286.283 435.686 286.413C435.547 286.811 435.172 287.062 434.771 287.062ZM429.453 239.197C428.357 241.057 427.446 243.149 426.806 245.318C425.689 249.106 425.537 252.734 426.399 255.025C427.022 256.678 428.08 257.539 429.634 257.656C431.238 257.776 432.247 257.118 432.811 255.585C434.096 252.095 432.537 244.967 429.453 239.197Z" fill="white"/>
<path d="M445.578 301.16H412.498C408.555 301.16 405.358 297.963 405.358 294.019V293.719C405.358 289.776 408.555 286.579 412.498 286.579H445.578C449.521 286.579 452.718 289.776 452.718 293.719V294.019C452.718 297.963 449.521 301.16 445.578 301.16Z" fill="#F3F5FE"/>
<path d="M493.418 240.43H481.027C479.263 240.43 477.833 239.001 477.833 237.237C477.833 235.474 479.263 234.043 481.027 234.043H493.418C495.181 234.043 496.611 235.474 496.611 237.237C496.611 239.001 495.181 240.43 493.418 240.43Z" fill="#F3BC3D"/>
<path d="M377.049 240.43H364.658C362.895 240.43 361.465 239.001 361.465 237.237C361.465 235.474 362.895 234.043 364.658 234.043H377.049C378.812 234.043 380.242 235.474 380.242 237.237C380.242 239.001 378.813 240.43 377.049 240.43Z" fill="#F3BC3D"/>
<path d="M384.923 214.214L375.063 206.711C373.659 205.643 373.388 203.639 374.455 202.236C375.523 200.832 377.527 200.561 378.93 201.628L388.791 209.131C390.194 210.199 390.466 212.203 389.398 213.606C388.33 215.01 386.327 215.283 384.923 214.214Z" fill="#F3BC3D"/>
<path d="M472.521 214.214L482.381 206.711C483.785 205.643 484.057 203.639 482.989 202.236C481.921 200.832 479.917 200.561 478.514 201.628L468.653 209.131C467.25 210.199 466.978 212.203 468.046 213.606C469.114 215.01 471.117 215.283 472.521 214.214Z" fill="#F3BC3D"/>
<path d="M384.923 264.22L375.063 271.723C373.659 272.791 373.388 274.795 374.455 276.198C375.523 277.601 377.527 277.873 378.93 276.805L388.791 269.302C390.194 268.234 390.466 266.23 389.398 264.827C388.33 263.424 386.327 263.152 384.923 264.22Z" fill="#F3BC3D"/>
<path d="M472.521 264.22L482.381 271.723C483.785 272.791 484.057 274.795 482.989 276.198C481.921 277.601 479.917 277.873 478.514 276.805L468.653 269.302C467.25 268.234 466.978 266.23 468.046 264.827C469.114 263.424 471.117 263.152 472.521 264.22Z" fill="#F3BC3D"/>
<path d="M524.959 155.321H397.776C394.566 155.321 391.964 152.718 391.964 149.509V64.8831C391.964 61.6735 394.566 59.0718 397.776 59.0718H524.959C528.168 59.0718 530.771 61.6735 530.771 64.8831V149.509C530.77 152.718 528.168 155.321 524.959 155.321Z" fill="#CDD8FA"/>
<path d="M503.886 91.5878H405.808C402.358 91.5878 399.561 88.7909 399.561 85.3395V83.3104C399.561 79.8602 402.358 77.0625 405.808 77.0625H503.886C507.337 77.0625 510.134 79.8597 510.134 83.3104V85.3395C510.134 88.7905 507.337 91.5878 503.886 91.5878Z" fill="white"/>
<path d="M463.851 110.678H401.987C400.647 110.678 399.561 109.592 399.561 108.251V105.842C399.561 104.502 400.648 103.416 401.987 103.416H463.851C465.191 103.416 466.277 104.502 466.277 105.842V108.251C466.277 109.592 465.191 110.678 463.851 110.678Z" fill="white"/>
<path d="M445.113 139.929H401.61C400.478 139.929 399.561 139.012 399.561 137.88V134.717C399.561 133.585 400.478 132.667 401.61 132.667H445.113C446.245 132.667 447.163 133.585 447.163 134.717V137.88C447.163 139.012 446.245 139.929 445.113 139.929Z" fill="white"/>
<path d="M477.65 124.381H402.23C400.756 124.381 399.561 123.186 399.561 121.711V119.789C399.561 118.314 400.756 117.119 402.23 117.119H477.65C479.125 117.119 480.32 118.314 480.32 119.789V121.711C480.32 123.186 479.125 124.381 477.65 124.381Z" fill="white"/>
<path d="M516.895 159.272L520.207 170.913C519.334 170.979 518.457 171.004 517.575 170.987C486.196 171.823 475.207 128.258 490.533 128.783C493.739 129.114 496.071 131.98 495.739 135.185C494.505 147.192 503.269 157.964 515.276 159.198C515.825 159.235 516.362 159.264 516.895 159.272Z" fill="#C4204A"/>
<path d="M550.897 140.859C550.729 142.9 550.352 144.896 549.791 146.827L538.001 144.724C541.944 132.927 536.415 117.899 519.752 115.653C515.419 115.207 511.103 116.047 507.274 118.076C500.391 121.519 495.091 111.546 501.802 107.771C524.528 94.977 554.271 114.891 550.897 140.859Z" fill="#F5A3B7"/>
<path d="M549.791 146.827C546.003 159.858 533.808 169.962 520.207 170.913L516.895 159.272C528.069 159.452 535.288 152.857 538.001 144.724L549.791 146.827Z" fill="#E73E41"/>
<path d="M528.1 137.426C528.1 143.272 523.361 148.013 517.514 148.013C511.667 148.013 506.927 143.272 506.927 137.426C506.927 131.579 511.667 126.839 517.514 126.839C523.361 126.839 528.1 131.579 528.1 137.426Z" fill="#C4204A"/>
</svg>
