<svg width="78" height="88" viewBox="0 0 78 88" fill="none" xmlns="http://www.w3.org/2000/svg">
<path d="M36.4511 0.677273C35.0747 1.23806 34.072 2.76747 34.072 4.34786V5.23152L28.7701 5.2825C22.9753 5.33348 22.9923 5.33348 21.9387 6.38708C20.8341 7.47466 20.8171 7.50864 20.8171 15.0877C20.8171 19.7439 20.8851 22.157 21.0041 22.5988C21.4459 24.0773 22.9243 25.1309 24.5217 25.1309H25.4054V26.9152C25.4054 29.3113 25.6943 29.889 26.9178 29.889C27.4786 29.889 27.5805 29.8041 30.7583 27.2551L33.3073 25.2158L37.4198 25.1309L41.5152 25.0459L42.2459 24.5361C43.2485 23.8394 43.9282 22.5139 43.9282 21.2903C43.9282 20.4747 43.9622 20.3727 44.2851 20.3727C44.489 20.3727 45.8825 21.3583 47.5139 22.6668C49.0943 23.9243 50.5727 24.9949 50.8106 25.0629C51.3374 25.1988 52.1021 24.808 52.374 24.2812C52.5099 24.0263 52.5949 23.1766 52.5949 22.106V20.3727H53.2407C54.2773 20.3727 55.1269 20.0498 55.8577 19.3871C57.1832 18.1805 57.1832 18.2825 57.1832 10.5335C57.1832 3.12433 57.1492 2.81845 56.2825 1.74786C55.2289 0.473351 55.4498 0.490343 45.6276 0.507338C40.2916 0.507338 36.706 0.575312 36.4511 0.677273ZM53.9374 3.61714C54.2943 3.94002 54.2943 4.05897 54.2943 10.3805C54.2943 18.0616 54.4642 17.4838 52.1021 17.4838C50.0629 17.4838 49.825 17.6707 49.706 19.3531L49.6211 20.5766L47.6838 19.0302C45.7975 17.5178 45.7465 17.4838 44.8459 17.4838H43.9282V13.0145C43.9282 10.2786 43.8603 8.30734 43.7413 7.8825C43.6224 7.45766 43.2485 6.89688 42.7557 6.42106C41.7871 5.43544 41.1583 5.24851 38.7962 5.24851H36.9609V4.60276C36.9609 3.95701 37.2328 3.54917 37.8106 3.32825C37.9465 3.27727 41.5492 3.24328 45.8145 3.26028C53.1897 3.29427 53.5975 3.31126 53.9374 3.61714ZM40.6995 8.47727C41.0224 8.80015 41.0394 9.03806 41.0394 15.2237C41.0394 20.9335 41.0054 21.6472 40.7505 21.9361C40.4956 22.208 40.1387 22.242 36.5531 22.242C33.4943 22.242 32.5256 22.293 32.1688 22.4799C31.9139 22.6158 30.9452 23.3466 29.9936 24.1113L28.2943 25.4877V24.3662C28.2943 23.7374 28.2263 23.0917 28.1243 22.9217C27.8864 22.4629 27.0537 22.242 25.6093 22.242C23.5531 22.242 23.706 22.7858 23.706 15.2407C23.706 9.03806 23.723 8.80015 24.0459 8.47727C24.3688 8.1544 24.6067 8.1374 32.3727 8.1374C40.1387 8.1374 40.3766 8.1544 40.6995 8.47727Z" fill="url(#paint0_linear_3_2164)"/>
<path d="M26.6795 11.7229C26.1357 12.0457 25.9148 12.4196 25.9148 13.0653C25.9148 14.1019 26.9684 14.7307 28.039 14.3229C28.4638 14.1529 28.8377 13.2693 28.7187 12.7255C28.5318 11.8418 27.4272 11.298 26.6795 11.7229Z" fill="url(#paint1_linear_3_2164)"/>
<path d="M29.8066 12.0288C29.1778 12.6746 29.1438 13.4223 29.7386 14.0001L30.1465 14.4249H34.1229C38.0484 14.4249 38.0994 14.4249 38.4563 14.0341C38.6772 13.7962 38.8301 13.4223 38.8301 13.1164C38.8301 11.638 38.4903 11.536 33.987 11.536H30.2994L29.8066 12.0288Z" fill="url(#paint2_linear_3_2164)"/>
<path d="M26.3398 16.3621C25.7281 16.9739 25.745 18.0105 26.3568 18.4863C26.7986 18.8261 27.0026 18.8431 32.4065 18.8431H37.9973L38.4052 18.4183C38.932 17.9085 38.966 17.0078 38.5071 16.4471L38.1843 16.0392L32.4745 15.9882L26.7647 15.9373L26.3398 16.3621Z" fill="url(#paint3_linear_3_2164)"/>
<path d="M9.0915 16.2431C7.95294 16.43 6.45752 17.0758 5.36994 17.8405C1.32549 20.6784 0.271895 26.3372 3.02484 30.4496L3.75556 31.5372L3.24575 31.7581C2.31111 32.166 0.866667 33.7974 0.407843 34.9019L0 35.9215V49.6862V63.451L0.475817 64.4196C1.05359 65.5921 2.02222 66.4758 3.26275 66.9346C4.11242 67.2575 4.58824 67.2745 10.7059 67.2745H17.2484V75.4993V83.7242L17.8092 84.7947C18.4209 85.9843 19.5425 86.9699 20.6471 87.3098C20.9869 87.4117 21.8026 87.4967 22.4484 87.4967C24.4536 87.4967 26.102 86.4091 26.9686 84.5228L27.3595 83.6732L27.4105 72.7124C27.4444 63.8588 27.4105 61.5817 27.2235 60.8679L26.9856 59.9673H32.3046H37.6405V70.2483V80.5294H36.1451C34.2928 80.5294 33.1203 81.0222 32.4065 82.1098C31.9817 82.7385 31.9477 82.9594 31.8967 84.7438C31.8288 86.5621 31.8627 86.698 32.2196 87.0889L32.5935 87.4967H39H45.4065L45.7804 87.0889C46.1373 86.698 46.1712 86.5621 46.1033 84.7438C46.0523 82.9425 46.0183 82.7385 45.5765 82.0758C44.8627 80.9882 43.7412 80.5294 41.8549 80.5294H40.3595V70.2483V59.9673H45.6954H51.0314L50.7935 60.8C50.5895 61.4797 50.5556 63.5019 50.5895 72.7294L50.6405 83.8431L51.0993 84.6928C52.102 86.5791 53.5974 87.4797 55.6706 87.4967C57.7608 87.4967 59.2902 86.5791 60.2928 84.7098C60.6667 84.03 60.6667 83.8941 60.7177 75.6523L60.7686 67.2915L67.515 67.2405L74.2614 67.1895L75.2471 66.6967C76.3346 66.1699 77.3882 65.0144 77.7791 63.9268C77.949 63.4 78 60.5621 78 49.6013V35.9215L77.6092 34.9529C77.1333 33.7804 75.9948 32.4719 74.9752 31.9281L74.2444 31.5372L74.9752 30.4496C77.7111 26.3712 76.6745 20.7124 72.6811 17.8745C68.9765 15.2235 63.9464 15.6313 60.7516 18.8431C55.9935 23.6013 57.7438 31.7072 64.0314 34.0013L65.034 34.3581L60.4627 38.9294L55.9085 43.4836H50.3856C47.3438 43.4836 44.5739 43.5346 44.217 43.5856C41.8719 43.9764 40.1556 46.5594 40.6484 48.9555L40.8183 49.7712H39H37.1817L37.3516 48.9555C37.7255 47.1372 36.8758 45.166 35.3124 44.2313C34.8196 43.9425 34.1229 43.6536 33.783 43.5856C33.4261 43.5346 30.6562 43.4836 27.6144 43.4836H22.0915L17.5373 38.9294L12.966 34.3581L13.9686 34.0013C20.2562 31.7072 22.0065 23.5843 17.2484 18.8431C15.9909 17.5856 14.3085 16.6509 12.6941 16.3111C11.8275 16.1242 9.97516 16.0902 9.0915 16.2431ZM13.3569 19.6418C14.7333 20.2876 15.8039 21.3411 16.4667 22.7516C16.9425 23.7372 16.9935 24.0261 16.9935 25.3856C16.9935 26.7791 16.9425 27.034 16.4327 28.0536C15.1752 30.6196 12.3373 32.115 9.70327 31.5882C7.5451 31.1634 6.01569 30.0078 5.06405 28.0536C4.46928 26.864 4.4183 26.6431 4.43529 25.4026C4.45229 23.6693 4.91111 22.4117 5.9817 21.2222C7.39216 19.6588 8.93856 18.9791 10.9778 19.064C11.9804 19.115 12.5072 19.234 13.3569 19.6418ZM69.9961 19.6758C72.2562 20.7804 73.5477 22.8536 73.5647 25.3856C73.5817 26.5751 73.5137 26.898 73.0379 27.8836C72.1033 29.8719 70.4549 31.1634 68.2967 31.5882C65.6797 32.098 62.8248 30.6026 61.5673 28.0536C61.0575 27.034 61.0065 26.7791 61.0065 25.3856C61.0065 24.0261 61.0575 23.7372 61.5333 22.7516C62.6889 20.3045 64.915 18.9621 67.583 19.064C68.6366 19.115 69.0954 19.234 69.9961 19.6758ZM8.49673 34.4601C9.14248 34.783 10.7059 36.2274 15.0902 40.5777L20.834 46.2876L27.1895 46.3725L33.5621 46.4575L33.9869 46.8993C34.2248 47.1372 34.4627 47.613 34.5307 47.9529C34.6157 48.4967 34.5477 48.6496 34.0209 49.1764L33.4261 49.7712H26.7987C22.4993 49.7712 19.9843 49.7032 19.6784 49.5843C19.4235 49.4823 17.1634 47.3921 14.6824 44.9111C9.77124 40.034 9.70327 39.983 8.68366 40.7817C8.3268 41.0536 8.24183 41.2745 8.24183 41.8353C8.24183 42.515 8.3268 42.634 10.0261 44.3333L11.8105 46.1176V51.5895V57.0784H7.30719H2.78693L2.83791 46.7464L2.88889 36.3974L3.39869 35.5817C4.12941 34.4091 5.08105 33.9163 6.54248 34.0013C7.25621 34.0353 7.95294 34.2052 8.49673 34.4601ZM73.3438 34.3581C73.8366 34.63 74.2614 35.0379 74.6013 35.5817L75.1111 36.3974L75.1621 46.7464L75.2131 57.0784H70.6928H66.1895V51.5895V46.1176L67.9739 44.3333C69.6732 42.634 69.7582 42.515 69.7582 41.8353C69.7582 41.2745 69.6732 41.0536 69.3163 40.7817C68.2967 39.983 68.2288 40.034 63.3176 44.9111C60.8366 47.3921 58.5765 49.4823 58.3216 49.5843C58.0157 49.7032 55.5007 49.7712 51.2013 49.7712H44.5739L43.9791 49.1764C43.4523 48.6496 43.3843 48.4967 43.4693 47.9529C43.5373 47.613 43.7752 47.1372 44.0131 46.8993L44.4379 46.4575L50.8105 46.3725L57.183 46.2876L62.7399 40.7477C65.8157 37.7059 68.5516 35.0379 68.8575 34.834C70.234 33.8993 72.0863 33.6954 73.3438 34.3581ZM18.234 52.1333L18.9477 52.4902V54.7843V57.0784H16.8235H14.6993V53.0509V49.0065L16.1098 50.4C16.8745 51.1477 17.8261 51.9464 18.234 52.1333ZM63.3007 53.0849V57.0784H61.1765H59.0523V54.7843V52.4902L59.868 52.0823C60.3098 51.8614 61.2444 51.0797 61.9412 50.383C62.6379 49.6693 63.2327 49.0915 63.2497 49.0915C63.2837 49.0915 63.3007 50.8928 63.3007 53.0849ZM56.1634 54.8693V57.0784H39H21.8366V54.8693V52.6601H39H56.1634V54.8693ZM23.383 60.3581C24.5895 61.1568 24.5556 60.732 24.5556 72.3385C24.5556 83.8261 24.5725 83.6052 23.502 84.2679C23.1791 84.4719 22.6353 84.6078 22.2105 84.6078C21.6327 84.6078 21.3778 84.5059 20.851 84.03L20.2222 83.4523L20.1373 74.3268L20.0523 65.2013L19.5765 64.7934L19.1007 64.3856H11.8275H4.55425L3.97647 63.9947C3.1268 63.434 2.80392 62.6523 2.80392 61.1908V59.9673H12.8131H22.8052L23.383 60.3581ZM75.1961 61.1908C75.1961 62.6523 74.8732 63.434 74.0235 63.9947L73.4458 64.3856H66.1726H58.8993L58.4235 64.7934L57.9477 65.2013L57.8627 74.3268L57.7778 83.4523L57.149 84.03C56.6222 84.5059 56.3673 84.6078 55.7895 84.6078C55.3647 84.6078 54.8209 84.4719 54.498 84.2679C53.4275 83.6052 53.4444 83.8261 53.4444 72.3385C53.4444 60.732 53.4105 61.1568 54.617 60.3581L55.1948 59.9673H65.1869H75.1961V61.1908ZM43.0444 83.6222C43.1634 83.7411 43.2484 84.047 43.2484 84.3019V84.7777H39H34.7516V84.3019C34.7516 84.047 34.8366 83.7411 34.9556 83.6222C35.2444 83.3333 42.7556 83.3333 43.0444 83.6222Z" fill="url(#paint4_linear_3_2164)"/>
<defs>
<linearGradient id="paint0_linear_3_2164" x1="55.6246" y1="26.5498" x2="19.5569" y2="22.8018" gradientUnits="userSpaceOnUse">
<stop offset="0.0608334" stop-color="#CE3E50"/>
<stop offset="0.345833" stop-color="#472F7B"/>
<stop offset="0.600833" stop-color="#1F298B"/>
<stop offset="0.795833" stop-color="#0173BC"/>
</linearGradient>
<linearGradient id="paint1_linear_3_2164" x1="28.62" y1="14.122" x2="25.8058" y2="13.8895" gradientUnits="userSpaceOnUse">
<stop offset="0.0608334" stop-color="#CE3E50"/>
<stop offset="0.345833" stop-color="#472F7B"/>
<stop offset="0.600833" stop-color="#1F298B"/>
<stop offset="0.795833" stop-color="#0173BC"/>
</linearGradient>
<linearGradient id="paint2_linear_3_2164" x1="38.4222" y1="14.0966" x2="29.5595" y2="11.6449" gradientUnits="userSpaceOnUse">
<stop offset="0.0608334" stop-color="#CE3E50"/>
<stop offset="0.345833" stop-color="#472F7B"/>
<stop offset="0.600833" stop-color="#1F298B"/>
<stop offset="0.795833" stop-color="#0173BC"/>
</linearGradient>
<linearGradient id="paint3_linear_3_2164" x1="38.273" y1="18.5129" x2="26.8931" y2="14.2584" gradientUnits="userSpaceOnUse">
<stop offset="0.0608334" stop-color="#CE3E50"/>
<stop offset="0.345833" stop-color="#472F7B"/>
<stop offset="0.600833" stop-color="#1F298B"/>
<stop offset="0.795833" stop-color="#0173BC"/>
</linearGradient>
<linearGradient id="paint4_linear_3_2164" x1="74.6571" y1="79.3869" x2="-2.8854" y2="72.2705" gradientUnits="userSpaceOnUse">
<stop offset="0.0608334" stop-color="#CE3E50"/>
<stop offset="0.345833" stop-color="#472F7B"/>
<stop offset="0.600833" stop-color="#1F298B"/>
<stop offset="0.795833" stop-color="#0173BC"/>
</linearGradient>
</defs>
</svg>
