<svg width="87" height="86" viewBox="0 0 87 86" fill="none" xmlns="http://www.w3.org/2000/svg">
<g clip-path="url(#clip0_2101_1359)">
<path d="M38.4427 37.3629H25.7631C25.4067 37.3629 25.0649 37.5045 24.8129 37.7565C24.5609 38.0085 24.4193 38.3503 24.4193 38.7067V79.1784C24.4193 79.5348 24.5609 79.8766 24.8129 80.1286C25.0649 80.3806 25.4067 80.5221 25.7631 80.5221H38.4427C38.7991 80.5221 39.1409 80.3806 39.3929 80.1286C39.6449 79.8766 39.7865 79.5348 39.7865 79.1784V38.7067C39.7865 38.3503 39.6449 38.0085 39.3929 37.7565C39.1409 37.5045 38.7991 37.3629 38.4427 37.3629ZM37.099 77.8346H27.1068V40.0504H37.099V77.8346ZM61.9872 42.6477H49.3074C48.9511 42.6477 48.6093 42.7893 48.3573 43.0413C48.1053 43.2933 47.9637 43.6351 47.9637 43.9915V79.1784C47.9637 79.5348 48.1053 79.8766 48.3573 80.1286C48.6093 80.3806 48.9511 80.5221 49.3074 80.5221H61.9872C62.3436 80.5221 62.6854 80.3806 62.9374 80.1286C63.1894 79.8766 63.331 79.5348 63.331 79.1784V43.9915C63.331 43.6351 63.1894 43.2933 62.9374 43.0413C62.6854 42.7893 62.3436 42.6477 61.9872 42.6477ZM60.6435 77.8348H50.6512V45.3352H60.6435V77.8348ZM85.5312 20.7301H72.8515C72.4951 20.7301 72.1533 20.8717 71.9013 21.1237C71.6493 21.3757 71.5077 21.7175 71.5077 22.0739V79.1782C71.5077 79.5346 71.6493 79.8764 71.9013 80.1284C72.1533 80.3804 72.4951 80.522 72.8515 80.522H85.5312C85.8876 80.522 86.2294 80.3804 86.4814 80.1284C86.7334 79.8764 86.875 79.5346 86.875 79.1782V22.0739C86.875 21.7175 86.7334 21.3757 86.4814 21.1237C86.2294 20.8717 85.8876 20.7301 85.5312 20.7301ZM84.1875 77.8345H74.1952V23.4176H84.1875V77.8345ZM14.8984 53.0619H2.21875C1.86237 53.0619 1.52058 53.2035 1.26858 53.4555C1.01657 53.7075 0.875 54.0493 0.875 54.4057L0.875 79.1782C0.875 79.5346 1.01657 79.8764 1.26858 80.1284C1.52058 80.3804 1.86237 80.522 2.21875 80.522H14.8984C15.2548 80.522 15.5965 80.3804 15.8485 80.1284C16.1006 79.8764 16.2421 79.5346 16.2421 79.1782V54.4057C16.2421 54.0493 16.1006 53.7075 15.8485 53.4555C15.5965 53.2035 15.2548 53.0619 14.8984 53.0619ZM13.5546 77.8345H3.5625V55.7494H13.5546V77.8345ZM7.49834 42.0944C7.27939 41.8132 7.18111 41.4566 7.22512 41.1029C7.26912 40.7493 7.45181 40.4276 7.733 40.2086L31.2773 21.8755C31.4505 21.7407 31.654 21.6503 31.8702 21.6123C32.0864 21.5743 32.3085 21.5898 32.5173 21.6575L55.2752 29.0337L75.052 9.08788L71.7454 9.80024C71.0206 9.95679 70.3052 9.49504 70.1488 8.76958C70.1117 8.59708 70.1088 8.41894 70.1405 8.24534C70.1722 8.07174 70.2378 7.90608 70.3335 7.75782C70.4292 7.60957 70.5531 7.48162 70.6983 7.38128C70.8435 7.28094 71.007 7.21018 71.1795 7.17304L78.9082 5.5083C79.1236 5.462 79.347 5.46933 79.5589 5.52966C79.7707 5.58998 79.9645 5.70145 80.1232 5.85425C80.2818 6.00704 80.4005 6.1965 80.4687 6.40593C80.537 6.61536 80.5527 6.83836 80.5145 7.05529L79.2724 14.0997C79.2103 14.4506 79.0115 14.7625 78.7197 14.9668C78.4278 15.1712 78.0668 15.2514 77.7158 15.1897C77.542 15.1591 77.376 15.0945 77.2271 14.9997C77.0783 14.9049 76.9496 14.7817 76.8483 14.6371C76.7471 14.4926 76.6753 14.3295 76.6371 14.1572C76.599 13.9849 76.5951 13.8067 76.6257 13.633L77.1222 10.817L56.6015 31.5129C56.4265 31.6894 56.2059 31.814 55.9643 31.8726C55.7227 31.9313 55.4696 31.9218 55.233 31.8451L32.3663 24.4338L9.38413 42.3291C9.14864 42.513 8.85837 42.6128 8.55957 42.6126C8.35487 42.6129 8.15283 42.5663 7.96889 42.4765C7.78495 42.3867 7.62399 42.256 7.49834 42.0944Z" fill="url(#paint0_linear_2101_1359)"/>
</g>
<defs>
<linearGradient id="paint0_linear_2101_1359" x1="43.875" y1="5.47827" x2="43.875" y2="80.5221" gradientUnits="userSpaceOnUse">
<stop stop-color="#CE3E50"/>
<stop offset="0.32" stop-color="#472F7B"/>
<stop offset="0.655" stop-color="#1F298B"/>
<stop offset="1" stop-color="#0173BC"/>
</linearGradient>
<clipPath id="clip0_2101_1359">
<rect width="86" height="86" fill="white" transform="translate(0.875)"/>
</clipPath>
</defs>
</svg>
