<svg width="80" height="80" viewBox="0 0 80 80" fill="none" xmlns="http://www.w3.org/2000/svg">
<path d="M39.0625 0.351564C38.7656 0.648438 38.75 0.867188 38.75 3.61719V6.58594L39.1562 6.89844C39.3906 7.08594 39.7656 7.22656 40 7.22656C40.2344 7.22656 40.6094 7.08594 40.8437 6.89844L41.25 6.58594V3.61719C41.25 0.867188 41.2344 0.648438 40.9375 0.351564C40.7344 0.148439 40.4219 0.0390639 40 0.0390639C39.5781 0.0390639 39.2656 0.148439 39.0625 0.351564Z" fill="url(#paint0_linear_3_2151)"/>
<path d="M27.2342 6.57024C26.5467 6.67961 26.0623 7.66399 26.3436 8.36711C26.3905 8.50774 27.6873 9.74211 29.2342 11.1327C32.4373 14.0077 32.7655 14.1796 33.5936 13.3515C34.0936 12.8515 34.1717 12.3671 33.8592 11.8202C33.5467 11.2577 28.3123 6.64836 27.9373 6.58586C27.7342 6.53899 27.4217 6.53899 27.2342 6.57024Z" fill="url(#paint1_linear_3_2151)"/>
<path d="M52.0779 6.5704C51.6248 6.6329 46.406 11.336 46.1092 11.9454C45.8279 12.5079 45.9998 13.086 46.5935 13.5235C47.3435 14.086 47.8123 13.8048 50.8279 11.086C52.3435 9.72665 53.6092 8.5079 53.656 8.36728C54.0467 7.35165 53.2185 6.39853 52.0779 6.5704Z" fill="url(#paint2_linear_3_2151)"/>
<path d="M11.375 10.1328C10.8281 10.4141 10.6094 10.8672 9.3125 14.3516L8.25 17.1797L6.34375 17.2891C0.625 17.6016 1.0625 17.5391 0.5 18.1016C0.078125 18.5235 0 18.711 0 19.336C0 19.7266 0.0625 20.1797 0.140625 20.3203C0.21875 20.461 1.51562 21.5703 3 22.7735L5.71875 24.9453L4.8125 28.3203C4.20312 30.5391 3.92187 31.836 3.98437 32.1641C4.03125 32.4297 4.28125 32.8516 4.54687 33.1016C4.9375 33.4766 5.15625 33.5547 5.76562 33.5547C6.40625 33.5547 6.6875 33.4453 7.67187 32.7891C8.3125 32.3672 9.60937 31.5078 10.5781 30.8672L12.3281 29.7422L14.6406 31.2578C18.4844 33.8047 18.7031 33.8985 19.6875 33.3985C20.3281 33.0703 20.625 32.5703 20.625 31.836C20.625 31.4922 20.2344 29.8047 19.7656 28.086C19.0937 25.6328 18.9531 24.9297 19.1094 24.7891C19.2031 24.6953 20.3594 23.7735 21.6562 22.7266C22.9531 21.6953 24.1719 20.6485 24.3594 20.4141C24.9844 19.6172 24.5937 18.0391 23.6719 17.6953C23.4687 17.6172 21.7656 17.4766 19.8906 17.3828C18.0156 17.2735 16.4375 17.1485 16.3906 17.1016C16.3437 17.0391 15.8281 15.7266 15.25 14.1797C14.6719 12.6328 14.0937 11.1485 13.9687 10.8985C13.5469 9.97659 12.3125 9.61721 11.375 10.1328ZM13.2656 16.5235C13.7187 17.7266 14.1875 18.8828 14.3281 19.0703C14.6719 19.6172 15.4687 19.8828 16.8281 19.8985C17.5 19.9141 18.625 19.961 19.3281 20.0078L20.6094 20.1172L18.5156 21.7891C15.7812 23.9766 15.8281 23.836 16.7031 27.086C17.0625 28.4141 17.3906 29.586 17.4219 29.6797C17.5 29.8985 17.1719 29.711 14.625 28.0235C12.2656 26.461 12.3281 26.461 8.79687 28.8203C7.90625 29.4141 7.1875 29.8516 7.1875 29.8047C7.1875 29.7578 7.46875 28.711 7.8125 27.461C8.46875 25.1016 8.5625 24.2578 8.23437 23.6797C8.125 23.5078 7.14062 22.6172 6.01562 21.7266C4.5625 20.5703 4.07812 20.1016 4.29687 20.086C4.46875 20.0547 5.70312 19.9766 7.03125 19.9141C8.64062 19.8203 9.57812 19.711 9.8125 19.5547C10.2812 19.2735 10.5469 18.7422 11.5 16.1797C11.9219 15.0547 12.3125 14.1641 12.3594 14.2266C12.4062 14.2891 12.8125 15.3203 13.2656 16.5235Z" fill="url(#paint3_linear_3_2151)"/>
<path d="M38.9688 10.1797C38.625 10.3984 38.375 10.7422 38.1562 11.3203C37.9844 11.7734 37.4219 13.2578 36.8906 14.6172C36.375 15.9922 35.9375 17.1172 35.9062 17.1484C35.8594 17.1953 29.8906 17.539 29.125 17.539C28.875 17.539 28.5156 17.7422 28.1875 18.0703C27.75 18.5078 27.6562 18.7109 27.6562 19.2734C27.6719 19.6484 27.75 20.1172 27.8594 20.3047C27.9688 20.4922 29.25 21.6015 30.7031 22.789C32.1719 23.9609 33.3594 25.0078 33.3438 25.1015C33.3281 25.1953 32.9531 26.6015 32.5 28.2421C32.0625 29.8671 31.6875 31.4765 31.6875 31.789C31.6719 32.8828 32.6562 33.7578 33.7188 33.5703C34.0312 33.5234 35.4062 32.7421 37.125 31.6171L40 29.7421L42.875 31.6171C44.5938 32.7421 45.9688 33.5234 46.2812 33.5703C47.3438 33.7578 48.3281 32.8828 48.3125 31.789C48.3125 31.4765 47.9375 29.8671 47.5 28.2421C47.0469 26.6015 46.6719 25.1953 46.6562 25.1015C46.6406 25.0078 47.8281 23.9609 49.2969 22.789C50.75 21.6172 52.0312 20.4922 52.1406 20.3047C52.6094 19.4609 52.25 18.1484 51.4219 17.6953C51.2656 17.6172 49.5625 17.4765 47.6406 17.3828C45.7188 17.2734 44.125 17.1797 44.0938 17.1484C44.0625 17.1328 43.5156 15.7109 42.875 14.0234C42.2344 12.3203 41.6406 10.8047 41.5469 10.6484C41.1562 9.91403 39.7969 9.66403 38.9688 10.1797ZM41.0312 16.7109C41.7344 18.5859 42.0469 19.2265 42.375 19.4765C42.75 19.7422 43.1719 19.8047 45.1094 19.914C46.3906 19.9765 47.625 20.0547 47.875 20.0703C48.2812 20.1172 48.125 20.2734 46.1875 21.8047C43.4688 23.9765 43.5312 23.8203 44.375 27.0078C44.7188 28.289 45.0469 29.4609 45.0938 29.6171C45.1406 29.7734 44.3125 29.3203 42.875 28.3984C41.0312 27.1953 40.4688 26.914 40 26.914C39.5312 26.914 38.9688 27.1953 37.125 28.3984C35.6875 29.3203 34.8594 29.7734 34.9062 29.6171C34.9531 29.4609 35.2812 28.289 35.625 27.0078C36.4688 23.8203 36.5312 23.9765 33.8125 21.8047C31.875 20.2734 31.7188 20.1172 32.125 20.0703C32.375 20.0547 33.6094 19.9765 34.8906 19.914C36.8281 19.8047 37.25 19.7422 37.625 19.4765C37.9531 19.2265 38.2656 18.5859 38.9688 16.7109C39.4844 15.3515 39.9375 14.2578 40 14.2578C40.0625 14.2578 40.5156 15.3515 41.0312 16.7109Z" fill="url(#paint4_linear_3_2151)"/>
<path d="M66.6876 10.1641C66.1563 10.4766 66.0782 10.6485 64.7501 14.1797C64.1719 15.7266 63.6563 17.0391 63.6094 17.1016C63.5626 17.1485 61.9844 17.2735 60.0938 17.3828C58.2188 17.4766 56.5157 17.6328 56.3126 17.711C55.4063 18.0391 55.0157 19.6328 55.6407 20.4141C55.8282 20.6485 57.0469 21.6953 58.3438 22.7266C59.6407 23.7735 60.7969 24.6953 60.8907 24.7891C61.0469 24.9297 60.9063 25.6328 60.2344 28.086C59.7657 29.8047 59.3751 31.4922 59.3751 31.836C59.3751 32.5703 59.6719 33.0703 60.3126 33.3985C61.2969 33.8985 61.5157 33.8047 65.3594 31.2578L67.6719 29.7422L69.4219 30.8672C70.3907 31.5078 71.6876 32.3672 72.3282 32.7891C73.3126 33.4453 73.5938 33.5547 74.2344 33.5547C74.8438 33.5547 75.0626 33.4766 75.4532 33.1016C75.7188 32.8516 75.9688 32.4297 76.0157 32.1641C76.0782 31.836 75.7969 30.5391 75.2032 28.3203L74.2813 24.961L76.8751 22.8828C78.2969 21.7422 79.5782 20.6641 79.7344 20.4766C79.9063 20.2735 80.0001 19.8985 80.0001 19.3828C80.0001 18.711 79.9219 18.5235 79.4844 18.086C78.9219 17.5235 79.0313 17.5391 73.8126 17.2891L71.7657 17.1953L70.7032 14.3516C70.1094 12.8047 69.5001 11.2578 69.3438 10.9453C68.8594 9.94533 67.6094 9.58596 66.6876 10.1641ZM69.7501 19.1797C70.0626 19.6641 70.8594 19.8828 72.4219 19.8985C73.1094 19.9141 74.2032 19.961 74.8438 20.0235L76.0001 20.1172L73.9844 21.7266C72.8594 22.6172 71.8751 23.5078 71.7657 23.6797C71.4376 24.2578 71.5313 25.1016 72.1876 27.461C72.5313 28.711 72.8126 29.7578 72.8126 29.8047C72.8126 29.8516 71.9844 29.336 70.9844 28.6641C67.7032 26.461 67.7344 26.461 65.3751 28.0235C64.4532 28.6328 63.4376 29.2891 63.1094 29.5078L62.5157 29.8672L62.7344 29.1328C62.8438 28.7266 63.1719 27.5547 63.4376 26.5391C64.1407 23.8985 64.1563 23.9297 61.4844 21.7891L59.3907 20.1172L60.6719 20.0078C61.3751 19.961 62.5001 19.9141 63.1719 19.8985C64.5313 19.8828 65.3282 19.6172 65.6719 19.0703C65.8594 18.7891 66.6407 16.8203 67.5938 14.2578C67.6407 14.1328 68.0938 15.086 68.5938 16.4141C69.0938 17.7266 69.6251 18.9766 69.7501 19.1797Z" fill="url(#paint5_linear_3_2151)"/>
<path d="M37.8125 36.5391C35.3594 37.0547 32.6406 39.0078 31.3594 41.1484C29.6094 44.1172 29.4531 47.8672 30.9687 50.8828C31.5937 52.1484 32.5625 53.3984 33.4844 54.1328C34.125 54.6328 34.2031 54.7422 33.9531 54.8203C30.5312 56.0234 27.7031 58.0234 25.3594 60.8828L24.875 61.4922L24.0312 60.6328C22.875 59.4609 21.7031 58.6016 20.1875 57.8516L18.9062 57.2109L19.6562 56.3516C20.5937 55.3047 21.2031 54.1016 21.5 52.7266C21.7656 51.3984 21.7656 50.8516 21.4844 49.4922C21.1719 48.0234 20.6094 46.9141 19.5937 45.8203C17.9375 44.0391 16.2344 43.2891 13.8125 43.2891C10.125 43.2734 7.10937 45.5703 6.17187 49.1172C5.875 50.1797 5.875 52.0703 6.15625 53.1016C6.45312 54.2109 7.26562 55.6953 8.04687 56.5391L8.70312 57.2422L7.73437 57.6797C4.34375 59.2266 1.45312 62.4453 0.249999 66.0234C-0.109376 67.1016 -0.0781257 68.6328 0.328124 69.4922C0.749999 70.3672 1.95312 71.4766 2.78125 71.7266C3.21875 71.8672 5.89062 71.9141 12.375 71.9141H21.375L21.4375 73.7578C21.5 75.4141 21.5469 75.6953 21.9844 76.6328C22.5937 77.9141 23.5469 78.8984 24.7812 79.5078L25.7031 79.9609H40H54.2969L55.1875 79.5234C56.4219 78.9141 57.4219 77.8984 58.0156 76.6328C58.4531 75.6953 58.5 75.4141 58.5625 73.7578L58.625 71.9141H67.625C74.1094 71.9141 76.7812 71.8672 77.2187 71.7266C78.0469 71.4766 79.25 70.3672 79.6719 69.4922C80.0781 68.6328 80.1094 67.1016 79.75 66.0234C78.5469 62.4453 75.6562 59.2266 72.2656 57.6797L71.2969 57.2422L71.9531 56.5391C73.2812 55.1172 74.0625 53.1016 74.0625 51.1484C74.0625 48.9453 73.3281 47.1172 71.8125 45.5859C69.25 42.9766 65.0469 42.4766 62 44.4297C61 45.0859 59.6562 46.5703 59.1562 47.5703C58.7187 48.4609 58.2812 50.2422 58.2812 51.1328C58.2812 52.8672 59.1562 55.0703 60.3594 56.3828L61.1094 57.1953L59.8125 57.8516C58.2969 58.6016 57.125 59.4609 55.9687 60.6328L55.125 61.4922L54.6406 60.8828C52.2969 58.0234 49.4687 56.0234 46.0469 54.8203C45.7969 54.7422 45.875 54.6328 46.5156 54.1328C47.9375 52.9922 49.2344 50.9297 49.7812 48.9297C50.1719 47.4609 50.125 44.9766 49.6875 43.5547C49.1406 41.7891 48.4687 40.6953 47.1094 39.3203C46.1094 38.3203 45.5937 37.9141 44.5312 37.3984C42.3594 36.3359 40.0937 36.0391 37.8125 36.5391ZM41.4375 39.1172C43.6719 39.5859 45.6719 41.1484 46.6406 43.1797C47.5312 45.1016 47.6406 47.0391 46.9687 48.9453C46.1719 51.1484 43.9687 53.1016 41.6719 53.6328C40.8281 53.8203 39.1719 53.8203 38.3281 53.6328C36.0312 53.1016 33.8281 51.1484 33.0312 48.9453C31.0937 43.5547 35.8906 37.9609 41.4375 39.1172ZM16.0312 46.4609C18.25 47.5234 19.4219 49.9453 18.8437 52.2422C18.2187 54.6328 16.4687 56.1172 14.0625 56.2578C12.4219 56.3516 11.3281 55.9141 10.1406 54.7422C8.98437 53.5859 8.54687 52.4609 8.625 50.8984C8.82812 47.1016 12.6406 44.8203 16.0312 46.4609ZM68.0469 46.2422C69.1719 46.6016 70.625 48.1016 71.0937 49.3359C71.8125 51.2891 71.25 53.5234 69.6719 54.9453C67.3125 57.0703 63.7031 56.6328 61.9375 54.0078C60.7812 52.2734 60.6875 50.4141 61.6719 48.6016C62.9219 46.3203 65.4531 45.3828 68.0469 46.2422ZM41.7969 56.6172C48.3594 57.4297 53.7344 62.0547 55.4687 68.3984C55.9062 69.9609 56.0937 73.8672 55.7812 74.9453C55.5469 75.8203 54.8437 76.6641 54.0156 77.1172L53.3594 77.4609H40H26.6406L25.9844 77.1172C25.1562 76.6641 24.4531 75.8203 24.2187 74.9453C23.9062 73.8672 24.0937 69.9609 24.5312 68.3984C25.4687 64.9609 27.6875 61.7109 30.5469 59.6016C32.5469 58.1172 35.5312 56.9297 38.0469 56.6172C39.625 56.4297 40.2187 56.4297 41.7969 56.6172ZM16.5156 59.3359C18.6406 59.8203 20.8437 61.1484 22.4062 62.8672C22.8906 63.4141 23.2812 63.8984 23.2812 63.9609C23.2812 64.0234 23.0625 64.5859 22.7969 65.2109C22.5312 65.8359 22.1406 66.9922 21.9531 67.7734L21.5937 69.1797L12.5781 69.2266L3.57812 69.2578L3.09375 68.7891C2.65625 68.3516 2.625 68.2422 2.6875 67.5234C2.85937 65.7734 4.8125 62.8203 6.70312 61.4453C9.71875 59.2422 13.0156 58.5391 16.5156 59.3359ZM68.9844 59.3672C72.5937 60.2734 75.5625 62.8359 76.9687 66.2422C77.4844 67.5078 77.4687 68.2266 76.8906 68.8047L76.4219 69.2578L67.4219 69.2266L58.4062 69.1797L58.0469 67.7734C57.8437 66.9922 57.4687 65.8516 57.2031 65.2109C56.9375 64.5703 56.7187 64.0078 56.7187 63.9453C56.7187 63.8984 57.1094 63.4141 57.5937 62.8672C59.5 60.7578 62.0937 59.4297 65 59.0547C65.875 58.9297 67.9687 59.1016 68.9844 59.3672Z" fill="url(#paint6_linear_3_2151)"/>
<defs>
<linearGradient id="paint0_linear_3_2151" x1="41.1429" y1="6.4098" x2="38.6387" y2="6.33666" gradientUnits="userSpaceOnUse">
<stop offset="0.0608334" stop-color="#CE3E50"/>
<stop offset="0.345833" stop-color="#472F7B"/>
<stop offset="0.600833" stop-color="#1F298B"/>
<stop offset="0.795833" stop-color="#0173BC"/>
</linearGradient>
<linearGradient id="paint1_linear_3_2151" x1="33.7112" y1="12.9614" x2="25.9723" y2="12.2624" gradientUnits="userSpaceOnUse">
<stop offset="0.0608334" stop-color="#CE3E50"/>
<stop offset="0.345833" stop-color="#472F7B"/>
<stop offset="0.600833" stop-color="#1F298B"/>
<stop offset="0.795833" stop-color="#0173BC"/>
</linearGradient>
<linearGradient id="paint2_linear_3_2151" x1="53.4208" y1="12.9436" x2="45.6879" y2="12.2436" gradientUnits="userSpaceOnUse">
<stop offset="0.0608334" stop-color="#CE3E50"/>
<stop offset="0.345833" stop-color="#472F7B"/>
<stop offset="0.600833" stop-color="#1F298B"/>
<stop offset="0.795833" stop-color="#0173BC"/>
</linearGradient>
<linearGradient id="paint3_linear_3_2151" x1="23.6068" y1="30.9403" x2="-0.932166" y2="28.7998" gradientUnits="userSpaceOnUse">
<stop offset="0.0608334" stop-color="#CE3E50"/>
<stop offset="0.345833" stop-color="#472F7B"/>
<stop offset="0.600833" stop-color="#1F298B"/>
<stop offset="0.795833" stop-color="#0173BC"/>
</linearGradient>
<linearGradient id="paint4_linear_3_2151" x1="51.2904" y1="30.9038" x2="26.7243" y2="28.7536" gradientUnits="userSpaceOnUse">
<stop offset="0.0608334" stop-color="#CE3E50"/>
<stop offset="0.345833" stop-color="#472F7B"/>
<stop offset="0.600833" stop-color="#1F298B"/>
<stop offset="0.795833" stop-color="#0173BC"/>
</linearGradient>
<linearGradient id="paint5_linear_3_2151" x1="78.943" y1="30.9393" x2="54.4034" y2="28.7995" gradientUnits="userSpaceOnUse">
<stop offset="0.0608334" stop-color="#CE3E50"/>
<stop offset="0.345833" stop-color="#472F7B"/>
<stop offset="0.600833" stop-color="#1F298B"/>
<stop offset="0.795833" stop-color="#0173BC"/>
</linearGradient>
<linearGradient id="paint6_linear_3_2151" x1="76.571" y1="74.9998" x2="-1.77392" y2="62.9452" gradientUnits="userSpaceOnUse">
<stop offset="0.0608334" stop-color="#CE3E50"/>
<stop offset="0.345833" stop-color="#472F7B"/>
<stop offset="0.600833" stop-color="#1F298B"/>
<stop offset="0.795833" stop-color="#0173BC"/>
</linearGradient>
</defs>
</svg>
