<svg width="98" height="98" viewBox="0 0 98 98" fill="none" xmlns="http://www.w3.org/2000/svg">
<path d="M93.4062 45.9377V13.7815V1.53146C93.4062 1.02309 93.1536 0.5484 92.734 0.263588C92.3129 -0.0212248 91.7785 -0.0794124 91.3069 0.108931L75.9944 6.23393C75.4125 6.46821 75.0312 7.03018 75.0312 7.65646C75.0312 8.28274 75.4125 8.84471 75.9929 9.07899L90.3438 14.8181V45.9377H88.8125C88.4067 45.9377 88.0163 46.0985 87.7299 46.3864L60.4844 73.6319L54.6763 67.8239C54.0776 67.2252 53.1099 67.2252 52.5112 67.8239L34.4531 85.8819L23.2857 74.7145C22.687 74.1158 21.7192 74.1158 21.1205 74.7145L0.448656 95.3864C0.160781 95.6727 0 96.0617 0 96.469V98.0002H3.0625V97.1029L22.2031 77.9623L33.3705 89.1297C33.9692 89.7284 34.937 89.7284 35.5357 89.1297L53.5938 71.0717L59.4018 76.8797C60.0005 77.4784 60.9683 77.4784 61.567 76.8797L89.4464 49.0002H98V45.9377H93.4062ZM80.6846 7.65646L90.3438 3.79312V11.5213L80.6846 7.65646Z" fill="url(#paint0_linear_3_2143)"/>
<path d="M2.64307 66.8954C6.35482 62.9723 14.0662 65.4361 18.6737 66.9061C20.5832 67.5155 22.4192 67.8202 24.1541 67.8202C25.9196 67.8202 27.5672 67.4711 29.0939 66.8464V76.5621C29.0939 77.4089 29.7799 78.0934 30.6251 78.0934H38.2814C39.1266 78.0934 39.8126 77.4089 39.8126 76.5621V61.683C40.151 61.1777 40.7773 60.7826 41.7313 60.3156C42.0391 60.164 42.353 60.0246 42.6669 59.8853C43.5443 59.4933 44.4523 59.0875 45.3006 58.4582C46.3005 57.717 47.0432 56.4415 47.3387 55.1246H50.5314V64.3121C50.5314 65.1589 51.2174 65.8434 52.0626 65.8434H59.7189C60.5641 65.8434 61.2501 65.1589 61.2501 64.3121V52.0621C61.2501 47.8405 57.8155 44.4059 53.5939 44.4059H44.4064V39.8121H52.0626C56.2843 39.8121 59.7189 36.3775 59.7189 32.1559V18.3746C59.7189 17.5279 59.0329 16.8434 58.1876 16.8434H52.0626C51.2174 16.8434 50.5314 17.5279 50.5314 18.3746V30.6246H43.0436C43.8291 29.271 44.2869 27.7045 44.2869 26.0309C44.2869 20.964 40.1663 16.8434 35.0994 16.8434C30.0325 16.8434 25.9119 20.964 25.9119 26.0309C25.9119 27.5652 26.2948 29.0092 26.9624 30.2832C21.7898 31.8083 17.1272 35.2352 13.4185 40.3144C11.7708 42.5699 10.5504 45.1394 9.36985 47.623C9.05441 48.2876 8.7405 48.9476 8.422 49.5953C7.70385 51.053 7.02703 52.6455 6.37166 54.186C4.73016 58.0417 3.03507 62.0275 0.421222 64.7899L0.419691 64.7914C-0.162184 65.4054 -0.134622 66.3747 0.47941 66.9566C1.09344 67.5354 2.06425 67.5109 2.64307 66.8954ZM29.0939 47.0733L27.31 45.2909L29.0939 43.5086V47.0733ZM43.4784 55.9959C42.8981 56.4262 42.1784 56.7462 41.4189 57.0877C41.0713 57.2424 40.7253 57.397 40.3853 57.5639C40.197 57.6558 40.0056 57.763 39.8126 57.864V55.1246H44.1154C43.9439 55.486 43.725 55.8137 43.4784 55.9959ZM52.0626 33.6871C52.9079 33.6871 53.5939 33.0027 53.5939 32.1559V19.9059H56.6564V32.1559C56.6564 34.6886 54.5953 36.7496 52.0626 36.7496H42.8751C42.0299 36.7496 41.3439 37.4341 41.3439 38.2809V45.9371C41.3439 46.7839 42.0299 47.4684 42.8751 47.4684H53.5939C56.1266 47.4684 58.1876 49.5294 58.1876 52.0621V62.7809H53.5939V53.5934C53.5939 52.7466 52.9079 52.0621 52.0626 52.0621H38.2814C37.4361 52.0621 36.7501 52.7466 36.7501 53.5934V75.0309H32.1564V39.8121C32.1564 39.1935 31.7828 38.6331 31.2116 38.3973C30.6389 38.1584 29.982 38.2916 29.5425 38.7295L24.0622 44.2084C23.7743 44.4962 23.6135 44.8836 23.6135 45.2909C23.6135 45.6983 23.7743 46.0872 24.0622 46.3735L28.339 50.6503L25.9104 53.0789L21.3718 48.5403C19.5818 46.7487 19.5818 43.8347 21.3718 42.0432L29.8518 33.5631C31.3418 34.6028 33.1486 35.2184 35.0979 35.2184C35.1393 35.2184 35.1775 35.2123 35.2189 35.2123V44.4059H38.2814V34.638C38.949 34.39 39.5814 34.0745 40.1663 33.6871H52.0626ZM35.0979 19.9059C38.4758 19.9059 41.2229 22.6529 41.2229 26.0309C41.2229 29.4088 38.4758 32.1559 35.0979 32.1559C31.72 32.1559 28.9729 29.4088 28.9729 26.0309C28.9729 22.6529 31.7215 19.9059 35.0979 19.9059ZM9.18916 55.3849C9.85832 53.8139 10.4892 52.3301 11.1691 50.9474C11.4937 50.2874 11.8137 49.6152 12.1353 48.9384C13.2546 46.5818 14.4123 44.144 15.8899 42.1213C17.7642 39.5549 20.6475 36.4618 24.615 34.4711L19.2051 39.881C16.2207 42.8654 16.2207 47.7241 19.2051 50.7085L24.8263 56.3297C25.425 56.9284 26.3928 56.9284 26.9915 56.3297L29.0939 54.2273V63.4424C25.8752 65.3304 22.1987 64.8175 19.6047 63.9906C16.0017 62.8391 10.7449 61.1639 6.1726 61.8851C7.30878 59.8026 8.25816 57.5746 9.18916 55.3849Z" fill="url(#paint1_linear_3_2143)"/>
<defs>
<linearGradient id="paint0_linear_3_2143" x1="93.8" y1="11.1363" x2="-3.75794" y2="19.3281" gradientUnits="userSpaceOnUse">
<stop offset="0.0608334" stop-color="#CE3E50"/>
<stop offset="0.345833" stop-color="#472F7B"/>
<stop offset="0.600833" stop-color="#1F298B"/>
<stop offset="0.795833" stop-color="#0173BC"/>
</linearGradient>
<linearGradient id="paint1_linear_3_2143" x1="58.6251" y1="23.8036" x2="-2.34822" y2="28.9235" gradientUnits="userSpaceOnUse">
<stop offset="0.0608334" stop-color="#CE3E50"/>
<stop offset="0.345833" stop-color="#472F7B"/>
<stop offset="0.600833" stop-color="#1F298B"/>
<stop offset="0.795833" stop-color="#0173BC"/>
</linearGradient>
</defs>
</svg>
